<svg width="125" height="125" viewBox="0 0 125 125" fill="none" xmlns="http://www.w3.org/2000/svg">
<path d="M120.908 66.4092L123.044 65.0255C124.421 67.1603 124.926 69.4038 124.561 71.7562C124.286 73.5279 123.689 74.8685 122.77 75.7779C121.851 76.6873 120.752 77.0426 119.471 76.8438L119.449 76.8404C117.648 76.5607 116.575 75.4183 116.23 73.4132C115.372 75.506 113.975 76.4022 112.039 76.1017L112.017 76.0982C110.677 75.8902 109.664 75.1459 108.979 73.8655C108.308 72.5873 108.124 70.9731 108.427 69.0227C108.811 66.5512 109.915 64.5424 111.741 62.9962L113.476 64.935C111.999 66.2916 111.132 67.8036 110.873 69.4711C110.711 70.5133 110.789 71.3868 111.107 72.0917C111.422 72.8115 111.937 73.2269 112.651 73.3378L112.674 73.3413C113.388 73.4523 113.98 73.224 114.449 72.6564C114.934 72.0912 115.256 71.2417 115.417 70.1079L115.854 67.294L118.176 67.6546L117.733 70.5131C117.585 71.466 117.66 72.2553 117.96 72.8812C118.274 73.5094 118.788 73.8789 119.503 73.9899L119.525 73.9933C120.18 74.095 120.735 73.9068 121.191 73.4286C121.661 72.9527 121.969 72.2458 122.115 71.3078C122.35 69.7892 121.948 68.1563 120.908 66.4092Z" fill="#FFAD0F"/>
<path d="M107.776 76.7578L118.517 90.4304L117.297 92.7L99.9674 91.291L101.358 88.7029L105.482 89.0971L109.022 82.5073L106.428 79.2662L107.776 76.7578ZM110.711 84.5691L108.133 89.3671L115.002 89.9531L110.711 84.5691Z" fill="#FFAD0F"/>
<path d="M98.1222 93.093L108.683 104.872L100.134 112.536L98.4747 110.685L104.987 104.847L102.392 101.952L99.1276 104.879C97.8038 106.066 96.494 106.704 95.1981 106.793C93.9123 106.894 92.7765 106.394 91.7909 105.295L91.7758 105.278C90.76 104.145 90.3637 102.902 90.587 101.548C90.8202 100.206 91.61 98.9314 92.9562 97.7245L98.1222 93.093ZM97.7456 96.7695L94.5652 99.6208C93.8696 100.244 93.4507 100.883 93.3083 101.537C93.1547 102.201 93.3244 102.807 93.8172 103.357L93.8323 103.374C94.3251 103.924 94.8885 104.157 95.5225 104.074C96.1666 104.003 96.842 103.65 97.5488 103.016L100.763 100.135L97.7456 96.7695Z" fill="#FFAD0F"/>
<path d="M86.5214 102.781L92.7385 117.328L87.0028 119.779C85.3125 120.502 83.7792 120.633 82.4027 120.172C81.0262 119.712 80.0242 118.747 79.3966 117.279L79.3788 117.237C78.7097 115.672 78.7429 114.216 79.4782 112.869C80.1997 111.529 81.3986 110.5 83.075 109.784L85.9636 108.549L83.9653 103.873L86.5214 102.781ZM86.9495 110.856L83.9777 112.126C83.0217 112.534 82.3634 113.103 82.0026 113.83C81.6418 114.558 81.6242 115.303 81.9499 116.065L81.9676 116.106C82.3288 116.951 82.8812 117.477 83.6249 117.684C84.3685 117.89 85.2322 117.783 86.2159 117.363L89.1876 116.093L86.9495 110.856Z" fill="#FFAD0F"/>
<path d="M65.4189 108.494C67.8119 108.383 69.8201 109.082 71.4436 110.591C73.067 112.099 73.931 113.982 74.0357 116.24L74.0377 116.285C74.1424 118.542 73.449 120.505 71.9577 122.173C70.4513 123.842 68.5091 124.731 66.1312 124.841C63.7381 124.952 61.7299 124.253 60.1065 122.745C58.483 121.236 57.619 119.353 57.5144 117.096L57.5123 117.051C57.4077 114.793 58.1085 112.83 59.6149 111.161C61.1062 109.494 63.0409 108.604 65.4189 108.494ZM69.4288 112.517C68.3551 111.48 67.0432 110.998 65.493 111.07C63.9428 111.142 62.6958 111.735 61.752 112.85C60.7931 113.965 60.3499 115.305 60.4225 116.871L60.4246 116.916C60.4971 118.481 61.0702 119.782 62.1438 120.818C63.2024 121.855 64.5068 122.337 66.057 122.266C67.6072 122.194 68.8618 121.6 69.8206 120.485C70.7645 119.37 71.2001 118.03 71.1276 116.465L71.1255 116.42C71.0529 114.855 70.4874 113.553 69.4288 112.517Z" fill="#FFAD0F"/>
<path d="M54.1418 108.554L48.9195 123.487L46.2955 122.569L48.4665 116.361L41.3413 113.869L39.1703 120.077L36.5463 119.16L41.7686 104.226L44.3926 105.144L42.1918 111.437L49.317 113.929L51.5179 107.636L54.1418 108.554Z" fill="#FFAD0F"/>
<path d="M28.2658 93.989L30.4017 95.7681L23.0828 104.555L37.0004 101.265L38.8585 102.812L28.7335 114.968L26.5976 113.189L33.7285 104.628L20.1899 107.851L18.1408 106.145L28.2658 93.989Z" fill="#FFAD0F"/>
<path d="M26.2 91.4553L12.6387 99.6017L9.42671 94.2547C8.48017 92.679 8.14089 91.1779 8.40887 89.7515C8.67685 88.325 9.49536 87.2006 10.8644 86.3782L10.9032 86.3549C12.3626 85.4782 13.8095 85.3121 15.2439 85.8565C16.6705 86.388 17.8531 87.4352 18.7919 88.998L20.4096 91.6909L24.7686 89.0724L26.2 91.4553ZM18.2591 92.9827L16.5949 90.2123C16.0596 89.3211 15.4069 88.7465 14.6367 88.4885C13.8666 88.2306 13.1263 88.3149 12.416 88.7416L12.3772 88.7649C11.5894 89.2382 11.144 89.8573 11.041 90.6222C10.9381 91.387 11.162 92.228 11.7129 93.145L13.3771 95.9154L18.2591 92.9827Z" fill="#FFAD0F"/>
<path d="M17.6606 71.3626C18.0914 73.7192 17.6683 75.803 16.3912 77.6141C15.114 79.4251 13.3639 80.5339 11.1407 80.9403L11.0963 80.9485C8.87313 81.3549 6.83514 80.931 4.98232 79.6769C3.12678 78.4079 1.98495 76.6025 1.55683 74.2608C1.126 71.9043 1.54914 69.8205 2.82626 68.0094C4.10338 66.1983 5.85351 65.0896 8.07666 64.6831L8.12113 64.675C10.3443 64.2685 12.3836 64.6998 14.2392 65.9688C16.092 67.223 17.2325 69.0209 17.6606 71.3626ZM14.2124 75.8757C15.0953 74.6728 15.3971 73.3081 15.1181 71.7815C14.839 70.255 14.0839 69.0988 12.8527 68.313C11.6189 67.5123 10.2313 67.2529 8.6899 67.5347L8.64544 67.5429C7.10405 67.8247 5.89193 68.567 5.00907 69.7699C4.1235 70.958 3.82026 72.3154 4.09935 73.8419C4.37844 75.3685 5.13491 76.5321 6.36874 77.3327C7.59987 78.1185 8.98613 78.3705 10.5275 78.0887L10.572 78.0806C12.1134 77.7988 13.3268 77.0638 14.2124 75.8757Z" fill="#FFAD0F"/>
<path d="M16.3113 59.3505L0.771484 56.3864L2.10106 49.4157C2.44263 47.6249 3.15972 46.3582 4.25233 45.6157C5.0806 45.0528 6.00533 44.8687 7.02652 45.0635L7.07092 45.0719C8.6101 45.3655 9.62335 46.3257 10.1107 47.9525C10.6578 47.0138 11.2694 46.3406 11.9454 45.9326C12.6242 45.5099 13.4668 45.3946 14.4732 45.5865L14.5176 45.595C15.8792 45.8547 16.8312 46.5731 17.3736 47.7503C17.9159 48.9274 18.0192 50.3965 17.6833 52.1577L16.3113 59.3505ZM6.99409 47.8872L6.94969 47.8787C6.3281 47.7602 5.80194 47.9052 5.37121 48.3139C4.9285 48.7049 4.62246 49.3444 4.45309 50.2324L3.70361 54.1618L7.83277 54.9494L8.54414 51.2198C8.71916 50.3022 8.67847 49.5506 8.42207 48.9648C8.16568 48.3791 7.68968 48.0199 6.99409 47.8872ZM13.7082 48.2705L13.6638 48.2621C12.2726 47.9967 11.3737 48.9296 10.9672 51.0608L10.1416 55.3898L14.4039 56.2027L15.2677 51.674C15.4484 50.7268 15.4105 49.9603 15.1541 49.3746C14.8857 48.7712 14.4038 48.4032 13.7082 48.2705Z" fill="#FFAD0F"/>
<path d="M18.5247 46.4555L8.39896 32.3211L9.71753 30.1077L26.9682 32.2819L25.4646 34.8059L21.3621 34.2298L17.5336 40.6564L19.9821 44.0091L18.5247 46.4555ZM15.9377 38.522L18.7252 33.8427L11.8893 32.9535L15.9377 38.522Z" fill="#FFAD0F"/>
<path d="M31.9476 28.0387L23.3243 17.9872L19.4993 21.2687L17.8217 19.3133L27.5816 10.9402L29.2592 12.8956L25.4341 16.1772L34.0574 26.2287L31.9476 28.0387Z" fill="#FFAD0F"/>
<path d="M38.9526 22.3822L32.7355 7.83498L35.2917 6.74255L37.3611 11.5847L40.4368 10.2702C42.1547 9.53601 43.697 9.36842 45.0636 9.76746C46.4441 10.1606 47.4571 11.1122 48.1025 12.6223L48.1202 12.6639C48.7715 14.1879 48.7642 15.6083 48.0981 16.9252C47.432 18.2421 46.2054 19.2825 44.4182 20.0463L38.9526 22.3822ZM40.514 18.9622L43.4858 17.6921C44.4556 17.2777 45.1229 16.7303 45.4876 16.0501C45.8661 15.364 45.8837 14.6192 45.5403 13.8156L45.5314 13.7949C45.1821 12.9775 44.6454 12.4695 43.9216 12.2709C43.1977 12.0723 42.3439 12.1832 41.3603 12.6036L38.3469 13.8915L40.514 18.9622Z" fill="#FFAD0F"/>
<path d="M65.9874 16.5866C63.6987 16.507 61.8136 15.6576 60.3321 14.0382C58.8507 12.4189 58.1497 10.4648 58.2292 8.17606L58.2308 8.13088C58.3103 5.84213 59.1455 3.93392 60.7363 2.40624C62.3271 0.878567 64.297 0.155542 66.646 0.237167C68.0163 0.284782 69.1759 0.536139 70.1249 0.991238C71.074 1.44634 71.9562 2.08756 72.7717 2.91492L70.916 4.90827C69.5456 3.56414 68.0849 2.86512 66.534 2.81123C65.0583 2.75995 63.8048 3.25912 62.7733 4.30873C61.7423 5.34328 61.1999 6.63603 61.146 8.18696L61.1445 8.23213C61.09 9.79812 61.5409 11.1405 62.497 12.2591C63.4532 13.3778 64.6766 13.9631 66.1673 14.0149C67.0707 14.0462 67.8745 13.9083 68.5787 13.6011C69.2828 13.2939 70.0159 12.8068 70.7778 12.1398L72.4993 14.0087C71.6091 14.8974 70.6512 15.5652 69.6256 16.012C68.6005 16.4437 67.3878 16.6352 65.9874 16.5866Z" fill="#FFAD0F"/>
<path d="M77.637 18.6334L82.1496 6.18232L77.4114 4.46508L78.2892 2.04285L90.3791 6.42453L89.5012 8.84676L84.763 7.12951L80.2504 19.5806L77.637 18.6334Z" fill="#FFAD0F"/>
<path d="M91.9915 26.9011C90.1564 25.3612 89.153 23.4866 88.9811 21.2772C88.8092 19.0678 89.4497 17.0975 90.9024 15.3662L90.9314 15.3316C92.3842 13.6004 94.224 12.6267 96.4509 12.4105C98.6894 12.204 100.72 12.8659 102.544 14.3961C104.379 15.936 105.383 17.8106 105.554 20.02C105.726 22.2295 105.086 24.1998 103.633 25.931L103.604 25.9656C102.151 27.6969 100.306 28.6657 98.0673 28.8722C95.8403 29.0884 93.8151 28.4314 91.9915 26.9011ZM91.7678 21.2259C91.8554 22.7155 92.4935 23.959 93.6823 24.9566C94.8711 25.9541 96.1901 26.3628 97.6395 26.1825C99.1004 26.012 100.334 25.3265 101.342 24.1262L101.371 24.0916C102.378 22.8913 102.838 21.5463 102.75 20.0568C102.674 18.5769 102.042 17.3382 100.853 16.3406C99.6644 15.3431 98.3396 14.9296 96.8787 15.1002C95.4293 15.2804 94.201 15.9707 93.1938 17.171L93.1647 17.2056C92.1575 18.4059 91.6919 19.746 91.7678 21.2259Z" fill="#FFAD0F"/>
<path d="M117.905 33.4965L107.14 47.0697L105.664 44.3477L113.914 34.1949L100.915 35.5855L99.4823 32.9429L116.721 31.311L117.905 33.4965Z" fill="#FFAD0F"/>
<path d="M61.9997 74.2498C55.7897 74.2498 50.7497 69.2098 50.7497 62.9998C50.7497 56.7898 55.7897 51.7498 61.9997 51.7498C68.2097 51.7498 73.2497 56.7898 73.2497 62.9998C73.2497 69.2098 68.2097 74.2498 61.9997 74.2498ZM64.2497 44.9998V38.2498C64.2497 37.0123 63.2372 35.9998 61.9997 35.9998C60.7622 35.9998 59.7497 37.0123 59.7497 38.2498V44.9998C59.7497 46.2373 60.7622 47.2498 61.9997 47.2498C63.2372 47.2498 64.2497 46.2373 64.2497 44.9998ZM64.2497 87.7498V80.9998C64.2497 79.7623 63.2372 78.7498 61.9997 78.7498C60.7622 78.7498 59.7497 79.7623 59.7497 80.9998V87.7498C59.7497 88.9873 60.7622 89.9998 61.9997 89.9998C63.2372 89.9998 64.2497 88.9873 64.2497 87.7498ZM46.2497 62.9998C46.2497 61.7623 45.2372 60.7498 43.9997 60.7498H37.2497C36.0122 60.7498 34.9997 61.7623 34.9997 62.9998C34.9997 64.2373 36.0122 65.2498 37.2497 65.2498H43.9997C45.2372 65.2498 46.2497 64.2373 46.2497 62.9998ZM88.9997 62.9998C88.9997 61.7623 87.9872 60.7498 86.7497 60.7498H79.9997C78.7622 60.7498 77.7497 61.7623 77.7497 62.9998C77.7497 64.2373 78.7622 65.2498 79.9997 65.2498H86.7497C87.9872 65.2498 88.9997 64.2373 88.9997 62.9998ZM50.0972 51.0973C50.9747 50.2198 50.9747 48.8023 50.0972 47.9248L45.5972 43.4248C44.7197 42.5473 43.3022 42.5473 42.4247 43.4248C41.5472 44.3023 41.5472 45.7198 42.4247 46.5973L46.9247 51.0973C47.3747 51.5473 47.9372 51.7498 48.5222 51.7498C49.1072 51.7498 49.6697 51.5248 50.1197 51.0973H50.0972ZM81.5972 82.5973C82.4747 81.7198 82.4747 80.3023 81.5972 79.4248L77.0972 74.9248C76.2197 74.0473 74.8022 74.0473 73.9247 74.9248C73.0472 75.8023 73.0472 77.2198 73.9247 78.0973L78.4247 82.5973C78.8747 83.0473 79.4372 83.2498 80.0222 83.2498C80.6072 83.2498 81.1697 83.0248 81.6197 82.5973H81.5972ZM45.5972 82.5973L50.0972 78.0973C50.9747 77.2198 50.9747 75.8023 50.0972 74.9248C49.2197 74.0473 47.8022 74.0473 46.9247 74.9248L42.4247 79.4248C41.5472 80.3023 41.5472 81.7198 42.4247 82.5973C42.8747 83.0473 43.4372 83.2498 44.0222 83.2498C44.6072 83.2498 45.1697 83.0248 45.6197 82.5973H45.5972ZM77.0972 51.0973L81.5972 46.5973C82.4747 45.7198 82.4747 44.3023 81.5972 43.4248C80.7197 42.5473 79.3022 42.5473 78.4247 43.4248L73.9247 47.9248C73.0472 48.8023 73.0472 50.2198 73.9247 51.0973C74.3747 51.5473 74.9372 51.7498 75.5222 51.7498C76.1072 51.7498 76.6697 51.5248 77.1197 51.0973H77.0972Z" fill="#FFAD0F"/>
</svg>
