<svg width="103" height="103" viewBox="0 0 103 103" fill="none" xmlns="http://www.w3.org/2000/svg">
<path fill-rule="evenodd" clip-rule="evenodd" d="M51.5 103C79.9427 103 103 79.9427 103 51.5C103 23.0573 79.9427 0 51.5 0C23.0573 0 0 23.0573 0 51.5C0 79.9427 23.0573 103 51.5 103ZM70.6995 33.3468C70.703 44.0341 62.1213 52.704 51.5266 52.7075C40.9388 52.7006 32.3537 44.0445 32.34 33.3606C32.3366 22.6733 40.9217 14.0034 51.513 14C62.1042 13.9966 70.6961 22.6561 70.6995 33.3468ZM59.4726 33.3641C59.4726 28.936 55.9149 25.346 51.5266 25.346C47.1418 25.3495 43.5875 28.936 43.5806 33.3606C43.5806 37.7887 47.1384 41.3787 51.5266 41.3787C55.9149 41.3787 59.4726 37.7921 59.4726 33.3641ZM70.4227 63.8431C66.9948 66.0192 63.2286 67.5952 59.2812 68.4987L69.9989 79.3309C72.1896 81.5449 72.1896 85.1281 69.9989 87.3421C67.8048 89.5526 64.2539 89.5526 62.0598 87.3421L51.5198 76.7065L40.9867 87.3421C38.8165 89.4112 35.4262 89.4112 33.256 87.3421C30.9969 85.1867 30.8978 81.5932 33.0338 79.3171L43.7584 68.4953C39.8144 67.5883 36.0482 66.0123 32.6237 63.8396C32.6237 63.8396 32.6224 63.8383 32.6206 63.8373C32.6195 63.8367 32.6182 63.8362 32.6169 63.8362C29.9921 62.1636 29.2129 58.6598 30.8705 56.0147C32.5212 53.373 35.9832 52.5799 38.6046 54.2386C46.5027 59.2219 56.53 59.2219 64.4282 54.2386C67.0324 52.6212 70.4432 53.4041 72.1008 55.9975C73.7857 58.6322 73.0338 62.1429 70.4227 63.8431Z" fill="#E34C21"/>
</svg>
