<svg width="1080" height="695" viewBox="0 0 1080 695" fill="none" xmlns="http://www.w3.org/2000/svg">
<rect width="1080" height="695" fill="#E35200"/>
<mask id="mask0_103_564" style="mask-type:alpha" maskUnits="userSpaceOnUse" x="0" y="0" width="1080" height="695">
<rect width="1080" height="695" fill="#E35200"/>
</mask>
<g mask="url(#mask0_103_564)">
<path fill-rule="evenodd" clip-rule="evenodd" d="M-405.771 -72L-338.219 0.642183L-270.668 -72L-203.116 0.642183L-135.565 -72L-68.0137 0.642183L-0.462338 -72L67.0891 0.642152L134.64 -72L202.192 0.642152L269.743 -72L337.295 0.642152L404.846 -72L472.397 0.642152L539.949 -72L607.503 0.645813L675.055 -71.9604L742.603 0.678184L810.154 -71.964L877.705 0.678184L945.257 -71.964L1012.81 0.678184L1080.36 -71.964L1147.91 0.678184L1215.46 -71.964L1283.01 0.678184L1350.56 -71.964L1418.12 0.678184L1485.67 -71.964L1553.22 0.678184L1620.77 -71.964L1702 15.387L1674.64 41.2911L1620.77 -16.6422L1553.22 56L1485.67 -16.6422L1418.12 56L1350.56 -16.6422L1283.01 56L1215.46 -16.6422L1147.91 56L1080.36 -16.6422L1012.81 56L945.257 -16.6422L877.705 56L810.154 -16.6422L742.603 56L675.048 -16.6458L607.497 55.9604L539.949 -16.6781L472.397 55.964L404.846 -16.6781L337.295 55.964L269.743 -16.6781L202.192 55.964L134.64 -16.6781L67.0891 55.964L-0.462338 -16.6781L-68.0137 55.964L-135.565 -16.6781L-203.116 55.964L-270.668 -16.6781L-338.219 55.964L-405.771 -16.6781L-459.644 41.2551L-487 15.3511L-405.771 -72Z" fill="#F5F2EB"/>
<path d="M-272 -72L-204.333 0.662607L-136.667 -72L-69 0.662607L-1.33333 -72V-16.6626L-69 56L-136.667 -16.6626L-204.333 56L-272 -16.6626V-72Z" fill="#E35200"/>
<path d="M269.333 -72L337 0.662575L404.667 -72L472.333 0.662575L540 -72V-16.6626L472.333 56L404.667 -16.6626L337 56L269.333 -16.6626V-72Z" fill="#E35200"/>
<path d="M810 -72L877.583 0.662607L945.167 -72L1012.75 0.662607L1080.33 -72V-16.6626L1012.75 56L945.167 -16.6626L877.583 56L810 -16.6626V-72Z" fill="#E35200"/>
<path d="M1350.67 -72L1418.25 0.662575L1485.83 -72L1553.42 0.662575L1621 -72V-16.6626L1553.42 56L1485.83 -16.6626L1418.25 56L1350.67 -16.6626V-72Z" fill="#E35200"/>
<path fill-rule="evenodd" clip-rule="evenodd" d="M-405.771 -17L-338.219 55.0747L-270.668 -17L-203.116 55.0747L-135.565 -17L-68.0137 55.0747L-0.462338 -17L67.0891 55.0746L134.64 -17L202.192 55.0746L269.743 -17L337.295 55.0746L404.846 -17L472.397 55.0746L539.949 -17L607.503 55.0783L675.055 -16.9607L742.603 55.1104L810.154 -16.9643L877.705 55.1104L945.257 -16.9643L1012.81 55.1104L1080.36 -16.9643L1147.91 55.1104L1215.46 -16.9643L1283.01 55.1104L1350.56 -16.9643L1418.12 55.1104L1485.67 -16.9643L1553.22 55.1104L1620.77 -16.9643L1702 69.7043L1674.64 95.406L1620.77 37.9253L1553.22 110L1485.67 37.9253L1418.12 110L1350.56 37.9253L1283.01 110L1215.46 37.9253L1147.91 110L1080.36 37.9253L1012.81 110L945.257 37.9253L877.705 110L810.154 37.9253L742.603 110L675.048 37.9217L607.497 109.961L539.949 37.8897L472.397 109.964L404.846 37.8897L337.295 109.964L269.743 37.8897L202.192 109.964L134.64 37.8897L67.0891 109.964L-0.462338 37.8896L-68.0137 109.964L-135.565 37.8896L-203.116 109.964L-270.668 37.8896L-338.219 109.964L-405.771 37.8896L-459.644 95.3703L-487 69.6686L-405.771 -17Z" fill="#E35200"/>
<path d="M-272 -17L-204.333 55.0949L-136.667 -17L-69 55.0949L-1.33333 -17V37.9051L-69 110L-136.667 37.9051L-204.333 110L-272 37.9051V-17Z" fill="#F5F2EB"/>
<path d="M269.333 -17L337 55.0949L404.667 -17L472.333 55.0949L540 -17V37.9051L472.333 110L404.667 37.9051L337 110L269.333 37.9051V-17Z" fill="#F5F2EB"/>
<path d="M810 -17L877.583 55.0949L945.167 -17L1012.75 55.0949L1080.33 -17V37.9051L1012.75 110L945.167 37.9051L877.583 110L810 37.9051V-17Z" fill="#F5F2EB"/>
<path d="M1350.67 -17L1418.25 55.0949L1485.83 -17L1553.42 55.0949L1621 -17V37.9051L1553.42 110L1485.83 37.9051L1418.25 110L1350.67 37.9051V-17Z" fill="#F5F2EB"/>
<path fill-rule="evenodd" clip-rule="evenodd" d="M-405.771 38L-338.219 110.075L-270.668 38L-203.116 110.075L-135.565 38L-68.0137 110.075L-0.462338 38L67.0891 110.075L134.64 38L202.192 110.075L269.743 38L337.295 110.075L404.846 38L472.397 110.075L539.949 38L607.503 110.078L675.055 38.0393L742.603 110.11L810.154 38.0357L877.705 110.11L945.257 38.0357L1012.81 110.11L1080.36 38.0357L1147.91 110.11L1215.46 38.0357L1283.01 110.11L1350.56 38.0357L1418.12 110.11L1485.67 38.0357L1553.22 110.11L1620.77 38.0357L1702 124.704L1674.64 150.406L1620.77 92.9253L1553.22 165L1485.67 92.9253L1418.12 165L1350.56 92.9253L1283.01 165L1215.46 92.9253L1147.91 165L1080.36 92.9253L1012.81 165L945.257 92.9253L877.705 165L810.154 92.9253L742.603 165L675.048 92.9217L607.497 164.961L539.949 92.8897L472.397 164.964L404.846 92.8897L337.295 164.964L269.743 92.8897L202.192 164.964L134.64 92.8897L67.0891 164.964L-0.462338 92.8896L-68.0137 164.964L-135.565 92.8896L-203.116 164.964L-270.668 92.8896L-338.219 164.964L-405.771 92.8896L-459.644 150.37L-487 124.669L-405.771 38Z" fill="#F5F2EB"/>
<path d="M-272 38L-204.333 110.095L-136.667 38L-69 110.095L-1.33333 38V92.9051L-69 165L-136.667 92.9051L-204.333 165L-272 92.9051V38Z" fill="#E35200"/>
<path d="M269.333 38L337 110.095L404.667 38L472.333 110.095L540 38V92.9051L472.333 165L404.667 92.9051L337 165L269.333 92.9051V38Z" fill="#E35200"/>
<path d="M810 38L877.583 110.095L945.167 38L1012.75 110.095L1080.33 38V92.9051L1012.75 165L945.167 92.9051L877.583 165L810 92.9051V38Z" fill="#E35200"/>
<path d="M1350.67 38L1418.25 110.095L1485.83 38L1553.42 110.095L1621 38V92.9051L1553.42 165L1485.83 92.9051L1418.25 165L1350.67 92.9051V38Z" fill="#E35200"/>
<path fill-rule="evenodd" clip-rule="evenodd" d="M-405.771 93L-338.219 165.075L-270.668 93L-203.116 165.075L-135.565 93L-68.0137 165.075L-0.462338 93L67.0891 165.075L134.64 93L202.192 165.075L269.743 93L337.295 165.075L404.846 93L472.397 165.075L539.949 93L607.503 165.078L675.055 93.0393L742.603 165.11L810.154 93.0357L877.705 165.11L945.257 93.0357L1012.81 165.11L1080.36 93.0357L1147.91 165.11L1215.46 93.0357L1283.01 165.11L1350.56 93.0357L1418.12 165.11L1485.67 93.0357L1553.22 165.11L1620.77 93.0357L1702 179.704L1674.64 205.406L1620.77 147.925L1553.22 220L1485.67 147.925L1418.12 220L1350.56 147.925L1283.01 220L1215.46 147.925L1147.91 220L1080.36 147.925L1012.81 220L945.257 147.925L877.705 220L810.154 147.925L742.603 220L675.048 147.922L607.497 219.961L539.949 147.89L472.397 219.964L404.846 147.89L337.295 219.964L269.743 147.89L202.192 219.964L134.64 147.89L67.0891 219.964L-0.462338 147.89L-68.0137 219.964L-135.565 147.89L-203.116 219.964L-270.668 147.89L-338.219 219.964L-405.771 147.89L-459.644 205.37L-487 179.669L-405.771 93Z" fill="#E35200"/>
<path d="M-272 93L-204.333 165.095L-136.667 93L-69 165.095L-1.33333 93V147.905L-69 220L-136.667 147.905L-204.333 220L-272 147.905V93Z" fill="#F5F2EB"/>
<path d="M269.333 93L337 165.095L404.667 93L472.333 165.095L540 93V147.905L472.333 220L404.667 147.905L337 220L269.333 147.905V93Z" fill="#F5F2EB"/>
<path d="M810 93L877.583 165.095L945.167 93L1012.75 165.095L1080.33 93V147.905L1012.75 220L945.167 147.905L877.583 220L810 147.905V93Z" fill="#F5F2EB"/>
<path d="M1350.67 93L1418.25 165.095L1485.83 93L1553.42 165.095L1621 93V147.905L1553.42 220L1485.83 147.905L1418.25 220L1350.67 147.905V93Z" fill="#F5F2EB"/>
<path fill-rule="evenodd" clip-rule="evenodd" d="M-405.771 148L-338.219 219.507L-270.668 148L-203.116 219.507L-135.565 148L-68.0137 219.507L-0.462338 148L67.0891 219.507L134.64 148L202.192 219.507L269.743 148L337.295 219.507L404.846 148L472.397 219.507L539.949 148L607.503 219.511L675.055 148.039L742.603 219.543L810.154 148.035L877.705 219.543L945.257 148.035L1012.81 219.543L1080.36 148.035L1147.91 219.543L1215.46 148.035L1283.01 219.543L1350.56 148.035L1418.12 219.543L1485.67 148.035L1553.22 219.543L1620.77 148.035L1702 234.022L1674.64 259.521L1620.77 202.493L1553.22 274L1485.67 202.493L1418.12 274L1350.56 202.493L1283.01 274L1215.46 202.493L1147.91 274L1080.36 202.493L1012.81 274L945.257 202.493L877.705 274L810.154 202.493L742.603 274L675.048 202.489L607.497 273.961L539.949 202.457L472.397 273.965L404.846 202.457L337.295 273.965L269.743 202.457L202.192 273.965L134.64 202.457L67.0891 273.965L-0.462338 202.457L-68.0137 273.965L-135.565 202.457L-203.116 273.965L-270.668 202.457L-338.219 273.965L-405.771 202.457L-459.644 259.486L-487 233.986L-405.771 148Z" fill="#F5F2EB"/>
<path d="M-272 148L-204.333 219.527L-136.667 148L-69 219.527L-1.33333 148V202.473L-69 274L-136.667 202.473L-204.333 274L-272 202.473V148Z" fill="#E35200"/>
<path d="M269.333 148L337 219.527L404.667 148L472.333 219.527L540 148V202.473L472.333 274L404.667 202.473L337 274L269.333 202.473V148Z" fill="#E35200"/>
<path d="M810 148L877.583 219.527L945.167 148L1012.75 219.527L1080.33 148V202.473L1012.75 274L945.167 202.473L877.583 274L810 202.473V148Z" fill="#E35200"/>
<path d="M1350.67 148L1418.25 219.527L1485.83 148L1553.42 219.527L1621 148V202.473L1553.42 274L1485.83 202.473L1418.25 274L1350.67 202.473V148Z" fill="#E35200"/>
<path fill-rule="evenodd" clip-rule="evenodd" d="M-405.771 202L-338.219 274.642L-270.668 202L-203.116 274.642L-135.565 202L-68.0137 274.642L-0.462338 202L67.0891 274.642L134.64 202L202.192 274.642L269.743 202L337.295 274.642L404.846 202L472.397 274.642L539.949 202L607.503 274.646L675.055 202.04L742.603 274.678L810.154 202.036L877.705 274.678L945.257 202.036L1012.81 274.678L1080.36 202.036L1147.91 274.678L1215.46 202.036L1283.01 274.678L1350.56 202.036L1418.12 274.678L1485.67 202.036L1553.22 274.678L1620.77 202.036L1702 289.387L1674.64 315.291L1620.77 257.358L1553.22 330L1485.67 257.358L1418.12 330L1350.56 257.358L1283.01 330L1215.46 257.358L1147.91 330L1080.36 257.358L1012.81 330L945.257 257.358L877.705 330L810.154 257.358L742.603 330L675.048 257.354L607.497 329.96L539.949 257.322L472.397 329.964L404.846 257.322L337.295 329.964L269.743 257.322L202.192 329.964L134.64 257.322L67.0891 329.964L-0.462338 257.322L-68.0137 329.964L-135.565 257.322L-203.116 329.964L-270.668 257.322L-338.219 329.964L-405.771 257.322L-459.644 315.255L-487 289.351L-405.771 202Z" fill="#E35200"/>
<path d="M-272 202L-204.333 274.663L-136.667 202L-69 274.663L-1.33333 202V257.337L-69 330L-136.667 257.337L-204.333 330L-272 257.337V202Z" fill="#F5F2EB"/>
<path d="M269.333 202L337 274.663L404.667 202L472.333 274.663L540 202V257.337L472.333 330L404.667 257.337L337 330L269.333 257.337V202Z" fill="#F5F2EB"/>
<path d="M810 202L877.583 274.663L945.167 202L1012.75 274.663L1080.33 202V257.337L1012.75 330L945.167 257.337L877.583 330L810 257.337V202Z" fill="#F5F2EB"/>
<path d="M1350.67 202L1418.25 274.663L1485.83 202L1553.42 274.663L1621 202V257.337L1553.42 330L1485.83 257.337L1418.25 330L1350.67 257.337V202Z" fill="#F5F2EB"/>
<path fill-rule="evenodd" clip-rule="evenodd" d="M-405.771 257L-338.219 329.075L-270.668 257L-203.116 329.075L-135.565 257L-68.0137 329.075L-0.462338 257L67.0891 329.075L134.64 257L202.192 329.075L269.743 257L337.295 329.075L404.846 257L472.397 329.075L539.949 257L607.503 329.078L675.055 257.039L742.603 329.11L810.154 257.036L877.705 329.11L945.257 257.036L1012.81 329.11L1080.36 257.036L1147.91 329.11L1215.46 257.036L1283.01 329.11L1350.56 257.036L1418.12 329.11L1485.67 257.036L1553.22 329.11L1620.77 257.036L1702 343.704L1674.64 369.406L1620.77 311.925L1553.22 384L1485.67 311.925L1418.12 384L1350.56 311.925L1283.01 384L1215.46 311.925L1147.91 384L1080.36 311.925L1012.81 384L945.257 311.925L877.705 384L810.154 311.925L742.603 384L675.048 311.922L607.497 383.961L539.949 311.89L472.397 383.964L404.846 311.89L337.295 383.964L269.743 311.89L202.192 383.964L134.64 311.89L67.0891 383.964L-0.462338 311.89L-68.0137 383.964L-135.565 311.89L-203.116 383.964L-270.668 311.89L-338.219 383.964L-405.771 311.89L-459.644 369.37L-487 343.669L-405.771 257Z" fill="#F5F2EB"/>
<path d="M-272 257L-204.333 329.095L-136.667 257L-69 329.095L-1.33333 257V311.905L-69 384L-136.667 311.905L-204.333 384L-272 311.905V257Z" fill="#E35200"/>
<path d="M269.333 257L337 329.095L404.667 257L472.333 329.095L540 257V311.905L472.333 384L404.667 311.905L337 384L269.333 311.905V257Z" fill="#E35200"/>
<path d="M810 257L877.583 329.095L945.167 257L1012.75 329.095L1080.33 257V311.905L1012.75 384L945.167 311.905L877.583 384L810 311.905V257Z" fill="#E35200"/>
<path d="M1350.67 257L1418.25 329.095L1485.83 257L1553.42 329.095L1621 257V311.905L1553.42 384L1485.83 311.905L1418.25 384L1350.67 311.905V257Z" fill="#E35200"/>
<path fill-rule="evenodd" clip-rule="evenodd" d="M-405.771 313L-338.219 384.507L-270.668 313L-203.116 384.507L-135.565 313L-68.0137 384.507L-0.462338 313L67.0891 384.507L134.64 313L202.192 384.507L269.743 313L337.295 384.507L404.846 313L472.397 384.507L539.949 313L607.503 384.511L675.055 313.039L742.603 384.543L810.154 313.035L877.705 384.543L945.257 313.035L1012.81 384.543L1080.36 313.035L1147.91 384.543L1215.46 313.035L1283.01 384.543L1350.56 313.035L1418.12 384.543L1485.67 313.035L1553.22 384.543L1620.77 313.035L1702 399.022L1674.64 424.521L1620.77 367.493L1553.22 439L1485.67 367.493L1418.12 439L1350.56 367.493L1283.01 439L1215.46 367.493L1147.91 439L1080.36 367.493L1012.81 439L945.257 367.493L877.705 439L810.154 367.493L742.603 439L675.048 367.489L607.497 438.961L539.949 367.457L472.397 438.965L404.846 367.457L337.295 438.965L269.743 367.457L202.192 438.965L134.64 367.457L67.0891 438.965L-0.462338 367.457L-68.0137 438.965L-135.565 367.457L-203.116 438.965L-270.668 367.457L-338.219 438.965L-405.771 367.457L-459.644 424.486L-487 398.986L-405.771 313Z" fill="#E35200"/>
<path d="M-272 313L-204.333 384.527L-136.667 313L-69 384.527L-1.33333 313V367.473L-69 439L-136.667 367.473L-204.333 439L-272 367.473V313Z" fill="#F5F2EB"/>
<path d="M269.333 313L337 384.527L404.667 313L472.333 384.527L540 313V367.473L472.333 439L404.667 367.473L337 439L269.333 367.473V313Z" fill="#F5F2EB"/>
<path d="M810 313L877.583 384.527L945.167 313L1012.75 384.527L1080.33 313V367.473L1012.75 439L945.167 367.473L877.583 439L810 367.473V313Z" fill="#F5F2EB"/>
<path d="M1350.67 313L1418.25 384.527L1485.83 313L1553.42 384.527L1621 313V367.473L1553.42 439L1485.83 367.473L1418.25 439L1350.67 367.473V313Z" fill="#F5F2EB"/>
<path fill-rule="evenodd" clip-rule="evenodd" d="M-405.771 367L-338.219 439.075L-270.668 367L-203.116 439.075L-135.565 367L-68.0137 439.075L-0.462338 367L67.0891 439.075L134.64 367L202.192 439.075L269.743 367L337.295 439.075L404.846 367L472.397 439.075L539.949 367L607.503 439.078L675.055 367.039L742.603 439.11L810.154 367.036L877.705 439.11L945.257 367.036L1012.81 439.11L1080.36 367.036L1147.91 439.11L1215.46 367.036L1283.01 439.11L1350.56 367.036L1418.12 439.11L1485.67 367.036L1553.22 439.11L1620.77 367.036L1702 453.704L1674.64 479.406L1620.77 421.925L1553.22 494L1485.67 421.925L1418.12 494L1350.56 421.925L1283.01 494L1215.46 421.925L1147.91 494L1080.36 421.925L1012.81 494L945.257 421.925L877.705 494L810.154 421.925L742.603 494L675.048 421.922L607.497 493.961L539.949 421.89L472.397 493.964L404.846 421.89L337.295 493.964L269.743 421.89L202.192 493.964L134.64 421.89L67.0891 493.964L-0.462338 421.89L-68.0137 493.964L-135.565 421.89L-203.116 493.964L-270.668 421.89L-338.219 493.964L-405.771 421.89L-459.644 479.37L-487 453.669L-405.771 367Z" fill="#F5F2EB"/>
<path d="M-272 367L-204.333 439.095L-136.667 367L-69 439.095L-1.33333 367V421.905L-69 494L-136.667 421.905L-204.333 494L-272 421.905V367Z" fill="#E35200"/>
<path d="M269.333 367L337 439.095L404.667 367L472.333 439.095L540 367V421.905L472.333 494L404.667 421.905L337 494L269.333 421.905V367Z" fill="#E35200"/>
<path d="M810 367L877.583 439.095L945.167 367L1012.75 439.095L1080.33 367V421.905L1012.75 494L945.167 421.905L877.583 494L810 421.905V367Z" fill="#E35200"/>
<path d="M1350.67 367L1418.25 439.095L1485.83 367L1553.42 439.095L1621 367V421.905L1553.42 494L1485.83 421.905L1418.25 494L1350.67 421.905V367Z" fill="#E35200"/>
<path fill-rule="evenodd" clip-rule="evenodd" d="M-405.771 422L-338.219 493.507L-270.668 422L-203.116 493.507L-135.565 422L-68.0137 493.507L-0.462338 422L67.0891 493.507L134.64 422L202.192 493.507L269.743 422L337.295 493.507L404.846 422L472.397 493.507L539.949 422L607.503 493.511L675.055 422.039L742.603 493.543L810.154 422.035L877.705 493.543L945.257 422.035L1012.81 493.543L1080.36 422.035L1147.91 493.543L1215.46 422.035L1283.01 493.543L1350.56 422.035L1418.12 493.543L1485.67 422.035L1553.22 493.543L1620.77 422.035L1702 508.022L1674.64 533.521L1620.77 476.493L1553.22 548L1485.67 476.493L1418.12 548L1350.56 476.493L1283.01 548L1215.46 476.493L1147.91 548L1080.36 476.493L1012.81 548L945.257 476.493L877.705 548L810.154 476.493L742.603 548L675.048 476.489L607.497 547.961L539.949 476.457L472.397 547.965L404.846 476.457L337.295 547.965L269.743 476.457L202.192 547.965L134.64 476.457L67.0891 547.965L-0.462338 476.457L-68.0137 547.965L-135.565 476.457L-203.116 547.965L-270.668 476.457L-338.219 547.965L-405.771 476.457L-459.644 533.486L-487 507.986L-405.771 422Z" fill="#E35200"/>
<path d="M-272 422L-204.333 493.527L-136.667 422L-69 493.527L-1.33333 422V476.473L-69 548L-136.667 476.473L-204.333 548L-272 476.473V422Z" fill="#F5F2EB"/>
<path d="M269.333 422L337 493.527L404.667 422L472.333 493.527L540 422V476.473L472.333 548L404.667 476.473L337 548L269.333 476.473V422Z" fill="#F5F2EB"/>
<path d="M810 422L877.583 493.527L945.167 422L1012.75 493.527L1080.33 422V476.473L1012.75 548L945.167 476.473L877.583 548L810 476.473V422Z" fill="#F5F2EB"/>
<path d="M1350.67 422L1418.25 493.527L1485.83 422L1553.42 493.527L1621 422V476.473L1553.42 548L1485.83 476.473L1418.25 548L1350.67 476.473V422Z" fill="#F5F2EB"/>
<path fill-rule="evenodd" clip-rule="evenodd" d="M-405.771 476L-338.219 548.075L-270.668 476L-203.116 548.075L-135.565 476L-68.0137 548.075L-0.462338 476L67.0891 548.075L134.64 476L202.192 548.075L269.743 476L337.295 548.075L404.846 476L472.397 548.075L539.949 476L607.503 548.078L675.055 476.039L742.603 548.11L810.154 476.036L877.705 548.11L945.257 476.036L1012.81 548.11L1080.36 476.036L1147.91 548.11L1215.46 476.036L1283.01 548.11L1350.56 476.036L1418.12 548.11L1485.67 476.036L1553.22 548.11L1620.77 476.036L1702 562.704L1674.64 588.406L1620.77 530.925L1553.22 603L1485.67 530.925L1418.12 603L1350.56 530.925L1283.01 603L1215.46 530.925L1147.91 603L1080.36 530.925L1012.81 603L945.257 530.925L877.705 603L810.154 530.925L742.603 603L675.048 530.922L607.497 602.961L539.949 530.89L472.397 602.964L404.846 530.89L337.295 602.964L269.743 530.89L202.192 602.964L134.64 530.89L67.0891 602.964L-0.462338 530.89L-68.0137 602.964L-135.565 530.89L-203.116 602.964L-270.668 530.89L-338.219 602.964L-405.771 530.89L-459.644 588.37L-487 562.669L-405.771 476Z" fill="#F5F2EB"/>
<path d="M-272 476L-204.333 548.095L-136.667 476L-69 548.095L-1.33333 476V530.905L-69 603L-136.667 530.905L-204.333 603L-272 530.905V476Z" fill="#E35200"/>
<path d="M269.333 476L337 548.095L404.667 476L472.333 548.095L540 476V530.905L472.333 603L404.667 530.905L337 603L269.333 530.905V476Z" fill="#E35200"/>
<path d="M810 476L877.583 548.095L945.167 476L1012.75 548.095L1080.33 476V530.905L1012.75 603L945.167 530.905L877.583 603L810 530.905V476Z" fill="#E35200"/>
<path d="M1350.67 476L1418.25 548.095L1485.83 476L1553.42 548.095L1621 476V530.905L1553.42 603L1485.83 530.905L1418.25 603L1350.67 530.905V476Z" fill="#E35200"/>
<path fill-rule="evenodd" clip-rule="evenodd" d="M-405.771 531L-338.219 603.642L-270.668 531L-203.116 603.642L-135.565 531L-68.0137 603.642L-0.462338 531L67.0891 603.642L134.64 531L202.192 603.642L269.743 531L337.295 603.642L404.846 531L472.397 603.642L539.949 531L607.503 603.646L675.055 531.04L742.603 603.678L810.154 531.036L877.705 603.678L945.257 531.036L1012.81 603.678L1080.36 531.036L1147.91 603.678L1215.46 531.036L1283.01 603.678L1350.56 531.036L1418.12 603.678L1485.67 531.036L1553.22 603.678L1620.77 531.036L1702 618.387L1674.64 644.291L1620.77 586.358L1553.22 659L1485.67 586.358L1418.12 659L1350.56 586.358L1283.01 659L1215.46 586.358L1147.91 659L1080.36 586.358L1012.81 659L945.257 586.358L877.705 659L810.154 586.358L742.603 659L675.048 586.354L607.497 658.96L539.949 586.322L472.397 658.964L404.846 586.322L337.295 658.964L269.743 586.322L202.192 658.964L134.64 586.322L67.0891 658.964L-0.462338 586.322L-68.0137 658.964L-135.565 586.322L-203.116 658.964L-270.668 586.322L-338.219 658.964L-405.771 586.322L-459.644 644.255L-487 618.351L-405.771 531Z" fill="#E35200"/>
<path d="M-272 531L-204.333 603.663L-136.667 531L-69 603.663L-1.33333 531V586.337L-69 659L-136.667 586.337L-204.333 659L-272 586.337V531Z" fill="#F5F2EB"/>
<path d="M269.333 531L337 603.663L404.667 531L472.333 603.663L540 531V586.337L472.333 659L404.667 586.337L337 659L269.333 586.337V531Z" fill="#F5F2EB"/>
<path d="M810 531L877.583 603.663L945.167 531L1012.75 603.663L1080.33 531V586.337L1012.75 659L945.167 586.337L877.583 659L810 586.337V531Z" fill="#F5F2EB"/>
<path d="M1350.67 531L1418.25 603.663L1485.83 531L1553.42 603.663L1621 531V586.337L1553.42 659L1485.83 586.337L1418.25 659L1350.67 586.337V531Z" fill="#F5F2EB"/>
<path fill-rule="evenodd" clip-rule="evenodd" d="M-405.771 586L-338.219 658.075L-270.668 586L-203.116 658.075L-135.565 586L-68.0137 658.075L-0.462338 586L67.0891 658.075L134.64 586L202.192 658.075L269.743 586L337.295 658.075L404.846 586L472.397 658.075L539.949 586L607.503 658.078L675.055 586.039L742.603 658.11L810.154 586.036L877.705 658.11L945.257 586.036L1012.81 658.11L1080.36 586.036L1147.91 658.11L1215.46 586.036L1283.01 658.11L1350.56 586.036L1418.12 658.11L1485.67 586.036L1553.22 658.11L1620.77 586.036L1702 672.704L1674.64 698.406L1620.77 640.925L1553.22 713L1485.67 640.925L1418.12 713L1350.56 640.925L1283.01 713L1215.46 640.925L1147.91 713L1080.36 640.925L1012.81 713L945.257 640.925L877.705 713L810.154 640.925L742.603 713L675.048 640.922L607.497 712.961L539.949 640.89L472.397 712.964L404.846 640.89L337.295 712.964L269.743 640.89L202.192 712.964L134.64 640.89L67.0891 712.964L-0.462338 640.89L-68.0137 712.964L-135.565 640.89L-203.116 712.964L-270.668 640.89L-338.219 712.964L-405.771 640.89L-459.644 698.37L-487 672.669L-405.771 586Z" fill="#F5F2EB"/>
<path d="M-272 586L-204.333 658.095L-136.667 586L-69 658.095L-1.33333 586V640.905L-69 713L-136.667 640.905L-204.333 713L-272 640.905V586Z" fill="#E35200"/>
<path d="M269.333 586L337 658.095L404.667 586L472.333 658.095L540 586V640.905L472.333 713L404.667 640.905L337 713L269.333 640.905V586Z" fill="#E35200"/>
<path d="M810 586L877.583 658.095L945.167 586L1012.75 658.095L1080.33 586V640.905L1012.75 713L945.167 640.905L877.583 713L810 640.905V586Z" fill="#E35200"/>
<path d="M1350.67 586L1418.25 658.095L1485.83 586L1553.42 658.095L1621 586V640.905L1553.42 713L1485.83 640.905L1418.25 713L1350.67 640.905V586Z" fill="#E35200"/>
<path fill-rule="evenodd" clip-rule="evenodd" d="M-405.771 641L-338.219 713.075L-270.668 641L-203.116 713.075L-135.565 641L-68.0137 713.075L-0.462338 641L67.0891 713.075L134.64 641L202.192 713.075L269.743 641L337.295 713.075L404.846 641L472.397 713.075L539.949 641L607.503 713.078L675.055 641.039L742.603 713.11L810.154 641.036L877.705 713.11L945.257 641.036L1012.81 713.11L1080.36 641.036L1147.91 713.11L1215.46 641.036L1283.01 713.11L1350.56 641.036L1418.12 713.11L1485.67 641.036L1553.22 713.11L1620.77 641.036L1702 727.704L1674.64 753.406L1620.77 695.925L1553.22 768L1485.67 695.925L1418.12 768L1350.56 695.925L1283.01 768L1215.46 695.925L1147.91 768L1080.36 695.925L1012.81 768L945.257 695.925L877.705 768L810.154 695.925L742.603 768L675.048 695.922L607.497 767.961L539.949 695.89L472.397 767.964L404.846 695.89L337.295 767.964L269.743 695.89L202.192 767.964L134.64 695.89L67.0891 767.964L-0.462338 695.89L-68.0137 767.964L-135.565 695.89L-203.116 767.964L-270.668 695.89L-338.219 767.964L-405.771 695.89L-459.644 753.37L-487 727.669L-405.771 641Z" fill="#E35200"/>
<path d="M-272 641L-204.333 713.095L-136.667 641L-69 713.095L-1.33333 641V695.905L-69 768L-136.667 695.905L-204.333 768L-272 695.905V641Z" fill="#F5F2EB"/>
<path d="M269.333 641L337 713.095L404.667 641L472.333 713.095L540 641V695.905L472.333 768L404.667 695.905L337 768L269.333 695.905V641Z" fill="#F5F2EB"/>
<path d="M810 641L877.583 713.095L945.167 641L1012.75 713.095L1080.33 641V695.905L1012.75 768L945.167 695.905L877.583 768L810 695.905V641Z" fill="#F5F2EB"/>
<path d="M1350.67 641L1418.25 713.095L1485.83 641L1553.42 713.095L1621 641V695.905L1553.42 768L1485.83 695.905L1418.25 768L1350.67 695.905V641Z" fill="#F5F2EB"/>
</g>
</svg>
