<svg width="283" height="283" viewBox="0 0 283 283" fill="none" xmlns="http://www.w3.org/2000/svg">
<path d="M232.934 180.757L266.576 200.635L251.44 226.251L244.712 222.276L255.474 204.061L248.313 199.829L238.829 215.882L232.1 211.906L241.585 195.854L228.56 188.158L232.934 180.757Z" fill="#3B8C62"/>
<path d="M212.369 212.122L235.489 243.625L221.088 254.194C217.098 257.123 213.256 258.303 209.562 257.737C206.441 257.258 203.779 255.518 201.577 252.518L201.511 252.428C197.966 247.597 197.827 242.69 201.095 237.707L185.142 232.104L193.243 226.159L207.392 231.286L212.837 227.289L205.439 217.208L212.369 212.122ZM217.329 233.41L210.308 238.562C208.628 239.795 207.609 241.143 207.252 242.606C206.916 244.099 207.255 245.535 208.268 246.915L208.334 247.005C209.413 248.475 210.707 249.233 212.218 249.279C213.72 249.376 215.342 248.786 217.082 247.509L223.968 242.456L217.329 233.41Z" fill="#3B8C62"/>
<path d="M178.379 234.26L187.515 272.254L158.857 279.145L157.069 271.709L177.422 266.815L175.569 259.108L157.658 263.414L155.87 255.978L173.781 251.672L171.863 243.693L151.238 248.652L149.45 241.217L178.379 234.26Z" fill="#3B8C62"/>
<path d="M128.632 238.665C135.012 239.524 140.212 242.327 144.229 247.074L138.382 252.426C134.932 248.77 131.289 246.683 127.453 246.167C125.682 245.929 124.276 246.058 123.232 246.556C122.147 247.086 121.527 247.923 121.373 249.066L121.359 249.177C121.21 250.283 121.604 251.256 122.543 252.096C123.481 252.936 125.466 253.954 128.496 255.151C130.598 255.997 132.315 256.773 133.647 257.478C134.974 258.22 136.186 259.115 137.284 260.164C138.382 261.213 139.137 262.441 139.548 263.849C139.923 265.251 139.986 266.874 139.738 268.718L139.723 268.829C139.251 272.333 137.617 274.986 134.821 276.787C132.025 278.589 128.617 279.219 124.597 278.678C119.138 277.943 114.564 275.656 110.875 271.817L116.165 265.995C119.548 269.042 122.733 270.766 125.72 271.168C127.343 271.387 128.621 271.24 129.554 270.727C130.486 270.214 131.02 269.46 131.154 268.464L131.169 268.353C131.338 267.099 130.948 266.089 130 265.323C129.009 264.589 126.843 263.528 123.5 262.139C119.449 260.429 116.542 258.592 114.779 256.627C113.016 254.663 112.35 252.076 112.782 248.867L112.797 248.756C113.304 244.994 115.01 242.22 117.917 240.433C120.782 238.679 124.353 238.089 128.632 238.665Z" fill="#3B8C62"/>
<path d="M91.5861 225.219C96.5535 228.078 99.7331 232.141 101.125 237.407C102.485 242.655 101.754 247.731 98.932 252.633L98.8764 252.73C96.0548 257.633 92.0084 260.822 86.737 262.297C81.4656 263.772 76.2655 263.034 71.1369 260.082C65.7179 256.964 62.269 252.66 60.7902 247.172L68.6781 244.433C70.0824 248.633 72.2361 251.569 75.1391 253.239C77.9453 254.854 80.8779 255.168 83.9367 254.18C86.977 253.225 89.3417 251.279 91.0309 248.344L91.0866 248.247C92.7944 245.28 93.323 242.235 92.6724 239.112C91.9896 235.971 90.2289 233.584 87.3904 231.951C85.5841 230.911 83.8341 230.333 82.1403 230.218C80.4143 230.083 78.4358 230.275 76.2046 230.795L74.2196 223.276C77.2599 222.321 80.1483 221.965 82.8849 222.209C85.5892 222.434 88.4896 223.437 91.5861 225.219Z" fill="#3B8C62"/>
<path d="M48.7625 187.485C54.2034 188.593 58.5784 191.622 61.8874 196.573C65.1965 201.523 66.3382 206.714 65.3127 212.144C64.2356 217.564 61.361 221.836 56.6891 224.959L56.5963 225.021C51.9243 228.144 46.8679 229.151 41.427 228.043C35.9344 226.925 31.5337 223.89 28.2246 218.94C24.9156 213.99 23.7997 208.804 24.8768 203.384C25.9023 197.954 28.751 193.677 33.423 190.554L33.5158 190.492C38.1877 187.369 43.2699 186.367 48.7625 187.485ZM56.9803 209.925C57.7196 206.745 57.1379 203.732 55.2352 200.885C53.3325 198.039 50.7964 196.354 47.627 195.832C44.4576 195.309 41.4496 195.999 38.6032 197.902L38.5104 197.964C35.6639 199.867 33.871 202.408 33.1317 205.588C32.3925 208.768 32.9742 211.781 34.8769 214.628C36.7796 217.474 39.3156 219.159 42.485 219.681C45.6545 220.204 48.6624 219.514 51.5089 217.611L51.6017 217.549C54.4482 215.646 56.2411 213.105 56.9803 209.925Z" fill="#3B8C62"/>
<path d="M30.98 142.078C32.6542 143.6 33.546 145.514 33.6553 147.819C33.7646 150.123 33.0588 152.132 31.5379 153.843C30.0152 155.517 28.1015 156.409 25.7967 156.518L25.6852 156.524C23.3804 156.633 21.3909 155.926 19.7166 154.404C18.0406 152.844 17.1479 150.911 17.0386 148.607C16.9293 146.302 17.636 144.312 19.1587 142.638C20.6796 140.927 22.5924 140.016 24.8972 139.907L25.0087 139.902C27.3135 139.792 29.3039 140.518 30.98 142.078Z" fill="#3B8C62"/>
<path d="M57.1105 96.9018C54.5226 102.015 50.6365 105.409 45.4522 107.081C40.2848 108.72 35.1775 108.263 30.1302 105.708L30.0306 105.658C24.9834 103.104 21.5819 99.2343 19.8262 94.0497C18.0705 88.865 18.5286 83.6329 21.2005 78.3532C24.0237 72.7746 28.1358 69.0997 33.5369 67.3284L36.6949 75.058C32.5761 76.6857 29.7605 78.9939 28.2481 81.9824C26.7861 84.8712 26.6303 87.8164 27.7808 90.8178C28.8981 93.8024 30.9676 96.0593 33.9893 97.5885L34.0889 97.6389C37.1438 99.185 40.2128 99.5494 43.2958 98.7321C46.3956 97.8817 48.6849 95.9955 50.1637 93.0734C51.1048 91.2139 51.5877 89.4353 51.6126 87.7378C51.6543 86.0071 51.3559 84.0417 50.7175 81.8417L58.1188 79.4559C59.2361 82.4405 59.7465 85.3057 59.6499 88.0514C59.5702 90.7639 58.7237 93.714 57.1105 96.9018Z" fill="#3B8C62"/>
<path d="M68.7417 77.0479L44.1455 46.6836L58.2432 35.264C61.7424 32.4295 65.1146 31.1826 68.3599 31.5232C70.8723 31.7869 72.9602 32.9454 74.6233 34.9986L74.6936 35.0853C77.1064 38.0639 77.5447 41.3248 76.0086 44.868C78.4739 44.0683 80.6522 43.8604 82.5435 44.2441C84.4348 44.6278 86.1652 45.7884 87.7347 47.7259L87.805 47.8127C90.0069 50.531 90.6697 53.4186 89.7932 56.4753C88.9167 59.5321 86.7145 62.4893 83.1864 65.3472L68.7417 77.0479ZM68.9704 41.5892L68.9001 41.5024C67.2135 39.4203 64.9099 39.5622 61.9891 41.9281L55.3957 47.269L60.596 53.6889L66.7556 48.6994C69.9656 46.0992 70.7038 43.7291 68.9704 41.5892ZM80.5006 52.3645L80.4303 52.2778C78.65 50.08 76.1115 50.3163 72.8148 52.9867L65.0936 59.2412L70.5048 65.9213L78.4429 59.4912C81.595 56.9379 82.2809 54.5623 80.5006 52.3645Z" fill="#3B8C62"/>
<path d="M101.91 53.096L91.1162 15.54L119.444 7.39824L121.557 14.7485L101.437 20.531L103.627 28.1495L121.332 23.0609L123.445 30.4111L105.74 35.4998L108.006 43.3865L128.394 37.5269L130.506 44.8771L101.91 53.096Z" fill="#3B8C62"/>
<path d="M143.907 3.3071L153.873 5.55505L162.758 23.7543L164.5 24.1474L167.922 8.7243L176.199 10.5915L172.614 25.9777L174.465 26.3953L190.357 13.7853L200.214 16.0087L180.602 31.156L192.976 54.4343L183.011 52.1864L173.25 33.5605L171.017 33.0568L167.6 48.71L159.323 46.8429L162.903 31.2265L160.507 30.6861L143.804 43.342L133.947 41.1186L155.171 25.4194L143.907 3.3071Z" fill="#3B8C62"/>
<path d="M195.964 60.3261L221.818 31.0254L243.919 50.5267L238.859 56.2613L223.163 42.4109L217.918 48.3548L231.731 60.5431L226.671 66.2777L212.858 54.0894L207.429 60.2425L223.335 74.2775L218.275 80.0121L195.964 60.3261Z" fill="#3B8C62"/>
<path d="M222.695 86.1679L257.551 68.5029L270.875 94.794L264.053 98.2513L254.59 79.5787L247.519 83.1621L255.847 99.594L249.025 103.051L240.698 86.6194L233.378 90.329L242.968 109.251L236.146 112.708L222.695 86.1679Z" fill="#3B8C62"/>
<path d="M253.231 150.854C251.663 149.221 250.902 147.252 250.949 144.945C250.995 142.638 251.835 140.682 253.468 139.077C255.1 137.51 257.069 136.749 259.376 136.795L259.488 136.798C261.795 136.844 263.732 137.683 265.3 139.315C266.867 140.985 267.627 142.973 267.581 145.28C267.534 147.587 266.695 149.524 265.063 151.092C263.43 152.697 261.46 153.476 259.153 153.43L259.041 153.427C256.734 153.381 254.798 152.523 253.231 150.854Z" fill="#3B8C62"/>
<path d="M167.477 121.035C168.782 104.744 178.064 102.725 185.182 102.725C186.368 102.725 187.504 102.255 188.342 101.417C189.18 100.58 189.651 99.444 189.651 98.2596C188.793 90.0205 175.637 94.9863 171.665 96.8128C160.032 91.9033 147.537 89.359 134.909 89.3283C122.495 89.1274 85.2794 94.9059 98.5962 104.449C110.765 111.42 145.241 114.202 161.556 107.901C159.788 112.041 158.761 116.459 158.522 120.954C120.784 126.96 123.514 196.227 162.839 196.504C202.034 196.241 204.916 127.389 167.477 121.035ZM158.37 183.107C150.603 183.107 144.964 175.591 144.964 165.245C144.964 164.06 145.435 162.924 146.273 162.087C147.111 161.249 148.247 160.779 149.433 160.779C150.618 160.779 151.754 161.249 152.592 162.087C153.431 162.924 153.901 164.06 153.901 165.245C153.901 170.157 155.908 174.176 158.37 174.176C159.555 174.176 160.692 174.646 161.53 175.484C162.368 176.321 162.839 177.457 162.839 178.642C162.839 179.826 162.368 180.962 161.53 181.799C160.692 182.637 159.555 183.107 158.37 183.107ZM139.543 119.869C114.532 104.395 81.1324 138.004 87.5987 165.374C88.5943 169.64 90.5536 173.621 93.3265 177.014C96.0994 180.406 99.6125 183.119 103.597 184.945C107.581 186.771 111.93 187.662 116.312 187.55C120.694 187.437 124.992 186.324 128.876 184.295C117.53 165.178 122.249 132.328 139.543 119.869ZM112.61 152.156C109.406 155.902 108.325 160.252 110.197 161.851C111.098 162.62 111.656 163.716 111.748 164.897C111.84 166.078 111.459 167.247 110.689 168.147C109.918 169.047 108.822 169.605 107.64 169.697C106.458 169.789 105.288 169.408 104.388 168.638C98.489 163.592 99.0922 154.219 105.822 146.359C106.608 145.519 107.688 145.014 108.837 144.949C109.986 144.885 111.116 145.266 111.991 146.013C112.866 146.76 113.419 147.816 113.534 148.96C113.649 150.104 113.318 151.249 112.61 152.156Z" fill="#3B8C62"/>
</svg>
