<svg width="495" height="180" viewBox="0 0 495 180" fill="none" xmlns="http://www.w3.org/2000/svg">
<path d="M26.9134 177.982L0 165.14L2.4236 160.061L22.5139 169.647L9.65821 144.898L12.0818 139.819L38.9952 152.66L36.5716 157.74L16.4813 148.154L29.337 172.902L26.9134 177.982Z" fill="#F5F2EB"/>
<path d="M21.9024 132.614L17.7265 129.792L34.1416 105.503L38.3174 108.325L31.6855 118.138L52.2167 132.013L49.0654 136.676L28.5342 122.801L21.9024 132.614Z" fill="#F5F2EB"/>
<path d="M78.1556 100.417L71.7806 98.3159L61.6729 109.448L64.3774 115.591L60.5658 119.789L47.4024 89.7387L50.9881 85.7897L82.193 95.9704L78.1556 100.417ZM59.5059 104.587L66.7338 96.6265L54.1958 92.5034L59.5059 104.587Z" fill="#F5F2EB"/>
<path d="M78.5226 66.6016L85.4635 77.0327C86.3732 78.4219 87.078 79.5806 87.5781 80.5088C88.0999 81.4195 88.5659 82.4835 88.976 83.7009C89.4078 84.9007 89.5742 85.9732 89.4753 86.9184C89.3982 87.846 89.0635 88.8561 88.4714 89.9487C87.8834 91.002 86.9912 92.0135 85.7948 92.9832L85.1096 93.5385L81.6188 89.2316L82.1408 88.8084C82.7934 88.2795 83.2382 87.7388 83.4752 87.1863C83.678 86.7696 83.7581 86.2902 83.7152 85.7483C83.6548 85.1845 83.5576 84.6866 83.4237 84.2546C83.2897 83.8225 83.0479 83.2796 82.6983 82.6259C82.331 81.9504 82.0613 81.4842 81.8891 81.2273C81.7387 80.9528 81.4648 80.526 81.0676 79.9469L71.6294 65.7011L89.4445 51.2616L108.221 74.4277L103.849 77.9715L88.2458 58.7207L78.5226 66.6016Z" fill="#F5F2EB"/>
<path d="M109.778 50.27L118.637 45.0361C121.506 43.3413 124.204 42.7067 126.732 43.1321C129.246 43.5334 131.329 45.1322 132.981 47.9287C134.647 50.7493 135.054 53.338 134.203 55.6948C133.337 58.0275 131.445 60.0555 128.528 61.7787L114.823 69.8752L99.6557 44.2008L104.501 41.3382L109.778 50.27ZM120.948 49.525L112.341 54.6093L117.127 62.7094L125.733 57.6251C128.819 55.8021 129.564 53.5406 127.969 50.8406C126.374 48.1406 124.034 47.702 120.948 49.525Z" fill="#F5F2EB"/>
<path d="M148.141 51.4975L142.504 53.8007L144.701 39.7456C142.572 40.0109 140.718 39.6943 139.141 38.7959C137.59 37.887 136.412 36.4475 135.608 34.4776C134.422 31.5745 134.38 29.066 135.482 26.9521C136.585 24.8381 138.626 23.1723 141.607 21.9545L156.965 15.6802L168.243 43.2854L163.033 45.4139L158.696 34.7995L150.143 38.294L148.141 51.4975ZM147.134 34.2604L156.854 30.2894L153.629 22.3966L143.909 26.3677C142.406 26.9819 141.392 27.7588 140.869 28.6986C140.345 29.6384 140.38 30.834 140.973 32.2856C142.022 34.8517 144.075 35.51 147.134 34.2604Z" fill="#F5F2EB"/>
<path d="M199.764 34.7721L196.877 22.6368L180.942 26.4278L183.829 38.5631L178.354 39.8656L171.452 10.8552L176.928 9.5527L179.776 21.5246L195.711 17.7336L192.863 5.76174L198.379 4.44949L205.28 33.4599L199.764 34.7721Z" fill="#F5F2EB"/>
<path d="M227.468 31.4504C223.115 31.8176 219.405 30.6413 216.338 27.9216C213.27 25.2018 211.554 21.6796 211.189 17.355C210.82 12.9745 211.921 9.20065 214.491 6.03332C217.09 2.86364 220.552 1.09638 224.876 0.731545C228.113 0.458506 231.114 1.06234 233.881 2.54304C236.675 4.02138 238.562 6.2366 239.541 9.1887L233.766 9.67593C232.834 8.29334 231.611 7.28659 230.097 6.65566C228.608 5.99448 227.013 5.73568 225.311 5.87926C222.549 6.11229 220.415 7.30384 218.911 9.45394C217.406 11.604 216.771 14.0741 217.007 16.8642C217.242 19.6543 218.296 21.982 220.167 23.8473C222.038 25.7125 224.327 26.531 227.034 26.3027C230.8 25.985 233.394 24.2488 234.813 21.0943L240.505 20.6141C240.277 22.5722 239.515 24.3646 238.219 25.9913C236.921 27.5901 235.343 28.8753 233.487 29.8468C231.902 30.7111 229.895 31.2456 227.468 31.4504Z" fill="#F5F2EB"/>
<path d="M247.392 29.7676L249.159 0L254.777 0.333564L253.983 13.708L270.122 1.24464L277.669 1.69271L260.166 15.169L276.614 31.5026L268.774 31.0371L253.819 16.4751L253.01 30.1011L247.392 29.7676Z" fill="#F5F2EB"/>
<path d="M304.881 37.22L303.474 30.6567L288.762 27.5545L284.826 32.9913L279.277 31.8214L298.566 5.28404L303.785 6.38456L310.757 38.4592L304.881 37.22ZM291.863 23.2292L302.384 25.4476L299.61 12.5438L291.863 23.2292Z" fill="#F5F2EB"/>
<path d="M321.378 42.0927L315.674 39.9594L326.825 31.1259C325.081 29.8756 323.934 28.3855 323.385 26.6556C322.863 24.9356 322.974 23.0789 323.72 21.0858C324.818 18.1485 326.49 16.2774 328.734 15.4726C330.978 14.6677 333.608 14.8293 336.624 15.9573L352.163 21.7689L341.716 49.6994L336.445 47.7278L340.462 36.9884L331.807 33.7515L321.378 42.0927ZM332.334 28.7468L342.168 32.4251L345.155 24.4394L335.32 20.7611C333.799 20.1922 332.528 20.0753 331.506 20.4105C330.483 20.7456 329.698 21.6475 329.148 23.1162C328.177 25.7125 329.239 27.5894 332.334 28.7468Z" fill="#F5F2EB"/>
<path d="M358.796 57.9874L374.305 32.5179L379.112 35.445L372.144 46.8883L392.241 43.4399L398.698 47.3718L376.921 51.0758L383.799 73.2127L377.091 69.1278L370.702 49.2559L363.603 60.9145L358.796 57.9874Z" fill="#F5F2EB"/>
<path d="M396.243 83.3163L391.655 79.5059L402.34 76.0411L404.988 51.8162L410.061 56.0291L408.069 74.1386L425.182 68.5874L429.738 72.371L396.243 83.3163Z" fill="#F5F2EB"/>
<path d="M428.794 115.22L430.711 100.658L415.945 100.962L411.502 96.032L431.363 95.5475L433.879 76.3185L438.827 81.8096L436.96 95.4221L450.777 95.0696L455.332 100.124L436.249 100.53L433.546 120.493L428.794 115.22Z" fill="#F5F2EB"/>
<path d="M449.298 144.003L459.737 137.175L450.771 123.467L440.331 130.295L437.251 125.585L462.206 109.262L465.287 113.972L454.988 120.708L463.955 134.416L474.253 127.68L477.357 132.425L452.402 148.748L449.298 144.003Z" fill="#F5F2EB"/>
<path d="M458.16 159.951L455.62 154.416L469.756 156.016C469.401 153.9 469.638 152.034 470.469 150.421C471.312 148.833 472.7 147.595 474.634 146.708C477.484 145.4 479.989 145.252 482.148 146.264C484.306 147.276 486.057 149.245 487.4 152.172L494.319 167.25L467.216 179.686L464.869 174.571L475.29 169.789L471.436 161.391L458.16 159.951ZM475.339 158.214L479.718 167.757L487.467 164.202L483.088 154.658C482.411 153.182 481.592 152.203 480.631 151.72C479.67 151.236 478.476 151.322 477.051 151.976C474.532 153.132 473.961 155.211 475.339 158.214Z" fill="#F5F2EB"/>
</svg>
