<svg width="109" height="109" viewBox="0 0 109 109" fill="none" xmlns="http://www.w3.org/2000/svg">
<path d="M76.6063 72.9588C76.9404 73.3052 77.1197 73.7669 77.1047 74.2422C77.0897 74.7175 76.8817 75.1675 76.5264 75.4932C76.1711 75.819 75.6976 75.9938 75.2101 75.9791C74.7226 75.9645 74.2611 75.7617 73.927 75.4153L63.851 64.9533C61.9471 65.0125 53.1796 65.2669 55.9269 61.2265C56.1569 60.9985 56.4461 60.8358 56.7636 60.7556C57.0812 60.6754 57.4151 60.6809 57.7297 60.7714C59.784 61.3927 61.9526 61.57 64.0843 61.291C64.4527 61.245 64.827 61.286 65.1757 61.4108C65.5243 61.5355 65.837 61.7403 66.0874 62.0077L76.6063 72.9588ZM60.5652 58.0623C61.7718 58.064 62.9669 57.8334 64.082 57.3839C65.197 56.9344 66.2101 56.2748 67.0632 55.4428L76.5659 46.1759C76.7367 46.0096 76.8723 45.812 76.9649 45.5946C77.0574 45.3772 77.1052 45.1441 77.1053 44.9086C77.1055 44.6732 77.0581 44.4401 76.9659 44.2225C76.8736 44.0049 76.7383 43.8072 76.5677 43.6406C76.3971 43.474 76.1945 43.3418 75.9715 43.2516C75.7484 43.1613 75.5094 43.1148 75.2679 43.1146C75.0265 43.1145 74.7873 43.1607 74.5642 43.2506C74.341 43.3406 74.1382 43.4725 73.9674 43.6388L64.4647 52.9057C63.6577 53.6857 62.6232 54.2035 61.5028 54.3882C60.3824 54.5729 59.2308 54.4156 58.2056 53.9377L71.0528 41.4117C71.2283 41.2464 71.3683 41.0487 71.4647 40.8301C71.561 40.6115 71.6117 40.3764 71.6138 40.1385C71.6159 39.9006 71.5694 39.6646 71.477 39.4444C71.3846 39.2242 71.2481 39.0242 71.0756 38.856C70.9031 38.6877 70.6979 38.5547 70.472 38.4646C70.2462 38.3745 70.0042 38.3292 69.7602 38.3312C69.5162 38.3333 69.2751 38.3827 69.0509 38.4766C68.8266 38.5705 68.6239 38.707 68.4543 38.8782L55.6035 51.4042C55.1133 50.4047 54.952 49.2818 55.1414 48.1894C55.3309 47.097 55.862 46.0884 56.662 45.3016L66.1701 36.0365C66.5049 35.6986 66.6901 35.246 66.6859 34.7762C66.6817 34.3064 66.4884 33.857 66.1477 33.5248C65.807 33.1926 65.3461 33.0042 64.8643 33.0001C64.3824 32.996 63.9182 33.1766 63.5716 33.503L54.0672 42.768C52.5726 44.2301 51.6406 46.1497 51.4281 48.2035C51.2155 50.2573 51.7354 52.3197 52.9002 54.0434L33.5384 72.9212C33.2037 73.2591 33.0185 73.7117 33.0227 74.1815C33.0268 74.6513 33.2201 75.1007 33.5608 75.4329C33.9015 75.7651 34.3625 75.9535 34.8443 75.9576C35.3261 75.9617 35.7903 75.7811 36.1369 75.4547L55.4987 56.577C57.0017 57.5457 58.7635 58.0622 60.5652 58.0623ZM43.019 56.2079C44.5425 57.6072 45.9483 55.7492 46.9719 54.7548C47.3953 54.3374 47.7071 53.825 47.8798 53.2627C48.0525 52.7003 48.0809 52.1052 47.9624 51.5296C46.8285 48.4443 49.5998 44.8429 47.3063 42.3613L39.1176 34.0046C38.6125 33.5262 37.9747 33.2024 37.283 33.0733C36.5913 32.9442 35.876 33.0154 35.2253 33.2782C34.5747 33.541 34.0172 33.9838 33.6217 34.552C33.2263 35.1202 33.0101 35.7889 33 36.4755C33.4355 44.7425 36.5559 48.9603 43.019 56.2079Z" fill="#F5F2EB"/>
<path d="M94.5431 61.7023C94.8831 59.6692 95.8542 58.0873 97.4562 56.9568C99.0561 55.8395 100.861 55.4485 102.87 55.7837L102.909 55.7903C104.918 56.1255 106.503 57.0889 107.664 58.6803C108.824 60.2717 109.229 62.117 108.878 64.2162C108.507 66.4343 107.488 68.1371 105.822 69.3248L103.906 67.0102C105.147 66.0094 105.867 64.9149 106.066 63.7267C106.258 62.5781 105.995 61.5503 105.277 60.6434C104.572 59.7387 103.619 59.186 102.416 58.9853L102.376 58.9787C101.16 58.7758 100.066 58.9801 99.0944 59.5915C98.1204 60.2161 97.5362 61.1093 97.3419 62.2711C97.2183 63.0105 97.2434 63.6728 97.4172 64.2582C97.5888 64.8569 97.9025 65.4995 98.3583 66.1863L96.0709 67.7995C95.3663 66.8949 94.883 65.966 94.6212 65.0131C94.3572 64.0734 94.3311 62.9698 94.5431 61.7023Z" fill="#F5F2EB"/>
<path d="M93.4994 68.7515L105.641 75.8555L103.954 78.7314L96.9505 78.9151L100.215 85.1068L98.5284 87.9827L86.3873 80.8788L87.9418 78.2281L95.8682 82.866L92.6838 76.4186L92.7244 76.3493L99.8396 75.975L91.9652 71.3676L93.4994 68.7515Z" fill="#F5F2EB"/>
<path d="M76.7614 91.1129C77.0247 89.1331 78.0045 87.4883 79.7009 86.1785C81.3973 84.8686 83.2336 84.3305 85.2098 84.5641C87.1836 84.8164 88.7893 85.7422 90.0269 87.3413L90.0515 87.3731C91.2891 88.9722 91.7763 90.7616 91.513 92.7413C91.2473 94.7398 90.2663 96.394 88.57 97.7039C86.8736 99.0137 85.0385 99.5425 83.0647 99.2901C81.0884 99.0565 79.4815 98.1402 78.2439 96.5411L78.2193 96.5093C76.9817 94.9102 76.4958 93.1114 76.7614 91.1129ZM84.619 87.6088C83.4583 87.4222 82.3902 87.7055 81.4148 88.4587C80.4394 89.2119 79.8971 90.1636 79.7879 91.3137C79.6788 92.4639 80.0012 93.5262 80.7552 94.5005L80.7798 94.5322C81.5338 95.5065 82.4912 96.0869 83.6519 96.2735C84.8126 96.4601 85.8806 96.1768 86.856 95.4236C87.8314 94.6705 88.3737 93.7188 88.4829 92.5686C88.5921 91.4184 88.2697 90.3562 87.5156 89.3819L87.4911 89.3501C86.737 88.3758 85.7797 87.7954 84.619 87.6088Z" fill="#F5F2EB"/>
<path d="M69.1396 92.4075L72.6824 103.038L76.7448 101.687L77.6464 104.392L66.5844 108.07L65.6829 105.365L69.7452 104.014L66.2024 93.3841L69.1396 92.4075Z" fill="#F5F2EB"/>
<path d="M61.053 94.8354L61.3245 108.887L55.5766 108.998C53.9152 109.03 52.5935 108.607 51.6115 107.729C50.6298 106.865 50.1248 105.703 50.0966 104.244L50.0958 104.204C50.0653 102.625 50.5777 101.397 51.633 100.519C52.6883 99.6423 54.04 99.1878 55.688 99.156L58.0394 99.1107L57.958 94.895L61.053 94.8354ZM58.0926 101.861L55.6407 101.908C54.8904 101.923 54.298 102.135 53.8636 102.545C53.4292 102.955 53.218 103.468 53.2299 104.083L53.2307 104.123C53.2438 104.806 53.475 105.324 53.9241 105.676C54.3735 106.043 54.9935 106.218 55.784 106.203L58.1756 106.157L58.0926 101.861Z" fill="#F5F2EB"/>
<path d="M48.1414 94.7577L44.0005 108.19L33.857 105.07L34.6674 102.441L41.8716 104.657L42.7116 101.932L36.3719 99.9823L37.1824 97.3534L43.5221 99.3033L44.3916 96.4825L37.0914 94.2372L37.9018 91.6083L48.1414 94.7577Z" fill="#F5F2EB"/>
<path d="M33.3386 88.7874L27.0086 98.0364L30.5432 100.45L28.9323 102.804L19.3075 96.2316L20.9184 93.8779L24.453 96.2914L30.7831 87.0424L33.3386 88.7874Z" fill="#F5F2EB"/>
<path d="M26.4807 83.8438L15.4431 92.5608L13.5231 90.1353L16.9921 87.3957L15.4462 85.4427C14.374 84.0882 13.8551 82.7745 13.8896 81.5016C13.9053 80.2264 14.5176 79.1115 15.7265 78.1568L15.7422 78.1444C16.9301 77.2062 18.1732 76.8559 19.4715 77.0932C20.7616 77.3201 21.9676 78.1423 23.0896 79.5598L26.4807 83.8438ZM22.369 83.1492L20.8605 81.2435C20.3784 80.6345 19.8677 80.2699 19.3285 80.1498C18.7809 80.0191 18.2443 80.1613 17.7187 80.5764L17.7029 80.5889C17.1983 80.9874 16.9382 81.4573 16.9225 81.9987C16.8964 82.5483 17.1326 83.1381 17.6313 83.7681L19.1523 85.6896L22.369 83.1492Z" fill="#F5F2EB"/>
<path d="M16.5852 69.522L2.79455 72.3134L2.13185 69.0468L7.22874 64.2456L0.662708 61.8052L0 58.5386L13.7906 55.7473L14.4014 58.758L5.39813 60.5804L12.0752 63.2647L12.0911 63.3434L7.03815 68.361L15.9824 66.5506L16.5852 69.522Z" fill="#F5F2EB"/>
<path d="M13.9965 53.7906L0.0839357 51.6877L1.67195 41.2058L4.39483 41.6173L3.26698 49.0619L6.08924 49.4885L7.08175 42.9373L9.80463 43.3488L8.81212 49.9001L11.7338 50.3417L12.8766 42.7978L15.5995 43.2094L13.9965 53.7906Z" fill="#F5F2EB"/>
<path d="M16.0759 41.2682L3.58349 34.8002L5.00808 32.0551L9.9515 34.6145L12.5787 29.552L7.63525 26.9926L9.05985 24.2474L21.5522 30.7154L20.1277 33.4605L15.1128 30.8641L12.4857 35.9266L17.5005 38.523L16.0759 41.2682Z" fill="#F5F2EB"/>
<path d="M21.8261 29.0074L13.0589 18.0143L15.4802 16.0878L18.9495 20.4379L20.789 18.9742C20.0073 17.457 19.7825 15.8646 20.1146 14.1971C20.4466 12.5296 21.3149 11.1371 22.7195 10.0195C24.3337 8.73516 26.1137 8.21728 28.0595 8.4659C30.0054 8.71452 31.6045 9.62406 32.857 11.1945L32.882 11.2259C34.1262 12.7859 34.6551 14.5555 34.4689 16.5348C34.2744 18.5036 33.37 20.1302 31.7558 21.4146C30.3303 22.5488 28.7627 23.086 27.0529 23.026C25.3432 22.966 23.8428 22.3629 22.5518 21.2168L20.728 22.6679L24.2474 27.0809L21.8261 29.0074ZM30.0088 19.1595C30.9312 18.4256 31.4165 17.5089 31.4649 16.4094C31.5153 15.2911 31.1523 14.2451 30.3758 13.2715L30.3507 13.24C29.5825 12.2768 28.6378 11.6937 27.5164 11.4907C26.3951 11.2877 25.3784 11.549 24.4665 12.2746C23.5441 13.0085 23.0577 13.9346 23.0072 15.0529C22.9589 16.1524 23.323 17.189 24.0995 18.1627L24.1246 18.1941C24.8928 19.1573 25.8375 19.7404 26.9589 19.9434C28.0802 20.1464 29.0969 19.8851 30.0088 19.1595Z" fill="#F5F2EB"/>
<path d="M43.7509 15.127L41.8059 1.20714L47.4996 0.413357C49.1454 0.183918 50.5081 0.446696 51.5879 1.20169C52.6657 1.94343 53.3056 3.0368 53.5075 4.48181L53.5131 4.52158C53.7317 6.0859 53.3693 7.3663 52.4261 8.36277C51.4829 9.35924 50.1951 9.97127 48.5626 10.1989L46.2333 10.5236L46.8168 14.6995L43.7509 15.127ZM45.8526 7.79928L48.2814 7.46067C49.0247 7.35706 49.5875 7.07586 49.9699 6.61709C50.3523 6.15832 50.5009 5.62403 50.4157 5.01421L50.4102 4.97444C50.3157 4.29833 50.0244 3.81184 49.5364 3.51496C49.0466 3.20483 48.4101 3.10435 47.6271 3.21351L45.258 3.5438L45.8526 7.79928Z" fill="#F5F2EB"/>
<path d="M57.1072 13.9787L58.5693 0L61.6481 0.321282L60.1861 14.2999L57.1072 13.9787Z" fill="#F5F2EB"/>
<path d="M63.3671 14.2999L68.4582 1.19739L71.1193 2.22897L74.1311 12.6792L77.2658 4.61178L80.1142 5.716L75.0231 18.8185L72.5682 17.8669L69.452 7.07468L66.2155 15.4041L63.3671 14.2999Z" fill="#F5F2EB"/>
<path d="M87.174 26.5548C85.1761 26.6324 83.3868 25.9477 81.806 24.5008C80.2252 23.0539 79.382 21.3379 79.2763 19.353C79.1896 17.3672 79.8297 15.6293 81.1969 14.1391L81.224 14.1095C82.5911 12.6194 84.2737 11.8355 86.2716 11.7579C88.2884 11.6795 90.0873 12.3637 91.668 13.8107C93.2488 15.2576 94.0826 16.974 94.1693 18.9597C94.275 20.9446 93.6443 22.6822 92.2772 24.1723L92.25 24.2019C90.8829 25.6921 89.1909 26.4764 87.174 26.5548ZM82.3806 19.4167C82.394 20.5908 82.8551 21.5939 83.7641 22.4259C84.673 23.2579 85.7042 23.6298 86.8575 23.5417C88.0108 23.4535 89.0039 22.9555 89.8368 22.0476L89.864 22.018C90.697 21.1101 91.1068 20.069 91.0934 18.8948C91.0801 17.7206 90.6189 16.7175 89.7099 15.8856C88.801 15.0536 87.7699 14.6816 86.6166 14.7698C85.4633 14.858 84.4701 15.356 83.6372 16.2639L83.61 16.2935C82.7771 17.2014 82.3673 18.2425 82.3806 19.4167Z" fill="#F5F2EB"/>
<path d="M88.2614 30.9233L100.657 24.2714L102.122 26.9952L92.2056 32.3167L95.5258 38.4895L93.0468 39.8199L88.2614 30.9233Z" fill="#F5F2EB"/>
<path d="M93.5335 42.0064L107.128 38.3818L107.927 41.3692L94.3318 44.9939L93.5335 42.0064Z" fill="#F5F2EB"/>
</svg>
