<svg width="294" height="71" viewBox="0 0 294 71" fill="none" xmlns="http://www.w3.org/2000/svg">
<path d="M24.129 52.676L25.63 54.9252L11.7113 63.98L0 46.4314L2.42827 44.8517L12.6385 60.1511L24.129 52.676Z" fill="#E35200"/>
<path d="M45.3673 44.4291L40.8908 41.0303L30.8521 46.2214L31.1326 51.7901L28.5831 53.1084L27.3625 29.8826L29.4074 28.8251L48.0762 43.0283L45.3673 44.4291ZM30.6904 43.3647L38.6044 39.2722L30.1407 32.823L30.6904 43.3647Z" fill="#E35200"/>
<path d="M72.5971 11.2944L70.8732 34.2678L68.3 35.1623L52.2087 18.3819L55.3193 17.3006L68.4028 31.1726L69.7975 12.2676L72.5971 11.2944Z" fill="#E35200"/>
<path d="M85.5206 29.6722L80.0038 9.37489L82.8124 8.63075L88.3292 28.9281L85.5206 29.6722Z" fill="#E35200"/>
<path d="M90.2807 9.32571L89.7715 6.70965L109.997 2.87209L110.506 5.48815L101.821 7.13601L105.329 25.1577L102.473 25.6996L98.9657 7.67785L90.2807 9.32571Z" fill="#E35200"/>
<path d="M136.154 21.354L133.343 16.5185L122.055 17.5051L120.148 22.7531L117.281 23.0036L125.189 1.09601L127.488 0.895036L139.2 21.0878L136.154 21.354ZM123.017 14.8061L131.916 14.0283L126.61 4.86444L123.017 14.8061Z" fill="#E35200"/>
<path d="M154.394 20.9889L155.463 0L172.111 0.826849L171.975 3.48741L158.202 2.80333L157.904 8.65657L166.138 9.06553L166.002 11.7261L157.768 11.3171L157.404 18.4711L172.375 19.2147L172.239 21.8752L154.394 20.9889Z" fill="#E35200"/>
<path d="M187.123 23.6949L191.108 3.05118L201.356 4.97981C203.437 5.37145 205.04 6.13502 206.163 7.27052C207.287 8.40603 207.662 9.94297 207.288 11.8814C207.1 12.8505 206.606 13.6715 205.805 14.3444C205.027 15.0015 204.131 15.3752 203.116 15.4655C203.617 15.7204 204.068 16.0163 204.471 16.3532C204.882 16.752 205.217 17.1767 205.476 17.6272C206.024 18.7949 206.188 19.9506 205.967 21.0943C205.57 23.1489 204.613 24.5256 203.094 25.2241C201.576 25.9227 199.737 26.0688 197.577 25.6624L187.123 23.6949ZM200.798 7.55646L193.436 6.17095L192.257 12.2769L199.619 13.6624C202.368 14.1796 203.939 13.4206 204.331 11.3853C204.724 9.35 203.547 8.07372 200.798 7.55646ZM199.326 16.2889L191.757 14.8646L190.449 21.6392L198.018 23.0635C200.963 23.6177 202.654 22.7609 203.092 20.493C203.526 18.2445 202.271 16.8431 199.326 16.2889Z" fill="#E35200"/>
<path d="M212.32 28.905L218.451 8.7802L234.413 13.5205L233.636 16.0716L220.43 12.1497L218.72 17.762L226.615 20.1065L225.838 22.6576L217.943 20.313L215.854 27.1724L230.208 31.4353L229.431 33.9863L212.32 28.905Z" fill="#E35200"/>
<path d="M250.55 39.4252L249.523 41.9204L234.082 35.7215L242.1 16.2539L244.793 17.3353L237.803 34.3078L250.55 39.4252Z" fill="#E35200"/>
<path d="M270.304 49.3278L269.049 51.7194L254.249 44.1484L264.041 25.4888L266.623 26.8097L258.086 43.0776L270.304 49.3278Z" fill="#E35200"/>
<path d="M288.001 63.6017L288.819 58.0851L279.329 51.9704L274.544 54.9312L272.134 53.3782L292.067 40.9856L294 42.2312L290.562 65.2517L288.001 63.6017ZM281.775 50.4361L289.257 55.2567L290.824 44.8151L281.775 50.4361Z" fill="#E35200"/>
</svg>
