<svg width="234" height="111" viewBox="0 0 234 111" fill="none" xmlns="http://www.w3.org/2000/svg">
<path d="M19.0492 106.867C19.082 105.718 19.0725 104.219 19.0208 102.371C19.0039 100.523 18.9576 98.4828 18.8819 96.2501C18.8063 94.0174 18.7172 91.645 18.6147 89.1327C18.5122 86.6205 18.3918 84.1251 18.2535 81.6467C18.1152 79.1683 17.9744 76.7769 17.8311 74.4726C17.7236 72.1345 17.6097 70.0227 17.4893 68.1373C17.2873 65.448 16.9604 63.4695 16.5087 62.2019C16.057 60.9344 15.274 60.2847 14.1596 60.2529C13.1149 60.223 12.41 60.4991 12.0449 61.0812C11.7145 61.6642 11.5021 62.39 11.4076 63.2586C11.3479 64.1282 11.3032 65.0854 11.2733 66.13C11.2793 67.1409 11.0957 68.0767 10.7226 68.9373C10.3844 69.7989 9.75407 70.5128 8.83176 71.0789C7.90944 71.6451 6.50806 71.9013 4.62761 71.8476C3.30432 71.8098 2.18799 71.2377 1.2786 70.1313C0.370198 68.9901 -0.0541613 67.3748 0.00551872 65.2854C0.0890707 62.3603 1.03525 59.7386 2.84404 57.4203C4.61901 55.0663 7.09742 53.0982 10.2792 51.5162C13.4621 49.8994 17.2782 48.6841 21.7276 47.8702C26.177 47.0562 31.1005 46.7264 36.4981 46.8806C40.3635 46.991 43.9204 47.5282 47.1689 48.4923C50.4185 49.4215 53.2053 50.6861 55.5295 52.286C57.8896 53.852 59.7188 55.6991 61.0172 57.8273C62.3166 59.9207 62.9315 62.1861 62.8619 64.6238C62.7833 67.3748 61.9073 69.9811 60.2338 72.4426C58.5603 74.9041 56.2834 77.1393 53.403 79.1481C50.5575 81.1579 47.2145 82.8922 43.374 84.3508C39.5345 85.7746 35.4259 86.8596 31.0481 87.6059C29.8233 87.78 29.1925 88.5113 29.1557 89.7998C29.1309 90.6703 29.1518 91.7688 29.2184 93.095C29.3209 94.3875 29.404 95.749 29.4677 97.1798C29.5662 98.6115 29.6478 100.025 29.7125 101.421C29.812 102.818 29.8463 104.056 29.8155 105.136C29.7598 107.086 29.2673 108.466 28.338 109.276C27.4088 110.086 26.0561 110.465 24.2801 110.415C22.6086 110.367 21.3112 110.034 20.3879 109.415C19.4636 108.831 19.0173 107.982 19.0492 106.867ZM52.006 65.8297C52.0398 64.6457 51.5672 63.4996 50.5882 62.3912C49.6092 61.2828 48.2784 60.2864 46.5959 59.4019C44.9135 58.5174 42.9475 57.7991 40.6979 57.2469C38.4831 56.6957 36.1395 56.3848 33.6671 56.3142C32.4482 56.2794 31.4195 56.3023 30.5807 56.3829C29.7778 56.4296 29.1296 56.5505 28.6361 56.7455C28.1426 56.9406 27.7864 57.2092 27.5675 57.5515C27.3845 57.8599 27.2855 58.2753 27.2705 58.7976C27.2606 59.1459 27.2895 59.9657 27.3571 61.2572C27.4258 62.5138 27.5233 63.9803 27.6497 65.6568C27.7761 67.3333 27.8999 69.0969 28.0213 70.9475C28.1786 72.7642 28.3407 74.4069 28.5079 75.8754C28.5815 76.9579 28.7004 77.6758 28.8646 78.029C29.0636 78.3832 29.372 78.5663 29.7899 78.5782C30.9739 78.612 32.3375 78.4593 33.8806 78.12C35.4248 77.7459 37.0073 77.2509 38.628 76.635C40.2846 75.9853 41.8915 75.247 43.4485 74.4202C45.0415 73.5596 46.4612 72.6591 47.7079 71.7189C48.9904 70.7448 50.0117 69.7633 50.7718 68.7743C51.5678 67.7515 51.9792 66.77 52.006 65.8297Z" fill="#E35200"/>
<path d="M74.4922 49.1159C73.4824 49.0871 72.5287 48.9204 71.6313 48.616C70.7696 48.2777 70.0155 47.8379 69.3687 47.2967C68.7578 46.7216 68.2713 46.0629 67.9091 45.3207C67.547 44.5785 67.3783 43.7721 67.4032 42.9015C67.445 41.4389 68.0534 40.2713 69.2284 39.3988C70.4382 38.5272 72.0182 38.1192 73.9683 38.1749C74.8737 38.2008 75.7393 38.3998 76.5651 38.7719C77.3919 39.1092 78.1108 39.5653 78.7217 40.1404C79.3674 40.7165 79.8709 41.3931 80.232 42.1701C80.5942 42.9123 80.7639 43.6839 80.741 44.4849C80.6982 45.9823 80.1072 47.1503 78.968 47.9891C77.8646 48.794 76.3727 49.1696 74.4922 49.1159ZM66.881 64.8431C66.9158 63.6243 67.4665 62.6468 68.5331 61.9105C69.6355 61.1404 71.0573 60.7802 72.7984 60.8299C75.9325 60.9195 77.5732 62.0467 77.7205 64.2117C77.817 65.7131 77.908 67.406 77.9936 69.2905C78.114 71.1759 78.2135 73.1827 78.2922 75.3109C78.4066 77.4053 78.4837 79.5857 78.5235 81.8522C78.5992 84.0849 78.6579 86.2996 78.6997 88.4965C78.7425 90.6585 78.7699 92.7504 78.7818 94.7721C78.7938 96.7938 78.7759 98.6405 78.7281 100.312C78.6784 102.053 78.0143 103.341 76.7358 104.176C75.4921 105.012 73.6863 105.396 71.3183 105.328C70.2388 105.297 69.3931 105.012 68.7812 104.471C68.2031 103.967 67.928 103.227 67.9559 102.252C68.0931 97.4466 68.0995 92.9509 67.9751 88.7652C67.8866 84.5456 67.7497 80.7951 67.5646 77.5138C67.4144 74.2335 67.2482 71.5103 67.0661 69.3443C66.9198 67.1444 66.8581 65.6441 66.881 64.8431Z" fill="#E35200"/>
<path d="M90.4195 60.7059C90.4344 60.1836 90.6752 59.6851 91.1418 59.2105C91.6094 58.7011 92.2143 58.2653 92.9566 57.9031C93.6998 57.5061 94.5276 57.1987 95.44 56.9808C96.3881 56.7291 97.3323 56.6166 98.2726 56.6435C98.7949 56.6584 99.2262 56.8101 99.5665 57.0987C99.9416 57.3882 100.257 57.9374 100.513 58.7463C100.769 59.5204 100.982 60.6243 101.15 62.058C101.354 63.4579 101.528 65.2926 101.672 67.562C101.792 68.2625 101.898 68.8057 101.992 69.1918C102.121 69.544 102.29 69.7231 102.499 69.729C102.813 69.738 103.141 69.2072 103.486 68.1366C106.238 60.8615 110.016 57.2926 114.822 57.4299C117.051 57.4935 119.051 58.2477 120.822 59.6923C122.627 61.138 124.269 63.4676 125.745 66.6813C127.258 69.8612 128.654 74.0484 129.935 79.243C131.216 84.4028 132.463 90.764 133.676 98.3266C133.735 98.7117 133.777 99.0614 133.803 99.3758C133.829 99.6902 133.838 99.9867 133.83 100.265C133.807 101.066 133.596 101.757 133.196 102.338C132.832 102.885 132.348 103.342 131.745 103.708C131.143 104.04 130.474 104.282 129.738 104.435C129 104.623 128.266 104.707 127.535 104.686C126.072 104.644 125.015 104.457 124.362 104.125C123.744 103.793 123.361 103.19 123.211 102.314C122.353 96.9925 121.494 92.263 120.637 88.126C119.814 83.99 118.972 80.5156 118.112 77.7029C117.287 74.8564 116.442 72.6889 115.579 71.2005C114.715 69.712 113.831 68.9549 112.925 68.929C112.02 68.9031 111.15 69.4534 110.317 70.5797C109.519 71.6721 108.72 73.4093 107.92 75.7912C107.12 78.1731 106.319 81.1998 105.517 84.8711C104.75 88.5435 103.98 92.9302 103.207 98.0314C102.993 99.4193 102.265 100.514 101.022 101.315C99.7793 102.116 98.2177 102.489 96.3373 102.436C95.0836 102.4 94.1335 102.111 93.4867 101.57C92.84 101.029 92.4948 100.304 92.451 99.397C92.3445 92.1448 92.1663 86.1801 91.9165 81.5029C91.7026 76.7918 91.4792 73.0214 91.2464 70.1918C91.0145 67.3273 90.814 65.1956 90.6449 63.7967C90.4757 62.3978 90.4006 61.3676 90.4195 60.7059Z" fill="#E35200"/>
<path d="M140.379 86.9647C140.395 86.3727 140.484 85.7131 140.644 84.9858C140.804 84.2585 140.897 83.4595 140.922 82.5889C140.939 81.9969 140.69 81.5368 140.177 81.2085C139.698 80.8811 139.151 80.517 138.535 80.116C137.919 79.715 137.359 79.2111 136.853 78.6042C136.383 77.9983 136.163 77.1381 136.195 76.0238C136.218 75.2229 136.45 74.4279 136.891 73.6389C137.366 72.8509 138.031 72.138 138.886 71.5002C140.984 70.0267 143.148 68.7119 145.377 67.5557C147.64 66.4006 149.881 65.4364 152.098 64.6633C154.351 63.8912 156.563 63.3097 158.735 62.9186C160.907 62.5276 162.986 62.3604 164.97 62.4171C168.314 62.5126 171.43 63.229 174.319 64.5662C177.244 65.8695 179.755 67.6315 181.853 69.8523C183.986 72.0391 185.638 74.5957 186.809 77.5218C188.016 80.4141 188.573 83.4969 188.479 86.7703C188.388 89.9741 187.622 93.0017 186.181 95.8532C184.776 98.6709 182.911 101.127 180.586 103.221C178.261 105.316 175.548 106.946 172.448 108.112C169.381 109.314 166.159 109.867 162.782 109.77C159.473 109.676 156.425 109.031 153.636 107.836C150.847 106.641 148.453 105.039 146.454 103.031C144.456 100.987 142.921 98.6081 141.849 95.8939C140.777 93.1449 140.287 90.1685 140.379 86.9647ZM164.199 100.401C165.662 100.443 167.185 100.19 168.769 99.6426C170.353 99.0954 171.805 98.283 173.125 97.2055C174.481 96.0941 175.601 94.732 176.483 93.1192C177.401 91.5074 177.889 89.6742 177.947 87.6196C178.007 85.5302 177.68 83.5692 176.965 81.7365C176.251 79.9038 175.234 78.3064 173.913 76.9443C172.629 75.5484 171.075 74.4411 169.251 73.6222C167.462 72.8044 165.505 72.3651 163.381 72.3045C159.516 72.1941 156.527 73.1194 154.415 75.0804C152.303 77.0067 151.189 80.0418 151.07 84.1858C151.006 86.4493 151.276 88.5655 151.882 90.5345C152.524 92.4697 153.434 94.1686 154.612 95.6311C155.791 97.0589 157.187 98.1966 158.801 99.0443C160.45 99.8929 162.249 100.345 164.199 100.401Z" fill="#E35200"/>
<path d="M193.661 46.2987C193.712 44.4879 194.272 43.2144 195.338 42.4781C196.405 41.7418 198.139 41.408 200.542 41.4766C201.378 41.5005 202.107 41.6085 202.729 41.8005C203.35 41.9925 203.864 42.3034 204.27 42.7332C204.677 43.1282 204.993 43.6774 205.217 44.3809C205.476 45.0505 205.678 45.9101 205.822 46.9598C206.187 50.072 206.546 53.3409 206.902 56.7665C207.293 60.1583 207.649 63.549 207.97 66.9388C208.327 70.2948 208.652 73.5801 208.943 76.7948C209.236 79.9747 209.482 82.9441 209.682 85.7031C209.918 88.4282 210.075 90.8549 210.154 92.9831C210.268 95.0775 210.308 96.7341 210.273 97.9529C210.238 99.2065 210.085 100.265 209.817 101.129C209.583 101.993 209.18 102.679 208.608 103.185C208.071 103.693 207.363 104.056 206.486 104.275C205.644 104.46 204.596 104.535 203.343 104.499C202.124 104.464 201.158 104.123 200.444 103.475C199.766 102.828 199.445 101.861 199.482 100.572C199.519 99.2489 199.465 97.4873 199.319 95.2875C199.174 93.0528 198.966 90.5724 198.695 87.8463C198.424 85.1201 198.106 82.2184 197.741 79.141C197.411 76.0646 197.045 73.022 196.643 70.0133C196.276 67.0056 195.905 64.1197 195.531 61.3558C195.193 58.558 194.88 56.092 194.592 53.9578C194.305 51.7889 194.077 50.0223 193.907 48.6582C193.738 47.2593 193.656 46.4728 193.661 46.2987Z" fill="#E35200"/>
<path d="M227.749 53.4934C226.739 53.4646 225.786 53.2979 224.888 52.9935C224.027 52.6552 223.272 52.2154 222.626 51.6742C222.015 51.0991 221.528 50.4405 221.166 49.6982C220.804 48.956 220.635 48.1496 220.66 47.279C220.702 45.8165 221.31 44.6489 222.485 43.7763C223.695 42.9047 225.275 42.4968 227.225 42.5525C228.131 42.5783 228.996 42.7773 229.822 43.1494C230.649 43.4867 231.368 43.9429 231.979 44.518C232.624 45.094 233.128 45.7706 233.489 46.5476C233.851 47.2899 234.021 48.0614 233.998 48.8624C233.955 50.3598 233.364 51.5279 232.225 52.3666C231.122 53.1715 229.63 53.5471 227.749 53.4934ZM220.138 69.2207C220.173 68.0018 220.724 67.0243 221.79 66.288C222.892 65.5179 224.314 65.1577 226.055 65.2075C229.19 65.297 230.83 66.4243 230.977 68.5893C231.074 70.0906 231.165 71.7836 231.251 73.668C231.371 75.5534 231.471 77.5602 231.549 79.6884C231.664 81.7828 231.741 83.9632 231.781 86.2297C231.856 88.4624 231.915 90.6771 231.957 92.874C231.999 95.036 232.027 97.1279 232.039 99.1496C232.051 101.171 232.033 103.018 231.985 104.69C231.935 106.431 231.271 107.719 229.993 108.553C228.749 109.389 226.943 109.773 224.575 109.706C223.496 109.675 222.65 109.389 222.038 108.849C221.46 108.345 221.185 107.605 221.213 106.63C221.35 101.824 221.357 97.3285 221.232 93.1427C221.144 88.9231 221.007 85.1727 220.822 81.8913C220.671 78.611 220.505 75.8878 220.323 73.7218C220.177 71.522 220.115 70.0216 220.138 69.2207Z" fill="#E35200"/>
<path d="M182.369 14.488C182.037 15.2315 181.742 15.9952 181.362 16.7135C180.534 18.2739 179.26 19.0756 177.426 19.0326C169.742 18.8581 162.058 18.719 154.377 18.5698C150.728 18.4989 147.079 18.4307 143.43 18.3548C136.914 18.2182 130.397 18.0716 123.881 17.935C120.793 17.8718 117.705 17.8288 114.614 17.7655C110.868 17.6897 107.123 17.6062 103.378 17.5253C102.187 17.5 100.992 17.5303 99.8123 17.414C99.0637 17.3407 98.3405 17.0397 97.6046 16.845C97.2138 16.7413 96.8256 16.587 96.4272 16.5491C95.4983 16.4642 94.5908 16.5011 93.7 16.6291C92.2548 16.8368 90.8537 17.2844 89.4768 17.8414C89.1926 17.9577 88.9414 18.1702 88.6978 18.3649C87.0865 19.6446 85.3609 20.6865 83.1101 20.9875H79.582C78.779 18.6366 77.9794 16.2841 77.1773 13.9316C76.6774 12.4673 76.1928 10.998 75.67 9.54126C74.8098 7.1463 73.9216 4.75893 73.0462 2.36904C72.6782 1.36503 73.0056 0.489993 73.8887 0.115702C74.6956 -0.225712 75.7994 0.242152 76.1445 1.14753C76.5912 2.32098 75.249 5.47717 75.249 5.47717C75.249 5.47717 77.8625 5.49993 78.4689 5.47717C79.588 5.4367 80.7071 5.44176 81.8261 5.46958C83.8993 5.52016 85.9572 5.71236 87.8198 6.71637C88.708 7.19435 89.5225 7.81396 90.3675 8.3678C91.4169 9.05494 92.536 9.51166 93.7 9.80469C94.768 10.0736 95.8738 10.2046 96.9981 10.2494C97.4828 10.2696 97.9726 9.81439 98.4826 9.73852C99.4139 9.5969 100.363 9.53114 101.307 9.51091C106.05 9.41481 110.792 9.34906 115.535 9.2656C118.867 9.20743 122.199 9.14927 125.53 9.07845C135.064 8.8736 144.598 8.65358 154.129 8.45885C161.401 8.30964 168.676 8.19078 175.949 8.05421C176.533 8.0441 177.114 7.98846 177.697 7.97075C179.392 7.91765 180.542 8.79521 181.331 10.1811C181.742 10.9019 182.029 11.6909 182.372 12.4496C182.369 13.1324 182.369 13.8102 182.369 14.488Z" fill="#E35200"/>
<path d="M53.2582 16.9273C56.8991 16.9342 61.2084 17.0165 64.8493 17.0302L64.5645 14.2002H62.7761C59.7998 14.2002 56.1524 14.1087 53.1761 14.1178C51.9419 14.1224 51.2363 14.8579 51.4852 15.8424C51.6622 16.5504 52.2575 16.925 53.2582 16.9273Z" fill="#E35200"/>
<path d="M53.2582 20.8873C56.8991 20.8941 63.1885 20.9765 66.8294 20.9902L66.5446 18.1601H62.7761C59.7998 18.1601 56.1524 18.0687 53.1761 18.0778C51.9419 18.0824 51.2363 18.8179 51.4852 19.8023C51.6622 20.5104 52.2575 20.885 53.2582 20.8873Z" fill="#E35200"/>
<path d="M53.2582 12.9664C56.8991 12.9732 61.2084 13.0556 64.8493 13.0693L64.5645 10.2392H62.7761C59.7998 10.2392 56.1524 10.1478 53.1761 10.1569C51.9419 10.1615 51.2363 10.897 51.4852 11.8814C51.6622 12.5895 52.2575 12.9641 53.2582 12.9664Z" fill="#E35200"/>
<path d="M53.2582 9.00643C56.8991 9.01329 59.2283 9.09563 62.8692 9.10933L62.5844 6.27927H62.7761C59.7998 6.27927 56.1524 6.18779 53.1761 6.19693C51.9419 6.2015 51.2363 6.937 51.4852 7.92146C51.6622 8.62955 52.2575 9.00415 53.2582 9.00643Z" fill="#E35200"/>
<path d="M74.2494 28.8312C73.7394 28.7807 73.2141 28.5455 72.9882 27.8829C72.4452 26.2845 71.9098 24.6812 71.3617 23.0854C70.4964 20.5564 69.6387 18.0248 68.7505 15.5034C67.4792 11.8996 66.18 8.30592 64.9036 4.70211C64.5966 3.83719 64.325 2.96216 64.0688 2.08207C63.7998 1.1691 64.2109 0.362353 65.0406 0.0993377C65.8831 -0.166207 66.7687 0.29407 67.0757 1.16404C68.5907 5.43804 70.1208 9.70446 71.6078 13.9886C72.534 16.6516 73.3663 19.345 74.29 22.0105C74.8102 23.5102 75.4167 24.9796 75.9978 26.4565C76.5002 27.7387 75.7542 28.8515 74.2494 28.8312Z" fill="#E35200"/>
<path d="M80.572 27.2271C80.5898 28.0086 79.9859 28.7015 79.217 28.8305C78.4633 28.9544 77.6742 28.4537 77.4103 27.6748C76.918 26.2155 76.4561 24.7437 75.941 23.2945C75.3954 21.7569 74.7661 20.2496 74.2358 18.7069C72.7336 14.347 71.2694 9.97687 69.7773 5.61688C69.3434 4.34733 68.874 3.08789 68.3969 1.83098C68.1305 1.13045 69.2343 -0.0455315 70.1224 0.0202223C70.8482 0.0758601 71.4546 0.594304 71.7008 1.3353C72.3986 3.44448 73.104 5.55113 73.8095 7.66031C74.2307 8.91722 74.6266 10.1842 75.0808 11.4285C75.7989 13.3961 76.5856 15.3383 77.2885 17.3109C77.8797 18.97 78.3923 20.6543 78.9429 22.3259C79.4479 23.8585 79.9605 25.3911 80.4705 26.9211C80.5061 27.0374 80.5467 27.1513 80.572 27.2271Z" fill="#E35200"/>
<path fill-rule="evenodd" clip-rule="evenodd" d="M93.4189 16.671V9.72915C94.588 10.0484 95.8043 10.1992 97.0429 10.2479C97.3121 10.259 97.5828 10.1271 97.8577 9.99317C98.0839 9.88292 98.313 9.77131 98.5462 9.73706C99.4892 9.59543 100.45 9.52968 101.406 9.50945C104.439 9.44875 107.473 9.40016 110.506 9.35157C112.275 9.32323 114.045 9.29488 115.814 9.26414C119.188 9.20597 122.562 9.1478 125.936 9.07699C129.562 9.00006 133.187 8.921 136.812 8.84194C137.456 8.82789 138.101 8.81384 138.745 8.7998V18.2415C137.218 18.209 135.691 18.1762 134.164 18.1434C130.865 18.0726 127.565 18.0018 124.266 17.9335C122.701 17.9019 121.135 17.8753 119.57 17.8487C118.007 17.8222 116.445 17.7957 114.882 17.7641C112.037 17.7072 109.192 17.646 106.347 17.5848C105.399 17.5644 104.451 17.5441 103.503 17.5238C103.172 17.5169 102.84 17.5141 102.508 17.5114C101.633 17.5041 100.759 17.4969 99.8927 17.4125C99.3762 17.3626 98.8717 17.207 98.3669 17.0513C98.1308 16.9784 97.8946 16.9056 97.6571 16.8435C97.5381 16.8123 97.4193 16.7766 97.3004 16.7408C97.024 16.6576 96.7469 16.5742 96.4647 16.5476C95.4251 16.4538 94.412 16.5087 93.4189 16.671Z" fill="#E35200"/>
<path fill-rule="evenodd" clip-rule="evenodd" d="M138.177 18.2461V8.80455C143.495 8.6872 148.813 8.57069 154.13 8.46206C158.721 8.36786 163.314 8.28575 167.906 8.20365L167.906 8.20365C170.587 8.15571 173.269 8.10777 175.95 8.05742C176.268 8.0519 176.586 8.03285 176.903 8.0138L176.903 8.0138C177.168 7.99791 177.433 7.98201 177.698 7.97396C179.394 7.92085 180.543 8.79841 181.332 10.1843C181.616 10.682 181.841 11.2123 182.065 11.7427C182.165 11.978 182.265 12.2133 182.369 12.4458V14.4926C182.268 14.7199 182.17 14.9492 182.072 15.1784L182.072 15.1785C181.849 15.6985 181.627 16.2186 181.363 16.7167C180.535 18.2771 179.262 19.0788 177.427 19.0358C171.457 18.9002 165.487 18.786 159.518 18.6718C157.805 18.639 156.092 18.6062 154.378 18.573C153.466 18.5553 152.554 18.5377 151.641 18.5202C148.905 18.4675 146.168 18.4149 143.431 18.358C141.68 18.3213 139.928 18.2839 138.177 18.2461Z" fill="#E35200"/>
<path d="M61.0279 6.63111C61.3121 7.11161 61.4745 7.66294 61.7181 8.26989L62.8829 11.7776C63.2407 12.6021 63.5046 13.467 63.8547 14.4634L64.9154 17.7941C65.2961 18.6337 65.5879 19.5163 65.9558 20.5127L67.0597 24.1014C67.4403 24.9865 67.7245 25.9121 68.0417 26.8226C68.3132 27.6066 68.6532 28.3678 69.4551 28.7269C70.054 28.9925 70.6604 28.823 71.1553 28.3981C71.7617 27.8772 71.7313 27.1994 71.4928 26.5343C70.4371 23.5981 69.346 20.6746 68.2929 17.7359C67.6357 15.8999 67.0216 14.0461 66.3948 12.1999C65.1387 8.4975 63.8928 4.79 62.6266 1.09008C62.355 0.288392 61.3629 -0.176943 60.5737 0.0633112C59.716 0.323798 59.3227 1.04709 59.5282 2.01316C59.6069 2.37987 59.7135 2.73899 59.8378 3.21191L61.0279 6.63111Z" fill="#E35200"/>
<path d="M83.9593 23.739C83.6497 22.864 83.4112 21.9637 83.1117 20.9875L77.3617 4.71341C77.0013 3.50961 76.5928 2.32098 76.1462 1.14753C75.8011 0.242152 74.6972 -0.225712 73.8903 0.115702C73.0072 0.489993 72.6799 1.36503 73.0478 2.36904C73.9233 4.75893 74.8114 7.1463 75.6717 9.54126C76.1944 10.998 76.6791 12.4673 77.179 13.9316C78.3386 17.3331 79.4932 20.7346 80.6605 24.131C81.371 26.2023 81.782 26.8574 82.0995 28.9861L82.1065 29.0331C82.7999 33.6817 83.022 35.1707 82.0995 38.9787C81.7341 40.4871 81.0083 42.8582 81.0083 42.8582C81.0083 42.8582 80.8434 42.8709 80.7622 42.8759C80.681 42.7368 80.5744 42.6053 80.5211 42.4536C79.6761 40.0738 78.1358 38.2302 76.0677 36.8215C73.0379 34.7604 69.0159 35.3673 67.3411 38.9787C65.8947 42.0995 67.3589 45.5137 69.8787 47.4711C72.1701 49.2515 74.8523 49.7801 77.6994 49.6612C77.9303 49.6511 78.1638 49.6587 78.4911 49.6587C78.3388 50.9308 78.2094 52.1017 78.0597 53.2726C77.9633 54.0111 77.7933 54.7419 77.7451 55.4829C77.6968 56.234 78.2932 56.841 79.062 56.9447C79.8766 57.056 80.747 56.5653 80.9043 55.8496C81.3966 53.6039 81.7924 51.3455 81.7341 49.0264C81.7239 48.6344 82.0995 47.8555 82.0995 47.8555C82.0995 47.8555 83.9525 44.5055 84.7128 42.191C85.2726 40.4871 85.8093 38.3397 85.9907 35.8015C86.2789 31.7702 85.3727 27.7272 83.9593 23.739Z" fill="#E35200"/>
</svg>
