<svg width="427" height="135" viewBox="0 0 427 135" fill="none" xmlns="http://www.w3.org/2000/svg">
<path d="M34.2608 127.813C34.3341 125.667 34.3345 122.867 34.2618 119.414C34.2526 115.963 34.1922 112.152 34.0805 107.981C33.9688 103.811 33.8342 99.3788 33.6768 94.6856C33.5193 89.9925 33.329 85.3308 33.1059 80.7005C32.8827 76.0702 32.654 71.6025 32.4197 67.2974C32.2512 62.9294 32.0682 58.9841 31.8707 55.4616C31.5339 50.4368 30.961 46.7386 30.152 44.367C29.343 41.9954 27.9224 40.7749 25.8903 40.7053C23.9852 40.6401 22.6962 41.1494 22.0234 42.2332C21.414 43.3191 21.0181 44.6728 20.8355 46.2943C20.7164 47.9179 20.6235 49.7052 20.5568 51.6561C20.5558 53.5442 20.21 55.2903 19.5194 56.8943C18.8923 58.5005 17.7343 59.8281 16.0454 60.8772C14.3565 61.9262 11.7975 62.392 8.36829 62.2746C5.95516 62.192 3.92576 61.1133 2.28009 59.0386C0.636641 56.8989 -0.11838 53.8781 0.0150237 49.9762C0.201789 44.5136 1.95835 39.6256 5.28472 35.3121C8.54981 30.9315 13.0934 27.2782 18.9154 24.3524C24.7397 21.3615 31.7143 19.1262 39.8393 17.6464C47.9642 16.1667 56.9483 15.5953 66.7913 15.9323C73.8402 16.1736 80.3215 17.2093 86.2353 19.0395C92.1512 20.8046 97.2194 23.1917 101.44 26.201C105.726 29.1473 109.041 32.6138 111.384 36.6005C113.729 40.5222 114.824 44.7591 114.669 49.3113C114.493 54.4488 112.865 59.3086 109.783 63.8909C106.702 68.4732 102.523 72.6272 97.2456 76.353C92.0319 80.0809 85.9141 83.2897 78.8922 85.9791C71.8725 88.6035 64.3659 90.5927 56.3723 91.9468C54.1364 92.2609 52.9772 93.621 52.895 96.0272C52.8394 97.653 52.8646 99.7047 52.9706 102.182C53.1424 104.597 53.2779 107.141 53.3773 109.814C53.5401 112.489 53.6724 115.13 53.7739 117.738C53.939 120.348 53.9871 122.661 53.9182 124.677C53.7937 128.319 52.8792 130.892 51.1747 132.396C49.4703 133.9 46.9987 134.597 43.76 134.486C40.7118 134.382 38.3494 133.747 36.6726 132.583C34.9936 131.484 34.1896 129.894 34.2608 127.813ZM94.854 51.4651C94.9296 49.254 94.0811 47.109 92.3084 45.03C90.5357 42.951 88.1203 41.0778 85.0619 39.4105C82.0036 37.7432 78.4262 36.3837 74.3296 35.332C70.2965 34.2824 66.0256 33.6804 61.5168 33.5261C59.2942 33.45 57.4175 33.4834 55.8867 33.6263C54.4217 33.7064 53.238 33.9263 52.3356 34.286C51.4332 34.6458 50.7804 35.1443 50.3771 35.7816C50.0396 36.356 49.8542 37.1309 49.8208 38.1064C49.7986 38.7567 49.8416 40.2882 49.9498 42.7009C50.0603 45.0486 50.2209 47.7886 50.4317 50.921C50.6425 54.0533 50.8478 57.3483 51.0474 60.8058C51.3129 64.2005 51.5894 67.27 51.877 70.0144C51.9986 72.0369 52.207 73.3787 52.5023 74.0399C52.8611 74.7033 53.4215 75.048 54.1836 75.0741C56.3427 75.148 58.8315 74.8751 61.6502 74.2554C64.471 73.5707 67.3631 72.6606 70.3265 71.525C73.3556 70.3265 76.2951 68.9622 79.1448 67.4321C82.0603 65.8391 84.6605 64.1702 86.9453 62.4254C89.296 60.6178 91.1703 58.7938 92.5683 56.9536C94.0321 55.0504 94.794 53.221 94.854 51.4651Z" fill="#E35200"/>
<path d="M136.064 20.4523C134.222 20.3893 132.485 20.0694 130.851 19.4926C129.284 18.853 127.913 18.0248 126.74 17.008C125.633 15.9283 124.753 14.6937 124.101 13.3042C123.449 11.9146 123.151 10.4069 123.207 8.78112C123.3 6.0498 124.424 3.8746 126.577 2.25552C128.794 0.638621 131.681 -0.108957 135.237 0.0127874C136.888 0.0693117 138.464 0.448819 139.966 1.15131C141.47 1.78877 142.776 2.64732 143.883 3.72695C145.054 4.80876 145.965 6.07697 146.614 7.53158C147.266 8.92115 147.567 10.3638 147.515 11.8595C147.42 14.6559 146.328 16.8322 144.241 18.3884C142.219 19.8817 139.493 20.5697 136.064 20.4523ZM121.997 49.7575C122.074 47.4814 123.09 45.6606 125.044 44.2951C127.064 42.8668 129.662 42.207 132.837 42.3157C138.552 42.5113 141.531 44.6317 141.774 48.6767C141.933 51.4817 142.079 54.6444 142.213 58.1648C142.41 61.6874 142.568 65.4365 142.687 69.4121C142.871 73.3249 142.986 77.398 143.032 81.6316C143.144 85.8023 143.225 89.9394 143.275 94.0429C143.328 98.0814 143.353 101.989 143.351 105.765C143.349 109.541 143.295 112.99 143.188 116.111C143.077 119.363 141.851 121.763 139.509 123.31C137.231 124.86 133.932 125.561 129.614 125.413C127.646 125.345 126.106 124.804 124.997 123.79C123.948 122.842 123.455 121.458 123.517 119.637C123.824 110.663 123.889 102.266 123.711 94.4474C123.599 86.5656 123.394 79.5595 123.095 73.4291C122.859 67.3009 122.588 62.2133 122.281 58.1661C122.04 54.0561 121.945 51.2532 121.997 49.7575Z" fill="#E35200"/>
<path d="M164.978 42.2441C165.011 41.2686 165.456 40.3398 166.313 39.4576C167.172 38.5104 168.28 37.7019 169.638 37.0322C170.998 36.2975 172.512 35.7308 174.179 35.3321C175.911 34.8706 177.634 34.6691 179.349 34.7278C180.302 34.7604 181.086 35.0477 181.704 35.5897C182.384 36.1339 182.953 37.1625 183.41 38.6757C183.869 40.1237 184.244 42.1874 184.534 44.8668C184.889 47.4833 185.185 50.9115 185.422 55.1516C185.631 56.461 185.819 57.4766 185.985 58.1984C186.217 58.8574 186.523 59.1935 186.904 59.2065C187.476 59.2261 188.082 58.2377 188.722 56.2412C193.827 42.6783 200.761 36.0468 209.525 36.3469C213.589 36.486 217.228 37.9127 220.441 40.627C223.718 43.3435 226.684 47.7096 229.339 53.7253C232.06 59.6781 234.558 67.5114 236.833 77.2252C239.11 86.874 241.31 98.7663 243.433 112.902C243.536 113.622 243.609 114.276 243.652 114.863C243.696 115.45 243.708 116.004 243.691 116.525C243.639 118.02 243.246 119.309 242.509 120.391C241.839 121.409 240.952 122.258 239.847 122.936C238.746 123.55 237.522 123.996 236.178 124.276C234.831 124.62 233.491 124.77 232.157 124.724C229.49 124.633 227.563 124.274 226.376 123.647C225.253 123.023 224.561 121.892 224.299 120.255C222.795 110.308 221.286 101.466 219.77 93.7318C218.318 85.9994 216.823 79.5026 215.286 74.2414C213.815 68.9173 212.301 64.8614 210.743 62.0735C209.186 59.2857 207.581 57.8635 205.93 57.807C204.279 57.7504 202.687 58.7702 201.153 60.8662C199.684 62.8994 198.207 66.1367 196.72 70.5783C195.233 75.0198 193.736 80.6655 192.231 87.5153C190.788 94.3674 189.332 102.554 187.863 112.074C187.456 114.665 186.115 116.702 183.839 118.187C181.563 119.671 178.71 120.355 175.281 120.238C172.995 120.159 171.265 119.612 170.092 118.595C168.919 117.578 168.298 116.222 168.228 114.527C168.119 100.981 167.865 89.8389 167.464 81.1007C167.129 72.2998 166.766 65.2557 166.374 59.9686C165.985 54.6164 165.645 50.6332 165.353 48.0189C165.06 45.4046 164.936 43.4797 164.978 42.2441Z" fill="#E35200"/>
<path d="M255.791 91.7422C255.829 90.6367 255.998 89.4054 256.299 88.0484C256.6 86.6915 256.778 85.2001 256.833 83.5743C256.871 82.4688 256.424 81.6071 255.491 80.9892C254.622 80.3734 253.628 79.6883 252.51 78.9339C251.391 78.1794 250.375 77.2331 249.46 76.0949C248.609 74.959 248.218 73.3505 248.29 71.2695C248.341 69.7737 248.773 68.2911 249.586 66.8214C250.463 65.354 251.684 64.0285 253.251 62.8451C257.095 60.112 261.057 57.6758 265.135 55.5367C269.277 53.3997 273.375 51.6194 277.429 50.1956C281.547 48.774 285.589 47.7078 289.555 46.9972C293.521 46.2866 297.314 45.9932 300.934 46.1172C307.03 46.3259 312.705 47.6921 317.96 50.2158C323.28 52.6767 327.839 55.9906 331.639 60.1573C335.504 64.2612 338.487 69.0511 340.589 74.5269C342.756 79.94 343.735 85.703 343.526 91.8159C343.322 97.7988 341.889 103.447 339.228 108.759C336.632 114.009 333.202 118.58 328.936 122.47C324.67 126.361 319.703 129.381 314.035 131.531C308.428 133.748 302.545 134.751 296.385 134.54C290.352 134.334 284.799 133.102 279.727 130.845C274.654 128.588 270.306 125.574 266.684 121.804C263.064 117.969 260.292 113.512 258.368 108.433C256.445 103.289 255.587 97.7251 255.791 91.7422ZM299.081 117.054C301.748 117.145 304.529 116.687 307.425 115.679C310.32 114.671 312.978 113.167 315.399 111.167C317.885 109.103 319.943 106.569 321.572 103.565C323.264 100.563 324.175 97.1433 324.306 93.3065C324.44 89.4046 323.866 85.7389 322.584 82.3094C321.303 78.88 319.466 75.8873 317.074 73.3313C314.748 70.7124 311.926 68.6301 308.609 67.0841C305.356 65.5404 301.792 64.7022 297.919 64.5696C290.87 64.3283 285.407 66.0294 281.532 69.673C277.658 73.2515 275.589 78.9101 275.325 86.6489C275.18 90.8759 275.649 94.831 276.731 98.5141C277.879 102.134 279.519 105.316 281.65 108.058C283.784 110.735 286.317 112.873 289.251 114.471C292.248 116.071 295.524 116.932 299.081 117.054Z" fill="#E35200"/>
<path d="M353.452 16.2728C353.568 12.8912 354.603 10.5176 356.557 9.15216C358.511 7.78668 361.678 7.17895 366.06 7.32896C367.584 7.38114 368.912 7.58937 370.044 7.95366C371.176 8.31795 372.11 8.90332 372.845 9.70979C373.583 10.4512 374.152 11.4799 374.552 12.7957C375.017 14.0487 375.376 15.6561 375.627 17.6179C376.254 23.434 376.872 29.5427 377.48 35.944C378.153 42.2825 378.763 48.6188 379.309 54.953C379.921 61.2243 380.474 67.3633 380.968 73.3701C381.465 79.3119 381.879 84.8602 382.211 90.0151C382.609 95.1071 382.868 99.6409 382.986 103.617C383.17 107.529 383.223 110.624 383.145 112.9C383.065 115.241 382.775 117.217 382.275 118.827C381.839 120.44 381.096 121.717 380.046 122.658C379.06 123.6 377.766 124.272 376.163 124.673C374.625 125.011 372.713 125.141 370.427 125.063C368.205 124.987 366.447 124.341 365.153 123.124C363.923 121.91 363.349 120.1 363.431 117.694C363.516 115.223 363.438 111.932 363.197 107.822C362.958 103.647 362.608 99.0125 362.146 93.9183C361.684 88.8241 361.139 83.4015 360.509 77.6504C359.942 71.9016 359.31 66.2156 358.613 60.5924C357.978 54.9715 357.336 49.5781 356.686 44.4124C356.102 39.1837 355.56 34.5751 355.061 30.5865C354.564 26.5328 354.168 23.2313 353.874 20.682C353.582 18.0677 353.441 16.598 353.452 16.2728Z" fill="#E35200"/>
<path d="M415.543 30.0202C413.701 29.9571 411.964 29.6372 410.33 29.0604C408.763 28.4208 407.392 27.5926 406.219 26.5758C405.112 25.4962 404.232 24.2616 403.58 22.872C402.928 21.4824 402.63 19.9747 402.686 18.349C402.779 15.6176 403.903 13.4424 406.056 11.8234C408.273 10.2065 411.159 9.45888 414.716 9.58062C416.367 9.63715 417.943 10.0167 419.445 10.7191C420.949 11.3566 422.255 12.2152 423.362 13.2948C424.533 14.3766 425.444 15.6448 426.093 17.0994C426.745 18.489 427.046 19.9316 426.994 21.4274C426.899 24.2237 425.807 26.4 423.719 27.9562C421.697 29.4496 418.972 30.1376 415.543 30.0202ZM401.476 59.3253C401.553 57.0492 402.569 55.2284 404.523 53.863C406.543 52.4346 409.14 51.7748 412.316 51.8835C418.031 52.0792 421.01 54.1995 421.253 58.2445C421.412 61.0495 421.558 64.2123 421.692 67.7327C421.889 71.2552 422.047 75.0043 422.166 78.9799C422.35 82.8927 422.465 86.9659 422.511 91.1994C422.623 95.3701 422.704 99.5072 422.754 103.611C422.807 107.649 422.832 111.557 422.83 115.333C422.828 119.109 422.774 122.558 422.667 125.679C422.556 128.931 421.33 131.33 418.988 132.878C416.71 134.428 413.411 135.129 409.093 134.981C407.125 134.913 405.585 134.372 404.476 133.358C403.427 132.41 402.934 131.026 402.996 129.205C403.303 120.231 403.368 111.834 403.19 104.015C403.078 96.1334 402.873 89.1273 402.574 82.997C402.338 76.8688 402.067 71.7811 401.76 67.7339C401.519 63.6239 401.424 60.821 401.476 59.3253Z" fill="#E35200"/>
</svg>
