<svg width="543" height="175" viewBox="0 0 543 175" fill="none" xmlns="http://www.w3.org/2000/svg">
<path d="M47.043 166.961C47.043 164.24 46.9214 160.695 46.6783 156.325C46.5162 151.955 46.2731 147.132 45.949 141.855C45.6248 136.578 45.2601 130.972 44.8549 125.035C44.4497 119.099 44.004 113.204 43.5178 107.35C43.0316 101.496 42.5453 95.8481 42.0591 90.4064C41.6539 84.8822 41.2487 79.894 40.8435 75.4417C40.1952 69.0931 39.3038 64.4346 38.1692 61.4664C37.0347 58.4982 35.1708 57.0141 32.5776 57.0141C30.1464 57.0141 28.5256 57.715 27.7152 59.1166C26.9859 60.5183 26.5402 62.2497 26.3781 64.311C26.2971 66.3722 26.2565 68.6396 26.2565 71.1131C26.3376 73.5041 25.9729 75.7303 25.1625 77.7915C24.4332 79.8528 23.015 81.5842 20.908 82.9859C18.801 84.3875 15.5594 85.0883 11.1833 85.0883C8.10387 85.0883 5.47011 83.8104 3.28207 81.2544C1.09402 78.616 0 74.8233 0 69.8763C0 62.9505 2.02597 56.6843 6.0779 51.0777C10.0488 45.3887 15.681 40.5654 22.9745 36.6078C30.268 32.5677 39.0607 29.4346 49.3526 27.2085C59.6445 24.9823 71.071 23.8693 83.632 23.8693C92.6273 23.8693 100.934 24.8999 108.551 26.9611C116.169 28.9399 122.733 31.7432 128.244 35.371C133.835 38.9164 138.212 43.1625 141.372 48.1095C144.533 52.9741 146.113 58.2921 146.113 64.0636C146.113 70.5771 144.249 76.8021 140.521 82.7385C136.793 88.6749 131.647 94.1166 125.083 99.0636C118.6 104.011 110.942 108.339 102.109 112.049C93.2756 115.677 83.794 118.522 73.6642 120.583C70.8278 121.078 69.4097 122.85 69.4097 125.901C69.4097 127.962 69.5312 130.559 69.7743 133.693C70.0985 136.743 70.3821 139.959 70.6253 143.339C70.9494 146.72 71.233 150.059 71.4762 153.357C71.8003 156.655 71.9624 159.582 71.9624 162.138C71.9624 166.755 70.9089 170.053 68.8019 172.032C66.6949 174.011 63.5749 175 59.4419 175C55.552 175 52.5131 174.299 50.325 172.898C48.137 171.578 47.043 169.6 47.043 166.961ZM120.95 67.6502C120.95 64.8469 119.775 62.1673 117.425 59.6113C115.075 57.0554 111.914 54.788 107.944 52.8092C103.973 50.8304 99.3535 49.2638 94.086 48.1095C88.8995 46.9552 83.4294 46.3781 77.6756 46.3781C74.8393 46.3781 72.4486 46.5018 70.5037 46.7491C68.6398 46.914 67.1406 47.2438 66.006 47.7385C64.8715 48.2332 64.0611 48.8928 63.5749 49.7173C63.1697 50.4594 62.9671 51.4488 62.9671 52.6855C62.9671 53.51 63.0886 55.4476 63.3318 58.4982C63.5749 61.4664 63.899 64.9293 64.3042 68.8869C64.7094 72.8445 65.1146 77.0082 65.5198 81.3781C66.006 85.6655 66.4923 89.5406 66.9785 93.0035C67.2216 95.5595 67.5458 97.2497 67.951 98.0742C68.4372 98.8987 69.1666 99.311 70.139 99.311C72.8943 99.311 76.0548 98.8575 79.6205 97.9505C83.1863 96.9611 86.833 95.6832 90.5608 94.1166C94.3696 92.4676 98.0569 90.6125 101.623 88.5512C105.269 86.4075 108.511 84.1814 111.347 81.8728C114.265 79.4817 116.574 77.0907 118.276 74.6996C120.059 72.2261 120.95 69.8763 120.95 67.6502Z" fill="#F5F2EB"/>
<path d="M172.126 26.5901C169.776 26.5901 167.548 26.2603 165.441 25.6007C163.415 24.8587 161.632 23.8693 160.092 22.6325C158.633 21.3133 157.458 19.788 156.567 18.0565C155.675 16.3251 155.23 14.4287 155.23 12.3675C155.23 8.90459 156.567 6.1013 159.241 3.9576C161.996 1.8139 165.643 0.742049 170.181 0.742049C172.288 0.742049 174.314 1.1543 176.259 1.9788C178.204 2.72085 179.906 3.75147 181.365 5.07067C182.904 6.38987 184.12 7.95642 185.011 9.77032C185.903 11.5018 186.349 13.3157 186.349 15.212C186.349 18.7574 185.052 21.5607 182.459 23.6219C179.946 25.6007 176.502 26.5901 172.126 26.5901ZM155.473 64.311C155.473 61.4252 156.688 59.0754 159.12 57.2615C161.632 55.3651 164.914 54.417 168.966 54.417C176.259 54.417 180.149 56.9729 180.635 62.0848C180.959 65.6302 181.284 69.629 181.608 74.0813C182.013 78.5336 182.378 83.2744 182.702 88.3039C183.107 93.2509 183.431 98.404 183.674 103.763C183.998 109.04 184.282 114.276 184.525 119.47C184.768 124.582 184.971 129.529 185.133 134.311C185.295 139.093 185.376 143.463 185.376 147.42C185.376 151.543 183.917 154.635 181 156.696C178.164 158.757 173.99 159.788 168.48 159.788C165.967 159.788 163.982 159.17 162.523 157.933C161.146 156.779 160.457 155.047 160.457 152.739C160.457 141.36 160.173 130.724 159.606 120.83C159.12 110.854 158.552 101.991 157.904 94.2403C157.337 86.49 156.769 80.0589 156.202 74.947C155.716 69.7527 155.473 66.2073 155.473 64.311Z" fill="#F5F2EB"/>
<path d="M209.931 52.9329C209.931 51.6961 210.458 50.5006 211.511 49.3463C212.565 48.1095 213.942 47.0377 215.644 46.1307C217.346 45.1413 219.25 44.3581 221.357 43.7809C223.545 43.1213 225.733 42.7915 227.921 42.7915C229.137 42.7915 230.15 43.1213 230.96 43.7809C231.852 44.4405 232.622 45.7185 233.27 47.6148C233.918 49.4287 234.486 52.0259 234.972 55.4064C235.539 58.7044 236.066 63.033 236.552 68.3922C236.876 70.0412 237.16 71.3192 237.403 72.2261C237.727 73.0506 238.132 73.4629 238.619 73.4629C239.348 73.4629 240.077 72.1849 240.807 69.629C246.722 52.232 255.272 43.5336 266.455 43.5336C271.642 43.5336 276.342 45.1826 280.556 48.4806C284.851 51.7786 288.822 57.179 292.469 64.682C296.197 72.1025 299.722 81.914 303.044 94.1166C306.367 106.237 309.689 121.201 313.012 139.011C313.174 139.918 313.296 140.742 313.377 141.484C313.458 142.226 313.498 142.927 313.498 143.587C313.498 145.483 313.053 147.132 312.161 148.534C311.351 149.853 310.257 150.966 308.879 151.873C307.501 152.697 305.962 153.316 304.26 153.728C302.558 154.223 300.856 154.47 299.154 154.47C295.751 154.47 293.279 154.099 291.739 153.357C290.281 152.615 289.349 151.213 288.944 149.152C286.593 136.62 284.284 125.489 282.015 115.76C279.827 106.031 277.639 97.8681 275.451 91.2721C273.344 84.5936 271.237 79.523 269.13 76.0601C267.023 72.5972 264.916 70.8657 262.809 70.8657C260.702 70.8657 258.716 72.2261 256.852 74.947C255.069 77.5854 253.327 81.7491 251.625 87.4382C249.923 93.1272 248.262 100.342 246.641 109.081C245.102 117.821 243.602 128.251 242.144 140.371C241.739 143.669 240.118 146.307 237.281 148.286C234.445 150.265 230.839 151.254 226.463 151.254C223.545 151.254 221.317 150.636 219.777 149.399C218.237 148.163 217.386 146.472 217.224 144.329C216.495 127.179 215.685 113.08 214.793 102.032C213.983 90.9011 213.213 81.9965 212.484 75.318C211.754 68.5571 211.146 63.5277 210.66 60.2297C210.174 56.9317 209.931 54.4994 209.931 52.9329Z" fill="#F5F2EB"/>
<path d="M327.842 111.678C327.842 110.277 328.004 108.71 328.328 106.979C328.653 105.247 328.815 103.351 328.815 101.29C328.815 99.8881 328.207 98.8163 326.991 98.0742C325.857 97.3322 324.56 96.5077 323.101 95.6007C321.643 94.6938 320.306 93.5395 319.09 92.1378C317.955 90.7362 317.388 88.7161 317.388 86.0777C317.388 84.1814 317.874 82.285 318.847 80.3887C319.9 78.4923 321.4 76.7609 323.345 75.1943C328.126 71.5665 333.069 68.3098 338.175 65.424C343.361 62.5383 348.507 60.106 353.612 58.1272C358.799 56.1484 363.904 54.6231 368.929 53.5512C373.953 52.4794 378.775 51.9435 383.394 51.9435C391.174 51.9435 398.467 53.4276 405.275 56.3958C412.163 59.2815 418.119 63.2803 423.144 68.3922C428.249 73.4217 432.261 79.3581 435.178 86.2014C438.176 92.9623 439.676 100.218 439.676 107.968C439.676 115.554 438.095 122.768 434.935 129.611C431.855 136.372 427.682 142.309 422.414 147.42C417.147 152.532 410.947 156.572 403.816 159.541C396.766 162.591 389.31 164.117 381.449 164.117C373.751 164.117 366.619 162.797 360.055 160.159C353.491 157.521 347.818 153.893 343.037 149.276C338.256 144.576 334.528 139.052 331.854 132.703C329.179 126.272 327.842 119.264 327.842 111.678ZM384.124 141.855C387.527 141.855 391.052 141.154 394.699 139.753C398.346 138.351 401.668 136.331 404.667 133.693C407.746 130.972 410.259 127.674 412.203 123.799C414.229 119.923 415.242 115.554 415.242 110.689C415.242 105.742 414.351 101.125 412.568 96.8375C410.785 92.5501 408.314 88.8398 405.153 85.7067C402.074 82.4912 398.386 79.9764 394.091 78.1625C389.877 76.3486 385.299 75.4417 380.355 75.4417C371.36 75.4417 364.472 77.8327 359.69 82.6148C354.909 87.3145 352.518 94.5701 352.518 104.382C352.518 109.741 353.288 114.729 354.828 119.346C356.449 123.881 358.677 127.839 361.514 131.219C364.35 134.517 367.673 137.114 371.482 139.011C375.371 140.907 379.585 141.855 384.124 141.855Z" fill="#F5F2EB"/>
<path d="M449.036 11.8728C449.036 7.58539 450.251 4.53475 452.682 2.72085C455.113 0.906949 459.125 0 464.717 0C466.662 0 468.363 0.206125 469.822 0.618375C471.281 1.03062 472.496 1.73145 473.469 2.72085C474.441 3.6278 475.211 4.90577 475.778 6.55477C476.427 8.12132 476.953 10.1413 477.359 12.6148C478.412 19.9529 479.466 27.662 480.519 35.742C481.654 43.7397 482.707 51.7373 483.68 59.735C484.733 67.6502 485.706 75.4005 486.597 82.9859C487.488 90.4888 488.258 97.4971 488.907 104.011C489.636 110.442 490.163 116.172 490.487 121.201C490.892 126.148 491.095 130.065 491.095 132.951C491.095 135.919 490.811 138.433 490.244 140.495C489.758 142.556 488.866 144.205 487.569 145.442C486.354 146.678 484.733 147.585 482.707 148.163C480.762 148.657 478.331 148.905 475.414 148.905C472.577 148.905 470.308 148.163 468.606 146.678C466.986 145.194 466.175 142.927 466.175 139.876C466.175 136.743 465.932 132.58 465.446 127.385C464.96 122.108 464.311 116.254 463.501 109.823C462.691 103.392 461.759 96.5489 460.705 89.2933C459.733 82.0377 458.679 74.8645 457.545 67.7739C456.491 60.6832 455.438 53.881 454.384 47.3675C453.412 40.7715 452.52 34.9588 451.71 29.9293C450.899 24.8174 450.251 20.6537 449.765 17.4382C449.279 14.1402 449.036 12.285 449.036 11.8728Z" fill="#F5F2EB"/>
<path d="M528.778 26.5901C526.428 26.5901 524.199 26.2603 522.092 25.6007C520.066 24.8587 518.283 23.8693 516.743 22.6325C515.285 21.3133 514.11 19.788 513.218 18.0565C512.327 16.3251 511.881 14.4287 511.881 12.3675C511.881 8.90459 513.218 6.1013 515.893 3.9576C518.648 1.8139 522.295 0.742049 526.833 0.742049C528.94 0.742049 530.966 1.1543 532.911 1.9788C534.856 2.72085 536.557 3.75147 538.016 5.07067C539.556 6.38987 540.771 7.95642 541.663 9.77032C542.554 11.5018 543 13.3157 543 15.212C543 18.7574 541.703 21.5607 539.11 23.6219C536.598 25.6007 533.154 26.5901 528.778 26.5901ZM512.124 64.311C512.124 61.4252 513.34 59.0754 515.771 57.2615C518.283 55.3651 521.565 54.417 525.617 54.417C532.911 54.417 536.801 56.9729 537.287 62.0848C537.611 65.6302 537.935 69.629 538.259 74.0813C538.664 78.5336 539.029 83.2744 539.353 88.3039C539.758 93.2509 540.083 98.404 540.326 103.763C540.65 109.04 540.933 114.276 541.177 119.47C541.42 124.582 541.622 129.529 541.784 134.311C541.946 139.093 542.028 143.463 542.028 147.42C542.028 151.543 540.569 154.635 537.651 156.696C534.815 158.757 530.642 159.788 525.131 159.788C522.619 159.788 520.633 159.17 519.175 157.933C517.797 156.779 517.108 155.047 517.108 152.739C517.108 141.36 516.824 130.724 516.257 120.83C515.771 110.854 515.204 101.991 514.555 94.2403C513.988 86.49 513.421 80.0589 512.854 74.947C512.367 69.7527 512.124 66.2073 512.124 64.311Z" fill="#F5F2EB"/>
</svg>
