<svg width="1098" height="347" viewBox="0 0 1098 347" fill="none" xmlns="http://www.w3.org/2000/svg">
<path d="M88.0991 328.526C88.2878 323.01 88.2887 315.814 88.1018 306.938C88.0782 298.068 87.9228 288.272 87.6355 277.552C87.3483 266.832 87.0022 255.44 86.5974 243.377C86.1926 231.314 85.7032 219.332 85.1294 207.43C84.5556 195.529 83.9674 184.045 83.365 172.979C82.9316 161.752 82.461 151.611 81.9533 142.557C81.0871 129.641 79.6139 120.135 77.5336 114.04C75.4533 107.944 71.8005 104.806 66.575 104.628C61.6762 104.46 58.3617 105.769 56.6315 108.555C55.0647 111.346 54.0465 114.826 53.577 118.993C53.2708 123.167 53.0319 127.761 52.8604 132.775C52.8579 137.628 51.9687 142.116 50.1928 146.239C48.5802 150.368 45.6025 153.78 41.2596 156.477C36.9168 159.173 30.3364 160.37 21.5185 160.069C15.3133 159.856 10.0948 157.084 5.86308 151.751C1.63708 146.251 -0.304406 138.487 0.0386324 128.457C0.518886 114.416 5.03577 101.852 13.5893 90.7652C21.9852 79.5054 33.6687 70.1152 48.6396 62.5946C63.6163 54.907 81.551 49.1614 102.444 45.3579C123.337 41.5544 146.438 40.0857 171.749 40.9518C189.875 41.5721 206.541 44.2343 221.748 48.9385C236.96 53.4755 249.993 59.6114 260.845 67.3462C271.867 74.9194 280.39 83.8296 286.416 94.0769C292.447 104.157 295.262 115.047 294.862 126.748C294.41 139.953 290.223 152.445 282.3 164.223C274.377 176.001 263.63 186.679 250.06 196.255C236.654 205.838 220.922 214.085 202.866 220.998C184.815 227.744 165.512 232.857 144.957 236.337C139.208 237.145 136.227 240.641 136.016 246.825C135.873 251.004 135.938 256.278 136.21 262.647C136.652 268.854 137 275.392 137.256 282.263C137.675 289.138 138.015 295.928 138.276 302.631C138.7 309.339 138.824 315.284 138.647 320.466C138.327 329.827 135.975 336.44 131.592 340.307C127.209 344.173 120.854 345.964 112.526 345.679C104.688 345.411 98.6127 343.78 94.3009 340.788C89.9834 337.962 87.9162 333.875 88.0991 328.526ZM243.91 132.284C244.105 126.601 241.923 121.088 237.365 115.744C232.806 110.4 226.595 105.585 218.731 101.3C210.866 97.0141 201.667 93.5196 191.133 90.8162C180.762 88.1184 169.78 86.5712 158.186 86.1744C152.471 85.9788 147.645 86.0647 143.709 86.4321C139.942 86.6379 136.898 87.2031 134.577 88.1278C132.257 89.0525 130.578 90.3339 129.541 91.9719C128.673 93.4483 128.196 95.4402 128.111 97.9476C128.054 99.6191 128.164 103.556 128.442 109.757C128.727 115.791 129.14 122.834 129.682 130.886C130.224 138.937 130.751 147.406 131.265 156.293C131.947 165.019 132.658 172.909 133.398 179.963C133.711 185.162 134.247 188.611 135.006 190.31C135.929 192.015 137.37 192.901 139.329 192.968C144.881 193.158 151.281 192.457 158.529 190.864C165.783 189.104 173.219 186.765 180.84 183.846C188.629 180.765 196.187 177.258 203.515 173.325C211.012 169.231 217.698 164.941 223.574 160.456C229.618 155.81 234.438 151.122 238.033 146.392C241.797 141.5 243.756 136.798 243.91 132.284Z" fill="#E35200"/>
<path d="M349.878 52.5701C345.143 52.408 340.675 51.5857 336.475 50.1032C332.444 48.4591 328.92 46.3303 325.903 43.7168C323.056 40.9417 320.794 37.7683 319.117 34.1966C317.441 30.6249 316.675 26.7496 316.818 22.5707C317.058 15.5502 319.946 9.95915 325.484 5.79753C331.184 1.64149 338.607 -0.280061 347.752 0.0328682C351.997 0.178157 356.051 1.15363 359.913 2.95929C363.781 4.5978 367.138 6.80459 369.986 9.57965C372.997 12.3603 375.338 15.6201 377.008 19.3589C378.685 22.9307 379.457 26.6388 379.325 30.4834C379.08 37.671 376.273 43.2649 370.904 47.265C365.705 51.1034 358.696 52.8718 349.878 52.5701ZM313.706 127.895C313.906 122.045 316.518 117.365 321.543 113.855C326.736 110.184 333.415 108.488 341.58 108.767C356.277 109.27 363.938 114.72 364.563 125.117C364.97 132.327 365.346 140.456 365.691 149.505C366.198 158.559 366.604 168.196 366.909 178.415C367.382 188.472 367.678 198.942 367.796 209.823C368.084 220.544 368.292 231.178 368.422 241.725C368.557 252.105 368.622 262.149 368.617 271.855C368.612 281.561 368.473 290.426 368.198 298.449C367.912 306.807 364.759 312.975 358.737 316.952C352.879 320.936 344.398 322.737 333.294 322.357C328.232 322.184 324.274 320.794 321.42 318.186C318.724 315.751 317.456 312.193 317.616 307.512C318.405 284.445 318.571 262.863 318.114 242.765C317.826 222.506 317.298 204.497 316.529 188.74C315.923 172.988 315.226 159.911 314.438 149.508C313.818 138.944 313.574 131.74 313.706 127.895Z" fill="#E35200"/>
<path d="M424.229 108.583C424.314 106.076 425.459 103.688 427.662 101.421C429.87 98.9859 432.72 96.9079 436.213 95.1866C439.71 93.298 443.602 91.8414 447.888 90.8166C452.342 89.6302 456.774 89.1125 461.183 89.2634C463.633 89.3472 465.651 90.0857 467.238 91.4788C468.989 92.8775 470.451 95.5215 471.626 99.4107C472.807 103.133 473.77 108.437 474.515 115.324C475.43 122.05 476.191 130.862 476.799 141.76C477.338 145.126 477.821 147.736 478.248 149.591C478.844 151.285 479.632 152.149 480.611 152.183C482.081 152.233 483.639 149.692 485.286 144.561C498.413 109.699 516.244 92.6537 538.778 93.4249C549.229 93.7825 558.586 97.4497 566.849 104.426C575.275 111.409 582.902 122.631 589.73 138.094C596.727 153.395 603.15 173.529 608.998 198.497C614.853 223.298 620.51 253.866 625.971 290.201C626.234 292.051 626.422 293.73 626.534 295.24C626.646 296.75 626.679 298.174 626.633 299.511C626.502 303.356 625.489 306.668 623.596 309.448C621.871 312.067 619.59 314.248 616.751 315.992C613.918 317.568 610.772 318.716 607.314 319.434C603.851 320.32 600.404 320.704 596.975 320.587C590.117 320.352 585.162 319.429 582.111 317.819C579.223 316.214 577.442 313.308 576.769 309.101C572.902 283.531 569.02 260.806 565.123 240.926C561.388 221.05 557.545 204.351 553.594 190.828C549.811 177.143 545.917 166.718 541.912 159.552C537.906 152.386 533.781 148.731 529.535 148.585C525.289 148.44 521.194 151.061 517.25 156.449C513.474 161.675 509.675 169.996 505.851 181.412C502.027 192.829 498.18 207.34 494.308 224.947C490.599 242.559 486.855 263.601 483.075 288.072C482.03 294.73 478.581 299.967 472.729 303.784C466.876 307.6 459.541 309.357 450.723 309.055C444.844 308.854 440.396 307.447 437.38 304.833C434.363 302.22 432.765 298.734 432.587 294.377C432.307 259.559 431.652 230.919 430.622 208.459C429.76 185.837 428.827 167.731 427.82 154.141C426.819 140.384 425.943 130.146 425.192 123.426C424.441 116.707 424.12 111.759 424.229 108.583Z" fill="#E35200"/>
<path d="M657.749 235.811C657.846 232.97 658.281 229.805 659.055 226.317C659.828 222.829 660.286 218.996 660.429 214.817C660.526 211.975 659.376 209.76 656.978 208.172C654.743 206.59 652.187 204.829 649.311 202.889C646.435 200.95 643.82 198.518 641.468 195.592C639.279 192.672 638.276 188.538 638.459 183.189C638.591 179.344 639.702 175.533 641.793 171.756C644.047 167.984 647.188 164.577 651.216 161.535C661.102 154.51 671.289 148.248 681.776 142.75C692.427 137.257 702.965 132.681 713.39 129.021C723.978 125.367 734.371 122.627 744.57 120.8C754.769 118.974 764.522 118.22 773.83 118.538C789.506 119.075 804.099 122.586 817.61 129.073C831.29 135.399 843.015 143.916 852.785 154.627C862.724 165.175 870.395 177.487 875.799 191.562C881.372 205.475 883.89 220.288 883.353 236.001C882.827 251.379 879.142 265.896 872.299 279.552C865.625 293.047 856.804 304.794 845.835 314.794C834.867 324.795 822.095 332.558 807.519 338.084C793.101 343.782 777.972 346.36 762.132 345.818C746.619 345.288 732.341 342.121 719.297 336.32C706.253 330.518 695.074 322.772 685.76 313.082C676.451 303.224 669.323 291.768 664.374 278.712C659.431 265.49 657.223 251.19 657.749 235.811ZM769.064 300.871C775.923 301.106 783.075 299.928 790.52 297.338C797.966 294.748 804.801 290.881 811.026 285.739C817.42 280.435 822.71 273.922 826.898 266.2C831.249 258.484 833.594 249.694 833.931 239.832C834.274 229.803 832.798 220.381 829.503 211.566C826.207 202.751 821.484 195.058 815.333 188.489C809.351 181.757 802.095 176.405 793.566 172.431C785.201 168.463 776.038 166.309 766.077 165.968C747.951 165.348 733.905 169.72 723.939 179.085C713.979 188.283 708.658 202.828 707.978 222.72C707.606 233.585 708.812 243.751 711.594 253.218C714.546 262.523 718.762 270.7 724.243 277.749C729.729 284.631 736.244 290.125 743.788 294.232C751.494 298.345 759.92 300.558 769.064 300.871Z" fill="#E35200"/>
<path d="M908.877 41.8272C909.174 33.1351 911.835 27.0342 916.86 23.5244C921.884 20.0147 930.03 18.4526 941.298 18.8381C945.217 18.9723 948.632 19.5075 951.542 20.4438C954.453 21.3802 956.854 22.8848 958.745 24.9578C960.642 26.8635 962.104 29.5075 963.133 32.8897C964.331 36.1104 965.252 40.242 965.897 45.2846C967.511 60.234 969.099 75.9357 970.662 92.3895C972.393 108.682 973.962 124.968 975.367 141.25C976.94 157.369 978.363 173.149 979.633 188.588C980.909 203.861 981.974 218.122 982.829 231.372C983.853 244.461 984.517 256.114 984.821 266.333C985.294 276.39 985.431 284.344 985.231 290.194C985.025 296.212 984.279 301.291 982.993 305.43C981.871 309.576 979.96 312.857 977.262 315.275C974.726 317.699 971.398 319.426 967.275 320.456C963.322 321.325 958.406 321.659 952.527 321.458C946.812 321.262 942.291 319.601 938.965 316.475C935.802 313.355 934.326 308.702 934.538 302.517C934.755 296.165 934.554 287.707 933.934 277.143C933.32 266.411 932.42 254.499 931.233 241.405C930.046 228.311 928.643 214.373 927.023 199.59C925.566 184.814 923.941 170.199 922.147 155.745C920.515 141.297 918.864 127.434 917.193 114.156C915.691 100.717 914.298 88.8708 913.014 78.6185C911.735 68.199 910.717 59.713 909.961 53.1604C909.21 46.4407 908.848 42.6629 908.877 41.8272Z" fill="#E35200"/>
<path d="M1068.54 77.1629C1063.8 77.0009 1059.34 76.1786 1055.14 74.6961C1051.1 73.052 1047.58 70.9232 1044.56 68.3097C1041.72 65.5346 1039.45 62.3612 1037.78 58.7895C1036.1 55.2178 1035.33 51.3425 1035.48 47.1636C1035.72 40.1431 1038.61 34.552 1044.14 30.3904C1049.84 26.2344 1057.27 24.3128 1066.41 24.6257C1070.66 24.771 1074.71 25.7465 1078.57 27.5522C1082.44 29.1907 1085.8 31.3975 1088.65 34.1725C1091.66 36.9532 1094 40.213 1095.67 43.9518C1097.34 47.5236 1098.12 51.2317 1097.99 55.0763C1097.74 62.2639 1094.93 67.8578 1089.56 71.8578C1084.36 75.6963 1077.36 77.4647 1068.54 77.1629ZM1032.37 152.488C1032.57 146.638 1035.18 141.957 1040.2 138.448C1045.4 134.776 1052.08 133.08 1060.24 133.36C1074.94 133.863 1082.6 139.313 1083.22 149.71C1083.63 156.92 1084.01 165.049 1084.35 174.098C1084.86 183.152 1085.26 192.789 1085.57 203.008C1086.04 213.065 1086.34 223.534 1086.46 234.416C1086.74 245.137 1086.95 255.77 1087.08 266.318C1087.22 276.698 1087.28 286.742 1087.28 296.448C1087.27 306.154 1087.13 315.019 1086.86 323.042C1086.57 331.4 1083.42 337.568 1077.4 341.545C1071.54 345.529 1063.06 347.33 1051.95 346.95C1046.89 346.777 1042.93 345.387 1040.08 342.779C1037.38 340.343 1036.12 336.786 1036.28 332.105C1037.07 309.038 1037.23 287.455 1036.77 267.358C1036.49 247.098 1035.96 229.09 1035.19 213.333C1034.58 197.581 1033.89 184.504 1033.1 174.101C1032.48 163.537 1032.23 156.333 1032.37 152.488Z" fill="#E35200"/>
</svg>
