<svg width="183" height="58" viewBox="0 0 183 58" fill="none" xmlns="http://www.w3.org/2000/svg">
<path d="M14.8957 54.7017C14.927 53.7849 14.9272 52.5889 14.8961 51.1137C14.8922 49.6394 14.8664 48.0115 14.8186 46.2298C14.7709 44.448 14.7133 42.5547 14.646 40.5499C14.5787 38.545 14.4974 36.5535 14.402 34.5755C14.3066 32.5974 14.2088 30.6889 14.1087 28.8497C14.0366 26.9838 13.9584 25.2983 13.874 23.7935C13.73 21.6469 13.4851 20.0671 13.1393 19.054C12.7934 18.0408 12.1862 17.5194 11.3175 17.4897C10.5031 17.4618 9.9521 17.6794 9.66448 18.1424C9.40401 18.6063 9.23474 19.1846 9.15669 19.8773C9.10578 20.5709 9.06607 21.3344 9.03756 22.1678C9.03714 22.9744 8.88932 23.7203 8.5941 24.4056C8.32602 25.0917 7.831 25.6589 7.10904 26.107C6.38708 26.5552 5.29315 26.7542 3.82725 26.704C2.79569 26.6687 1.92817 26.2079 1.22468 25.3216C0.522149 24.4076 0.199395 23.1171 0.256422 21.4502C0.33626 19.1166 1.08715 17.0285 2.50909 15.1858C3.90484 13.3144 5.84711 11.7537 8.3359 10.5038C10.8256 9.22612 13.8071 8.27121 17.2804 7.63906C20.7536 7.00692 24.5941 6.76283 28.8017 6.90678C31.815 7.00987 34.5856 7.45233 37.1136 8.23416C39.6425 8.98821 41.809 10.008 43.6132 11.2935C45.4454 12.5522 46.8623 14.0331 47.864 15.7362C48.8666 17.4115 49.3347 19.2215 49.2682 21.1661C49.1931 23.3609 48.4969 25.437 47.1798 27.3945C45.8626 29.352 44.0761 31.1266 41.8202 32.7182C39.5915 34.3108 36.9763 35.6816 33.9746 36.8305C30.9738 37.9516 27.7649 38.8014 24.3479 39.3798C23.392 39.514 22.8965 40.0951 22.8614 41.123C22.8376 41.8175 22.8484 42.694 22.8937 43.7525C22.9671 44.7841 23.0251 45.8708 23.0675 47.0126C23.1372 48.1554 23.1937 49.2837 23.2371 50.3978C23.3077 51.5127 23.3282 52.5008 23.2988 53.362C23.2455 54.9178 22.8546 56.017 22.126 56.6596C21.3974 57.3022 20.3408 57.5998 18.9564 57.5524C17.6534 57.5078 16.6435 57.2369 15.9267 56.7395C15.2089 56.2699 14.8653 55.5907 14.8957 54.7017ZM40.7979 22.0863C40.8302 21.1417 40.4675 20.2253 39.7097 19.3372C38.9519 18.449 37.9194 17.6488 36.612 16.9366C35.3046 16.2243 33.7754 15.6435 32.0242 15.1942C30.3001 14.7459 28.4744 14.4887 26.547 14.4228C25.5969 14.3903 24.7946 14.4045 24.1403 14.4656C23.514 14.4998 23.008 14.5937 22.6223 14.7474C22.2365 14.9011 21.9574 15.1141 21.7851 15.3863C21.6408 15.6317 21.5615 15.9628 21.5472 16.3795C21.5377 16.6573 21.5561 17.3115 21.6024 18.3422C21.6496 19.3451 21.7183 20.5157 21.8084 21.8538C21.8985 23.1919 21.9862 24.5995 22.0716 26.0766C22.185 27.5268 22.3033 28.838 22.4262 30.0104C22.4782 30.8744 22.5673 31.4477 22.6935 31.7301C22.8469 32.0135 23.0865 32.1608 23.4122 32.1719C24.3352 32.2035 25.3991 32.0869 26.604 31.8222C27.8098 31.5297 29.0462 31.1409 30.3129 30.6557C31.6078 30.1438 32.8644 29.5609 34.0826 28.9073C35.3289 28.2268 36.4404 27.5138 37.4171 26.7684C38.4219 25.9962 39.2232 25.217 39.8208 24.4309C40.4465 23.6179 40.7722 22.8363 40.7979 22.0863Z" fill="#F5F2EB"/>
<path d="M58.4141 8.83773C57.6268 8.8108 56.8841 8.67413 56.1859 8.42774C55.5158 8.15449 54.93 7.80068 54.4285 7.36632C53.9551 6.9051 53.579 6.37769 53.3004 5.78406C53.0217 5.19044 52.8943 4.54637 52.918 3.85184C52.958 2.68503 53.4382 1.7558 54.3587 1.06414C55.3064 0.373402 56.5403 0.0540398 58.0605 0.106049C58.7663 0.130196 59.4402 0.29232 60.0823 0.592421C60.7252 0.864741 61.2834 1.23151 61.7568 1.69272C62.2574 2.15487 62.6465 2.69664 62.9242 3.31804C63.2029 3.91166 63.3313 4.52796 63.3094 5.16692C63.2685 6.36151 62.8019 7.29121 61.9095 7.95602C61.0451 8.59398 59.88 8.88788 58.4141 8.83773ZM52.4007 21.3568C52.434 20.3844 52.8682 19.6066 53.7035 19.0233C54.5669 18.4131 55.6773 18.1312 57.0346 18.1777C59.4778 18.2612 60.7513 19.167 60.8553 20.895C60.923 22.0933 60.9855 23.4444 61.0427 24.9483C61.1271 26.4532 61.1947 28.0548 61.2453 29.7531C61.324 31.4246 61.3731 33.1647 61.3928 34.9732C61.4406 36.7549 61.4752 38.5223 61.4968 40.2753C61.5193 42.0005 61.5301 43.6697 61.5293 45.2829C61.5285 46.896 61.5052 48.3694 61.4596 49.7029C61.4121 51.0919 60.8878 52.117 59.8868 52.7781C58.9129 53.4401 57.503 53.7395 55.6571 53.6764C54.8155 53.6476 54.1576 53.4165 53.6832 52.9831C53.235 52.5783 53.0242 51.987 53.0508 51.2092C53.182 47.3754 53.2096 43.7883 53.1336 40.4481C53.0857 37.081 52.9979 34.088 52.8701 31.4692C52.7694 28.8512 52.6535 26.6778 52.5224 24.9489C52.4194 23.1931 52.3788 21.9957 52.4007 21.3568Z" fill="#F5F2EB"/>
<path d="M70.7741 18.1471C70.7884 17.7303 70.9786 17.3336 71.3448 16.9567C71.712 16.552 72.1858 16.2067 72.7664 15.9206C73.3478 15.6067 73.9948 15.3646 74.7073 15.1943C75.4478 14.9971 76.1846 14.9111 76.9175 14.9362C77.3247 14.9501 77.6602 15.0728 77.9241 15.3044C78.2151 15.5368 78.4583 15.9763 78.6536 16.6227C78.8498 17.2413 79.0099 18.1229 79.1338 19.2675C79.2858 20.3852 79.4124 21.8498 79.5135 23.6611C79.6031 24.2205 79.6833 24.6543 79.7543 24.9627C79.8534 25.2442 79.9844 25.3878 80.1473 25.3933C80.3916 25.4017 80.6506 24.9794 80.9244 24.1266C83.1066 18.3326 86.0708 15.4996 89.817 15.6278C91.5544 15.6872 93.1099 16.2967 94.4834 17.4563C95.8842 18.6167 97.1521 20.4819 98.2872 23.0518C99.4504 25.5948 100.518 28.9412 101.49 33.0909C102.464 37.2128 103.404 42.2931 104.312 48.3319C104.356 48.6394 104.387 48.9186 104.406 49.1695C104.424 49.4205 104.43 49.6571 104.422 49.8794C104.4 50.5183 104.232 51.0688 103.917 51.5309C103.63 51.9661 103.251 52.3286 102.779 52.6184C102.308 52.8805 101.785 53.0712 101.21 53.1906C100.635 53.3378 100.062 53.4016 99.4917 53.3821C98.3516 53.3431 97.5279 53.1897 97.0207 52.9221C96.5406 52.6553 96.2446 52.1724 96.1326 51.4732C95.4898 47.2235 94.8445 43.4466 94.1965 40.1424C93.5757 36.8392 92.9369 34.0637 92.2799 31.8162C91.6511 29.5418 91.0038 27.8091 90.3379 26.6181C89.672 25.4272 88.9862 24.8196 88.2804 24.7955C87.5746 24.7713 86.8938 25.2069 86.2381 26.1024C85.6104 26.9709 84.9788 28.3539 84.3431 30.2513C83.7075 32.1487 83.0678 34.5605 82.4241 37.4867C81.8076 40.4139 81.1852 43.911 80.5568 47.9781C80.3831 49.0848 79.8098 49.9552 78.8368 50.5894C77.8639 51.2237 76.6445 51.5157 75.1786 51.4656C74.2013 51.4321 73.4619 51.1982 72.9604 50.7639C72.4589 50.3295 72.1933 49.7502 72.1637 49.0261C72.1171 43.2392 72.0082 38.4794 71.8369 34.7465C71.6938 30.9867 71.5385 27.9775 71.3712 25.7189C71.2048 23.4325 71.0592 21.7309 70.9343 20.6141C70.8095 19.4972 70.7561 18.6749 70.7741 18.1471Z" fill="#F5F2EB"/>
<path d="M109.595 39.2924C109.611 38.8202 109.683 38.2942 109.812 37.7145C109.94 37.1348 110.017 36.4977 110.04 35.8032C110.056 35.3309 109.865 34.9628 109.467 34.6988C109.095 34.4358 108.67 34.1431 108.192 33.8208C107.714 33.4985 107.279 33.0942 106.888 32.608C106.524 32.1227 106.358 31.4356 106.388 30.5466C106.41 29.9076 106.595 29.2742 106.942 28.6464C107.317 28.0195 107.839 27.4533 108.509 26.9477C110.152 25.7802 111.846 24.7395 113.589 23.8256C115.36 22.9127 117.112 22.1521 118.845 21.5439C120.605 20.9366 122.333 20.4812 124.028 20.1776C125.723 19.874 127.345 19.7487 128.892 19.8016C131.498 19.8908 133.924 20.4744 136.17 21.5526C138.444 22.6039 140.394 24.0195 142.018 25.7995C143.67 27.5527 144.945 29.5989 145.844 31.9382C146.77 34.2506 147.189 36.7125 147.099 39.3239C147.012 41.8798 146.399 44.2925 145.262 46.5622C144.152 48.8049 142.686 50.7573 140.862 52.4194C139.039 54.0815 136.916 55.3717 134.493 56.2901C132.096 57.2372 129.581 57.6657 126.948 57.5756C124.369 57.4874 121.995 56.9611 119.827 55.9969C117.658 55.0327 115.8 53.7453 114.251 52.1348C112.704 50.4965 111.519 48.5924 110.696 46.4226C109.874 44.225 109.507 41.8483 109.595 39.2924ZM128.1 50.1053C129.24 50.1443 130.429 49.9486 131.667 49.5181C132.905 49.0876 134.041 48.4451 135.076 47.5904C136.139 46.709 137.018 45.6265 137.714 44.3431C138.438 43.0606 138.827 41.5998 138.883 39.9607C138.94 38.2938 138.695 36.7279 138.147 35.2628C137.599 33.7978 136.814 32.5193 135.792 31.4274C134.797 30.3086 133.591 29.419 132.173 28.7586C130.783 28.0992 129.259 27.7411 127.603 27.6844C124.59 27.5813 122.255 28.3081 120.598 29.8646C118.942 31.3933 118.058 33.8106 117.945 37.1166C117.883 38.9224 118.084 40.612 118.546 42.1854C119.037 43.7319 119.738 45.0909 120.649 46.2625C121.561 47.4062 122.644 48.3194 123.898 49.002C125.179 49.6856 126.58 50.0533 128.1 50.1053Z" fill="#F5F2EB"/>
<path d="M151.343 7.05226C151.392 5.60764 151.834 4.59367 152.67 4.01035C153.505 3.42702 154.859 3.1674 156.732 3.23148C157.384 3.25377 157.951 3.34273 158.435 3.49835C158.919 3.65398 159.318 3.90405 159.633 4.24857C159.948 4.5653 160.191 5.00473 160.362 5.56686C160.561 6.10213 160.714 6.7888 160.822 7.62688C161.09 10.1115 161.354 12.7211 161.614 15.4557C161.902 18.1635 162.162 20.8703 162.396 23.5763C162.657 26.2553 162.894 28.8779 163.105 31.444C163.317 33.9823 163.494 36.3525 163.636 38.5546C163.807 40.7299 163.917 42.6668 163.968 44.3651C164.046 46.0366 164.069 47.3586 164.036 48.3309C164.002 49.331 163.877 50.1751 163.664 50.8631C163.477 51.5521 163.159 52.0975 162.711 52.4993C162.289 52.9021 161.736 53.1892 161.051 53.3604C160.394 53.5048 159.576 53.5603 158.599 53.5268C157.649 53.4943 156.897 53.2183 156.344 52.6987C155.819 52.1801 155.573 51.4068 155.608 50.3789C155.645 49.3232 155.611 47.9175 155.508 46.1617C155.406 44.3782 155.256 42.3983 155.059 40.2221C154.862 38.0458 154.628 35.7293 154.359 33.2725C154.117 30.8166 153.847 28.3876 153.548 25.9854C153.277 23.5842 153.003 21.2801 152.725 19.0733C152.475 16.8397 152.244 14.8709 152.03 13.167C151.818 11.4353 151.649 10.0249 151.523 8.93585C151.398 7.81903 151.338 7.19117 151.343 7.05226Z" fill="#F5F2EB"/>
<path d="M177.885 12.9251C177.098 12.8981 176.355 12.7615 175.657 12.5151C174.987 12.2418 174.401 11.888 173.899 11.4537C173.426 10.9924 173.05 10.465 172.771 9.8714C172.492 9.27778 172.365 8.63371 172.389 7.93918C172.429 6.77237 172.909 5.84313 173.829 5.15147C174.777 4.46074 176.011 4.14138 177.531 4.19339C178.237 4.21753 178.911 4.37966 179.553 4.67976C180.196 4.95208 180.754 5.31885 181.228 5.78006C181.728 6.24221 182.117 6.78398 182.395 7.40538C182.674 7.999 182.802 8.61529 182.78 9.25426C182.739 10.4488 182.273 11.3785 181.38 12.0434C180.516 12.6813 179.351 12.9752 177.885 12.9251ZM171.871 25.4441C171.905 24.4718 172.339 23.6939 173.174 23.1106C174.038 22.5004 175.148 22.2186 176.505 22.265C178.948 22.3486 180.222 23.2544 180.326 24.9824C180.394 26.1807 180.456 27.5318 180.513 29.0357C180.598 30.5405 180.665 32.1421 180.716 33.8405C180.795 35.512 180.844 37.252 180.864 39.0606C180.911 40.8423 180.946 42.6096 180.968 44.3626C180.99 46.0879 181.001 47.757 181 49.3702C180.999 50.9834 180.976 52.4567 180.93 53.7902C180.883 55.1793 180.359 56.2043 179.358 56.8654C178.384 57.5275 176.974 57.8269 175.128 57.7637C174.286 57.7349 173.628 57.5038 173.154 57.0704C172.706 56.6657 172.495 56.0744 172.522 55.2965C172.653 51.4627 172.68 47.8757 172.604 44.5354C172.556 41.1683 172.469 38.1754 172.341 35.5565C172.24 32.9386 172.124 30.7652 171.993 29.0362C171.89 27.2804 171.85 26.0831 171.871 25.4441Z" fill="#F5F2EB"/>
</svg>
