<svg width="182" height="182" viewBox="0 0 182 182" fill="none" xmlns="http://www.w3.org/2000/svg">
<path d="M18.0903 83.0847C17.9471 84.4064 17.3653 85.488 16.3448 86.3293C15.3044 87.1459 14.1345 87.4837 12.8352 87.3429L12.768 87.3357C11.4687 87.1949 10.4107 86.6043 9.59422 85.5638C8.75771 84.4986 8.40864 83.3275 8.54701 82.0506C8.68538 80.7737 9.27598 79.7157 10.3188 78.8768C11.3393 78.0354 12.4992 77.6851 13.7985 77.8259L13.8657 77.8332C15.165 77.974 16.2342 78.5658 17.0731 79.6087C17.8921 80.6267 18.2311 81.7854 18.0903 83.0847Z" fill="#3B8C62"/>
<path d="M30.4566 62.3175L11.3742 48.3297L13.9919 44.7586L27.2715 45.5663L22.5045 33.1456L25.1222 29.5745L44.2046 43.5622L41.7467 46.9153L28.0619 36.8841L32.6418 49.5029L32.5619 49.6119L19.2442 49.0277L32.8745 59.019L30.4566 62.3175Z" fill="#3B8C62"/>
<path d="M47.0509 41.8023L33.77 22.2214L48.2879 12.3745L50.3749 15.4515L39.2977 22.9647L42.7507 28.0558L52.5692 21.3964L54.6751 24.5013L44.8567 31.1608L48.4046 36.3917L59.6217 28.7836L61.7087 31.8606L47.0509 41.8023Z" fill="#3B8C62"/>
<path d="M62.6674 31.4L56.3923 8.58725L60.4009 7.48462L63.0095 16.9682L73.8944 13.9741L71.2858 4.49053L75.2943 3.38792L81.5694 26.2006L77.5608 27.3032L74.9164 17.6893L64.0314 20.6834L66.6759 30.2973L62.6674 31.4Z" fill="#3B8C62"/>
<path d="M84.4727 24.6297L88.2815 1.27827L92.3847 1.94752L90.8013 11.655L95.3048 12.3896C96.2398 9.59688 97.9214 7.40542 100.35 5.81519C102.8 4.2286 105.549 3.68379 108.596 4.18075C111.976 4.73212 114.586 6.36787 116.426 9.08799C118.265 11.8081 118.916 14.8139 118.379 18.1053L118.369 18.1721C117.832 21.4635 116.246 24.1158 113.612 26.1291C111 28.146 107.992 28.8769 104.59 28.3219C101.498 27.8177 99.0431 26.424 97.2237 24.141C95.4079 21.8357 94.5393 19.1826 94.6178 16.1817L90.181 15.458L88.5759 25.2989L84.4727 24.6297ZM100.264 21.2465C101.426 23.0799 103.097 24.1743 105.277 24.5298C107.456 24.8853 109.364 24.386 111.001 23.0319C112.663 21.6592 113.681 19.8275 114.054 17.5369L114.065 17.4701C114.439 15.1795 114.045 13.1174 112.882 11.2841C111.746 9.43204 110.088 8.32829 107.909 7.9728C105.729 7.61731 103.808 8.12592 102.146 9.49864C100.51 10.8527 99.5048 12.6751 99.1312 14.9658L99.1203 15.0325C98.7467 17.3232 99.128 19.3945 100.264 21.2465Z" fill="#3B8C62"/>
<path d="M133.315 33.8466C132.248 33.0528 131.611 32.0028 131.404 30.6966C131.228 29.3858 131.53 28.2062 132.31 27.1578L132.351 27.1036C133.131 26.0552 134.177 25.4429 135.487 25.2669C136.83 25.0862 138.016 25.3793 139.046 26.1462C140.077 26.9131 140.689 27.9586 140.883 29.2829C141.091 30.5891 140.804 31.7664 140.024 32.8148L139.984 32.869C139.203 33.9174 138.151 34.5387 136.827 34.7328C135.534 34.9223 134.363 34.6269 133.315 33.8466Z" fill="#3B8C62"/>
<path d="M144.997 55.0163L166.718 45.6371L168.474 49.7021L161.056 60.7467L174.181 62.9212L175.937 66.9863L154.215 76.3655L152.567 72.5487L168.145 65.8225L154.943 63.3863L154.89 63.2622L162.133 52.0716L146.618 58.771L144.997 55.0163Z" fill="#3B8C62"/>
<path d="M154.303 79.6236L177.918 78.164L179 95.6728L175.289 95.9021L174.463 82.5428L168.323 82.9223L169.055 94.7635L165.311 94.995L164.579 83.1538L158.27 83.5437L159.106 97.0717L155.395 97.3011L154.303 79.6236Z" fill="#3B8C62"/>
<path d="M155.344 98.5957L178.181 104.784L177.093 108.797L167.6 106.224L164.647 117.12L174.14 119.693L173.053 123.706L150.217 117.517L151.304 113.505L160.928 116.113L163.881 105.216L154.257 102.608L155.344 98.5957Z" fill="#3B8C62"/>
<path d="M150.413 120.339L168.647 135.416L165.998 138.62L158.418 132.352L155.51 135.869C157.449 138.086 158.492 140.644 158.638 143.543C158.771 146.459 157.854 149.107 155.886 151.486C153.704 154.126 150.974 155.553 147.698 155.767C144.421 155.982 141.498 155.027 138.927 152.902L138.875 152.859C136.305 150.734 134.816 148.026 134.408 144.736C133.986 141.463 134.873 138.498 137.07 135.841C139.066 133.427 141.508 132.011 144.397 131.593C147.304 131.189 150.033 131.779 152.584 133.361L155.448 129.897L147.764 123.543L150.413 120.339ZM145.361 135.679C143.192 135.756 141.403 136.646 139.996 138.348C138.589 140.05 138.057 141.949 138.4 144.045C138.746 146.173 139.813 147.976 141.602 149.455L141.654 149.498C143.442 150.977 145.421 151.678 147.591 151.6C149.763 151.554 151.553 150.68 152.96 148.979C154.367 147.277 154.898 145.362 154.552 143.234C154.209 141.138 153.143 139.35 151.355 137.871L151.303 137.828C149.514 136.349 147.533 135.633 145.361 135.679Z" fill="#3B8C62"/>
<path d="M117.794 158.047C119.016 157.524 120.244 157.502 121.477 157.979C122.699 158.487 123.566 159.341 124.08 160.543L124.107 160.605C124.62 161.807 124.623 163.018 124.116 164.24C123.597 165.491 122.747 166.369 121.566 166.874C120.385 167.378 119.173 167.382 117.931 166.883C116.698 166.406 115.824 165.566 115.311 164.364L115.284 164.302C114.771 163.1 114.763 161.878 115.261 160.636C115.748 159.423 116.592 158.56 117.794 158.047Z" fill="#3B8C62"/>
<path d="M93.3781 157.52L90.4678 181L86.0736 180.455L80.3051 168.467L71.7842 178.684L67.39 178.14L70.3003 154.659L74.4261 155.171L72.339 172.009L81.1241 161.859L81.2583 161.876L87.2406 173.788L89.3194 157.017L93.3781 157.52Z" fill="#3B8C62"/>
<path d="M67.3199 153.09L56.5875 174.176L40.9539 166.219L42.6404 162.905L54.5689 168.977L57.3594 163.494L46.7864 158.113L48.4882 154.769L59.0612 160.151L61.9283 154.518L49.8492 148.37L51.5357 145.056L67.3199 153.09Z" fill="#3B8C62"/>
<path d="M50.7589 144.592L33.9076 161.2L30.9894 158.239L37.9947 151.335L30.0702 143.294L23.0649 150.199L20.1466 147.238L36.9979 130.629L39.9162 133.59L32.8146 140.59L40.739 148.63L47.8406 141.631L50.7589 144.592Z" fill="#3B8C62"/>
<path d="M34.2696 129.162L12.0559 137.307L10.6246 133.404L19.8592 130.018L18.2883 125.734C15.3962 126.29 12.6615 125.901 10.0839 124.566C7.49866 123.21 5.67463 121.083 4.61185 118.184C3.43272 114.969 3.57653 111.892 5.04331 108.954C6.51009 106.016 8.80903 103.973 11.9401 102.825L12.0036 102.802C15.1346 101.654 18.2238 101.733 21.271 103.04C24.3104 104.325 26.4236 106.586 27.6104 109.823C28.6887 112.764 28.68 115.587 27.5841 118.293C26.4671 121.007 24.5821 123.066 21.9292 124.471L23.4768 128.691L32.8383 125.259L34.2696 129.162ZM23.5697 117.065C24.5965 115.152 24.7298 113.16 23.9695 111.086C23.2093 109.013 21.8377 107.596 19.8546 106.835C17.8427 106.061 15.7472 106.073 13.5681 106.872L13.5046 106.895C11.3256 107.694 9.72268 109.05 8.69593 110.963C7.64027 112.862 7.49255 114.848 8.25278 116.921C9.01302 118.995 10.3991 120.418 12.4111 121.193C14.3941 121.953 16.4751 121.934 18.6542 121.135L18.7177 121.112C20.8967 120.313 22.5141 118.964 23.5697 117.065Z" fill="#3B8C62"/>
<path d="M108.152 76.3562C109.004 65.7167 115.066 64.3984 119.715 64.3984C120.489 64.3984 121.232 64.0911 121.779 63.5442C122.326 62.9972 122.634 62.2554 122.634 61.4819C122.073 56.1009 113.481 59.3441 110.887 60.5369C103.289 57.3306 95.1288 55.6689 86.8817 55.6488C78.774 55.5176 54.4684 59.2916 63.1656 65.5242C71.1128 70.0769 93.6293 71.8939 104.285 67.7787C103.13 70.4824 102.459 73.368 102.303 76.3037C77.6562 80.2264 79.4394 125.465 105.123 125.646C130.721 125.473 132.603 80.5064 108.152 76.3562ZM102.204 116.896C97.1316 116.896 93.4484 111.987 93.4484 105.23C93.4484 104.456 93.7559 103.714 94.3032 103.168C94.8505 102.621 95.5929 102.313 96.3669 102.313C97.141 102.313 97.8833 102.621 98.4306 103.168C98.978 103.714 99.2854 104.456 99.2854 105.23C99.2854 108.438 100.596 111.063 102.204 111.063C102.978 111.063 103.72 111.37 104.268 111.917C104.815 112.464 105.123 113.206 105.123 113.979C105.123 114.753 104.815 115.495 104.268 116.042C103.72 116.589 102.978 116.896 102.204 116.896ZM89.9082 75.595C73.5731 65.4892 51.76 87.439 55.9831 105.314C56.6333 108.1 57.913 110.701 59.724 112.916C61.535 115.132 63.8293 116.904 66.4314 118.096C69.0334 119.289 71.874 119.871 74.7358 119.797C77.5975 119.724 80.4045 118.997 82.9416 117.672C75.5315 105.186 78.6134 83.7321 89.9082 75.595ZM72.3182 96.6815C70.2256 99.1284 69.5193 101.969 70.7421 103.013C71.3304 103.516 71.6947 104.232 71.7549 105.003C71.8151 105.774 71.5663 106.538 71.0632 107.126C70.5601 107.713 69.8438 108.077 69.0721 108.138C68.3004 108.198 67.5363 107.949 66.948 107.446C63.0956 104.151 63.4896 98.0289 67.8849 92.8958C68.398 92.3469 69.1033 92.017 69.8538 91.9748C70.6043 91.9327 71.3421 92.1815 71.9136 92.6695C72.4851 93.1575 72.8461 93.847 72.9215 94.5944C72.9968 95.3417 72.7807 96.0894 72.3182 96.6815Z" fill="#3B8C62"/>
</svg>
