<svg width="182" height="182" viewBox="0 0 182 182" fill="none" xmlns="http://www.w3.org/2000/svg">
<path d="M163.91 98.9153C164.053 97.5936 164.635 96.512 165.655 95.6706C166.696 94.8541 167.865 94.5162 169.165 94.657L169.232 94.6643C170.531 94.8051 171.589 95.3957 172.406 96.4361C173.242 97.5014 173.591 98.6725 173.453 99.9494C173.315 101.226 172.724 102.284 171.681 103.123C170.661 103.965 169.501 104.315 168.202 104.174L168.134 104.167C166.835 104.026 165.766 103.434 164.927 102.391C164.108 101.373 163.769 100.215 163.91 98.9153Z" fill="#3B8C62"/>
<path d="M151.543 119.682L170.626 133.67L168.008 137.241L154.729 136.434L159.496 148.854L156.878 152.426L137.795 138.438L140.253 135.085L153.938 145.116L149.358 132.497L149.438 132.388L162.756 132.972L149.126 122.981L151.543 119.682Z" fill="#3B8C62"/>
<path d="M134.949 140.198L148.23 159.779L133.712 169.625L131.625 166.548L142.702 159.035L139.249 153.944L129.431 160.604L127.325 157.499L137.143 150.839L133.595 145.608L122.378 153.216L120.291 150.139L134.949 140.198Z" fill="#3B8C62"/>
<path d="M119.333 150.6L125.608 173.413L121.599 174.515L118.991 165.032L108.106 168.026L110.714 177.509L106.706 178.612L100.431 155.799L104.439 154.697L107.084 164.311L117.969 161.317L115.324 151.703L119.333 150.6Z" fill="#3B8C62"/>
<path d="M97.5273 157.37L93.7185 180.722L89.6153 180.052L91.1987 170.345L86.6952 169.61C85.7602 172.403 84.0786 174.595 81.6502 176.185C79.1997 177.771 76.451 178.316 73.4042 177.819C70.0238 177.268 67.4139 175.632 65.5744 172.912C63.735 170.192 63.0837 167.186 63.6206 163.895L63.6315 163.828C64.1683 160.537 65.7539 157.884 68.3882 155.871C71.0003 153.854 74.0077 153.123 77.4103 153.678C80.5016 154.182 82.9569 155.576 84.7763 157.859C86.5921 160.164 87.4607 162.817 87.3822 165.818L91.819 166.542L93.4241 156.701L97.5273 157.37ZM81.7357 160.753C80.5736 158.92 78.9028 157.826 76.7233 157.47C74.5438 157.115 72.6359 157.614 70.9995 158.968C69.3372 160.341 68.3193 162.172 67.9457 164.463L67.9348 164.53C67.5612 166.821 67.9554 168.883 69.1176 170.716C70.2539 172.568 71.9117 173.672 74.0912 174.027C76.2707 174.383 78.1915 173.874 79.8538 172.501C81.4902 171.147 82.4952 169.325 82.8688 167.034L82.8797 166.967C83.2533 164.677 82.872 162.606 81.7357 160.753Z" fill="#3B8C62"/>
<path d="M48.685 148.153C49.7515 148.947 50.3886 149.997 50.5961 151.303C50.7722 152.614 50.47 153.794 49.6897 154.842L49.6493 154.896C48.869 155.945 47.8234 156.557 46.5126 156.733C45.1703 156.914 43.984 156.621 42.9536 155.854C41.9233 155.087 41.3111 154.041 41.117 152.717C40.9094 151.411 41.1958 150.234 41.9761 149.185L42.0165 149.131C42.7968 148.083 43.8491 147.461 45.1733 147.267C46.4661 147.078 47.6366 147.373 48.685 148.153Z" fill="#3B8C62"/>
<path d="M37.0033 126.984L15.2817 136.363L13.5265 132.298L20.9437 121.253L7.81853 119.079L6.06327 115.014L27.7848 105.634L29.4329 109.451L13.8554 116.178L27.0567 118.614L27.1103 118.738L19.8666 129.928L35.382 123.229L37.0033 126.984Z" fill="#3B8C62"/>
<path d="M27.6972 102.376L4.08222 103.836L3 86.3272L6.71092 86.0979L7.53666 99.4572L13.6765 99.0777L12.9446 87.2365L16.6893 87.005L17.4212 98.8462L23.7298 98.4563L22.8936 84.9283L26.6045 84.6989L27.6972 102.376Z" fill="#3B8C62"/>
<path d="M26.6557 83.4043L3.81937 77.2158L4.90678 73.2031L14.4002 75.7757L17.353 64.8796L7.85958 62.3069L8.94698 58.2942L31.7833 64.4827L30.6959 68.4954L21.072 65.8874L18.1192 76.7836L27.7431 79.3916L26.6557 83.4043Z" fill="#3B8C62"/>
<path d="M31.5873 61.6608L13.3528 46.5844L16.0019 43.3804L23.5823 49.6478L26.4898 46.1312C24.5511 43.9142 23.5084 41.3563 23.3616 38.4573C23.2291 35.541 24.1464 32.8932 26.1136 30.514C28.296 27.8744 31.0256 26.4472 34.3023 26.2326C37.579 26.018 40.5024 26.9732 43.0726 29.0983L43.1247 29.1413C45.6949 31.2664 47.184 33.9741 47.592 37.2644C48.0143 40.5374 47.127 43.5024 44.9302 46.1594C42.9344 48.5733 40.4918 49.9893 37.6025 50.4072C34.6959 50.8109 31.9672 50.2213 29.4164 48.6386L26.5519 52.1031L34.2364 58.4568L31.5873 61.6608ZM36.639 46.3213C38.8083 46.2437 40.5965 45.3539 42.0036 43.652C43.4108 41.9501 43.943 40.0511 43.6002 37.955C43.2544 35.8271 42.1871 34.0237 40.3984 32.5448L40.3463 32.5017C38.5576 31.0228 36.5786 30.3221 34.4093 30.3997C32.237 30.4457 30.4472 31.3195 29.0401 33.0214C27.633 34.7233 27.1023 36.6382 27.4481 38.7661C27.7909 40.8623 28.8566 42.6498 30.6453 44.1287L30.6974 44.1718C32.4862 45.6507 34.4667 46.3672 36.639 46.3213Z" fill="#3B8C62"/>
<path d="M64.2063 23.9533C62.9838 24.4758 61.7559 24.4982 60.5226 24.0206C59.3011 23.5134 58.4336 22.6589 57.92 21.4571L57.8934 21.395C57.3798 20.1932 57.3766 18.9816 57.8838 17.7601C58.4029 16.5091 59.2529 15.6312 60.434 15.1264C61.615 14.6217 62.8267 14.6185 64.0688 15.1168C65.3022 15.5944 66.1756 16.4341 66.6892 17.6359L66.7158 17.6981C67.2294 18.8998 67.2371 20.1218 66.7387 21.364C66.2523 22.5766 65.4081 23.4397 64.2063 23.9533Z" fill="#3B8C62"/>
<path d="M88.6219 24.4803L91.5322 1L95.9264 1.54464L101.695 13.533L110.216 3.31575L114.61 3.86039L111.7 27.3407L107.574 26.8293L109.661 9.99059L100.876 20.1411L100.742 20.1244L94.7594 8.21173L92.6806 24.9834L88.6219 24.4803Z" fill="#3B8C62"/>
<path d="M114.68 28.9097L125.412 7.82395L141.046 15.7813L139.36 19.0948L127.431 13.0233L124.641 18.5056L135.214 23.8871L133.512 27.2307L122.939 21.8492L120.072 27.4821L132.151 33.6303L130.464 36.9437L114.68 28.9097Z" fill="#3B8C62"/>
<path d="M131.241 37.4081L148.092 20.8L151.011 23.761L144.005 30.6652L151.93 38.7057L158.935 31.8014L161.853 34.7625L145.002 51.3706L142.084 48.4096L149.185 41.4104L141.261 33.37L134.159 40.3691L131.241 37.4081Z" fill="#3B8C62"/>
<path d="M147.73 52.8382L169.944 44.6928L171.375 48.5961L162.141 51.9822L163.712 56.2663C166.604 55.7099 169.339 56.0991 171.916 57.434C174.501 58.7901 176.325 60.9173 177.388 63.8157C178.567 67.0314 178.423 70.1081 176.957 73.046C175.49 75.9839 173.191 78.0269 170.06 79.175L169.996 79.1983C166.865 80.3464 163.776 80.2671 160.729 78.9604C157.69 77.6749 155.576 75.4137 154.39 72.1768C153.311 69.2361 153.32 66.4129 154.416 63.707C155.533 60.9934 157.418 58.9342 160.071 57.5294L158.523 53.3088L149.162 56.7415L147.73 52.8382ZM158.43 64.9351C157.404 66.8476 157.27 68.8405 158.03 70.9137C158.791 72.987 160.162 74.4041 162.145 75.165C164.157 75.9393 166.253 75.9269 168.432 75.1279L168.495 75.1046C170.674 74.3056 172.277 72.9498 173.304 71.0373C174.36 69.1382 174.507 67.152 173.747 65.0787C172.987 63.0054 171.601 61.5817 169.589 60.8074C167.606 60.0465 165.525 60.0656 163.346 60.8646L163.282 60.8878C161.103 61.6869 159.486 63.0359 158.43 64.9351Z" fill="#3B8C62"/>
<path d="M73.848 105.644C72.9958 116.283 66.934 117.602 62.2848 117.602C61.5107 117.602 60.7684 117.909 60.221 118.456C59.6737 119.003 59.3662 119.745 59.3662 120.518C59.9266 125.899 68.5188 122.656 71.1133 121.463C78.7107 124.669 86.8712 126.331 95.1183 126.351C103.226 126.482 127.532 122.708 118.834 116.476C110.887 111.923 88.3707 110.106 77.7151 114.221C78.8701 111.518 79.5409 108.632 79.6968 105.696C104.344 101.774 102.561 56.5353 76.8775 56.3545C51.279 56.5266 49.3965 101.494 73.848 105.644ZM79.796 65.1041C84.8684 65.1041 88.5516 70.0126 88.5516 76.7702C88.5516 77.5437 88.2441 78.2855 87.6968 78.8325C87.1495 79.3794 86.4071 79.6867 85.6331 79.6867C84.859 79.6867 84.1167 79.3794 83.5694 78.8325C83.022 78.2855 82.7145 77.5437 82.7145 76.7702C82.7145 73.562 81.4041 70.9371 79.796 70.9371C79.022 70.9371 78.2796 70.6299 77.7323 70.0829C77.1849 69.536 76.8775 68.7941 76.8775 68.0206C76.8775 67.2471 77.1849 66.5053 77.7323 65.9583C78.2796 65.4113 79.022 65.1041 79.796 65.1041ZM92.0918 106.405C108.427 116.511 130.24 94.561 126.017 76.6856C125.367 73.8997 124.087 71.2994 122.276 69.0838C120.465 66.8683 118.171 65.0964 115.569 63.9037C112.967 62.7109 110.126 62.1291 107.264 62.2027C104.402 62.2763 101.596 63.0034 99.0584 64.3283C106.469 76.8139 103.387 98.2679 92.0918 106.405ZM109.682 85.3185C111.774 82.8716 112.481 80.0309 111.258 78.9868C110.67 78.484 110.305 77.7682 110.245 76.997C110.185 76.2258 110.434 75.4623 110.937 74.8744C111.44 74.2866 112.156 73.9225 112.928 73.8623C113.7 73.8022 114.464 74.0508 115.052 74.5536C118.904 77.8493 118.51 83.9711 114.115 89.1042C113.602 89.6531 112.897 89.983 112.146 90.0252C111.396 90.0673 110.658 89.8185 110.086 89.3305C109.515 88.8425 109.154 88.153 109.079 87.4056C109.003 86.6583 109.219 85.9106 109.682 85.3185Z" fill="#3B8C62"/>
</svg>
