<svg width="217" height="51" viewBox="0 0 217 51" fill="none" xmlns="http://www.w3.org/2000/svg">
<path d="M17.1737 42.9475L15.3961 44.3472L9.6381 37.0347L9.90458 48.6714L8.35826 49.889L0.392578 39.7729L2.17011 38.3733L7.78023 45.4979L7.50272 34.1742L9.208 32.8314L17.1737 42.9475Z" fill="white"/>
<path d="M22.3157 39.4398L16.3902 30.4357L12.9638 32.6906L11.811 30.939L20.5539 25.1854L21.7067 26.9371L18.2802 29.192L24.2056 38.1961L22.3157 39.4398Z" fill="white"/>
<path d="M29.2675 34.8561L28.0783 20.7548L29.9225 19.7568L41.0769 28.4654L38.9738 29.6035L36.3458 27.4911L30.9911 30.3888L31.3059 33.753L29.2675 34.8561ZM30.7649 28.2315L34.6636 26.1217L30.2549 22.6514L30.7649 28.2315Z" fill="white"/>
<path d="M43.3422 13.3468L53.5288 23.0962L51.2115 24.0864L43.6068 16.6343L43.7522 27.2736L41.5025 28.2349L41.4816 14.1418L43.3422 13.3468Z" fill="white"/>
<path d="M55.4721 22.4062L51.4365 10.1792L53.585 9.47009L54.9283 13.5399L57.5134 12.6867C58.9574 12.2101 60.2197 12.1809 61.3004 12.599C62.3927 13.0133 63.1483 13.8551 63.5672 15.1243L63.5788 15.1593C64.0016 16.4402 63.8973 17.5916 63.2661 18.6135C62.6349 19.6354 61.5682 20.3942 60.066 20.89L55.4721 22.4062ZM56.9749 19.7408L59.4727 18.9164C60.2878 18.6473 60.8668 18.2496 61.2096 17.7233C61.5641 17.1931 61.6298 16.5902 61.4069 15.9148L61.4011 15.8974C61.1744 15.2103 60.7744 14.7613 60.2011 14.5502C59.6278 14.3391 58.9277 14.37 58.1009 14.6429L55.5682 15.4788L56.9749 19.7408Z" fill="white"/>
<path d="M74.204 3.68676L77.2386 16.1999L75.0398 16.7331L73.9821 12.3714L71.3722 13.0043L69.248 18.1377L66.6024 18.7792L68.9432 13.2905C67.953 13.2657 67.1012 13.0054 66.3879 12.5096C65.6837 11.999 65.2131 11.2551 64.9761 10.2779L64.9717 10.26C64.6509 8.93717 64.8522 7.81583 65.5755 6.89596C66.2988 5.97609 67.441 5.32685 69.0021 4.94826L74.204 3.68676ZM72.4908 6.22207L69.291 6.99804C68.4687 7.19746 67.8745 7.53083 67.5084 7.99817C67.1422 8.46551 67.0401 9.03286 67.2019 9.70023L67.2062 9.71811C67.3681 10.3855 67.7262 10.8475 68.2805 11.1042C68.8468 11.3581 69.5351 11.3867 70.3455 11.1902L73.5096 10.4229L72.4908 6.22207Z" fill="white"/>
<path d="M79.0952 15.8041L77.1587 3.07471L79.3954 2.73444L80.2004 8.02622L86.2742 7.10226L85.4692 1.81047L87.7059 1.47021L89.6423 14.1996L87.4056 14.5398L86.5895 9.17533L80.5158 10.0993L81.3319 15.4638L79.0952 15.8041Z" fill="white"/>
<path d="M99.6921 13.6056C97.8315 13.717 96.2388 13.1736 94.914 11.9754C93.5892 10.7771 92.8711 9.24766 92.7596 7.38706L92.7574 7.35034C92.646 5.48975 93.1761 3.87942 94.3477 2.51937C95.5193 1.15932 97.0598 0.422108 98.9694 0.307747C100.083 0.241036 101.042 0.355593 101.846 0.651416C102.65 0.94724 103.414 1.39901 104.139 2.00671L102.788 3.76445C101.574 2.78065 100.337 2.32651 99.0764 2.40201C97.8768 2.47386 96.8994 2.97464 96.1443 3.90436C95.3885 4.82183 95.0483 5.91097 95.1238 7.17177L95.126 7.20849C95.2023 8.48153 95.6707 9.53452 96.5314 10.3675C97.3921 11.2004 98.4283 11.5806 99.6402 11.508C100.375 11.4641 101.015 11.2905 101.562 10.9875C102.109 10.6845 102.666 10.2335 103.232 9.63451L104.77 11.0165C104.117 11.805 103.392 12.4196 102.596 12.8605C101.798 13.289 100.83 13.5374 99.6921 13.6056Z" fill="white"/>
<path d="M108.031 13.07L108.439 0.200684L110.7 0.272345L110.512 5.62174L111.928 5.6666L116.933 0.469851L119.782 0.560156L113.721 6.58836L119.687 13.4394L116.782 13.3474L111.92 7.67229L110.449 7.62568L110.292 13.1417L108.031 13.07Z" fill="white"/>
<path d="M120.215 13.4607L127.428 1.28582L129.509 1.54306L133.541 15.1079L131.168 14.8146L130.253 11.5692L124.211 10.8223L122.515 13.745L120.215 13.4607ZM125.278 8.93407L129.678 9.47789L128.101 4.09343L125.278 8.93407Z" fill="white"/>
<path d="M148.578 5.15311L145.848 17.7362L143.637 17.2564L144.589 12.8704L141.964 12.3009L137.813 15.9928L135.153 15.4156L139.654 11.4985C138.774 11.044 138.121 10.4381 137.696 9.68077C137.285 8.91404 137.186 8.03933 137.399 7.05665L137.403 7.03868C137.692 5.70847 138.362 4.78735 139.414 4.27531C140.467 3.76327 141.778 3.67755 143.347 4.01817L148.578 5.15311ZM145.931 6.68668L142.713 5.98855C141.886 5.80915 141.206 5.8498 140.672 6.11051C140.139 6.37122 139.8 6.83713 139.654 7.50822L139.65 7.5262C139.504 8.1973 139.625 8.76929 140.012 9.2422C140.411 9.7177 141.017 10.0439 141.832 10.2207L145.014 10.911L145.931 6.68668Z" fill="white"/>
<path d="M153.269 19.8177L157.472 7.64697L159.61 8.3854L157.846 13.4389L159.185 13.9012L165.504 10.4206L168.199 11.3511L160.624 15.3127L164.292 23.6239L161.545 22.6753L158.582 15.8144L157.191 15.3341L155.408 20.5561L153.269 19.8177Z" fill="white"/>
<path d="M169.808 26.0654L167.506 25.0402L171.662 22.0384L170.392 12.2305L172.745 13.2781L173.628 20.6989L179.432 16.2565L181.734 17.2817L169.808 26.0654Z" fill="white"/>
<path d="M191.4 22.5547L193.673 23.8043L186.709 27.1545L187.631 35.1759L185.294 33.8909L184.678 27.9478L179.346 30.6209L177.073 29.3714L184.306 25.8752L183.438 18.177L185.775 19.462L186.321 25.0731L191.4 22.5547Z" fill="white"/>
<path d="M188.64 35.812L195.789 25.103L197.67 26.3592L194.698 30.811L199.808 34.222L202.78 29.7701L204.662 31.0262L197.513 41.7352L195.631 40.4791L198.644 35.966L193.534 32.5551L190.522 37.0682L188.64 35.812Z" fill="white"/>
<path d="M216.585 40.2743L208.554 50.3384L206.786 48.9272L209.585 45.4191L207.486 43.7441L202.127 45.2099L199.999 43.5118L205.772 41.9995C205.185 41.2017 204.869 40.369 204.824 39.5015C204.796 38.632 205.095 37.8044 205.723 37.0184L205.734 37.004C206.583 35.9401 207.593 35.4122 208.763 35.4204C209.933 35.4285 211.146 35.9336 212.401 36.9356L216.585 40.2743ZM213.532 40.4734L210.958 38.4197C210.297 37.8919 209.669 37.6265 209.076 37.6233C208.482 37.6202 207.971 37.8871 207.543 38.4238L207.531 38.4382C207.103 38.9749 206.957 39.541 207.094 40.1365C207.24 40.7395 207.639 41.3011 208.291 41.8213L210.836 43.852L213.532 40.4734Z" fill="white"/>
</svg>
