<svg width="337" height="138" viewBox="0 0 337 138" fill="none" xmlns="http://www.w3.org/2000/svg">
<path d="M19.8529 104.659L43.0366 108.305L29.1091 89.3964L33.3125 82.4654L58.81 97.9286L55.9787 102.597L35.0779 89.9217L50.903 111.21L48.921 114.478L22.9522 110.321L43.6734 122.887L40.9728 127.34L15.4753 111.877L19.8529 104.659Z" fill="#F5F2EB"/>
<path d="M64.3285 92.1898L43.7238 70.6334L61.1814 53.9465L64.5478 57.4684L51.1586 70.2665L55.8599 75.185L63.8449 67.5526L67.2403 71.1048L59.2553 78.7373L64.9434 84.6881L79.5471 70.7291L83.0006 74.3421L64.3285 92.1898Z" fill="#F5F2EB"/>
<path d="M105.92 59.8405L99.0779 49.4103L85.3817 58.3947L92.2237 68.8249L87.5179 71.9118L71.1616 46.9778L75.8674 43.8909L82.6173 54.1805L96.3134 45.1961L89.5636 34.9064L94.3046 31.7965L110.661 56.7305L105.92 59.8405Z" fill="#F5F2EB"/>
<path d="M115.885 54.1413L108.962 25.1362L114.436 23.8295L117.293 35.7992L122.073 34.6583C121.775 30.7569 122.691 27.3574 124.82 24.4598C126.97 21.5285 129.925 19.6142 133.683 18.7171C138.013 17.6835 141.895 18.2682 145.328 20.4712C148.762 22.6743 150.989 25.9138 152.009 30.1897C153.037 34.4928 152.489 38.4089 150.366 41.9382C148.237 45.4402 145.062 47.6951 140.84 48.7027C137.028 49.6128 133.48 49.2218 130.197 47.5297C126.915 45.8376 124.583 43.1845 123.202 39.5703L118.463 40.7015L121.359 52.8346L115.885 54.1413ZM139.651 43.7187C142.429 43.0556 144.418 41.559 145.617 39.2287C146.811 36.8713 147.076 34.3035 146.413 31.5256C145.743 28.7204 144.333 26.5525 142.183 25.0219C140.033 23.4913 137.596 23.051 134.873 23.7011C132.095 24.3642 130.095 25.8777 128.875 28.2417C127.675 30.5719 127.407 33.126 128.07 35.904C128.746 38.7364 130.159 40.9179 132.309 42.4485C134.453 43.9519 136.9 44.3753 139.651 43.7187Z" fill="#F5F2EB"/>
<path d="M174.095 45.3143L177.982 15.7487L194.306 17.8948C197.499 18.3146 199.914 19.3805 201.553 21.0928C203.223 22.7809 203.854 25.1796 203.445 28.2888C203.044 31.3425 201.797 33.5226 199.705 34.829C197.644 36.1114 195.045 36.5463 191.908 36.1339L181.165 34.7214L179.675 46.0479L174.095 45.3143ZM193.358 22.8535L182.905 21.4794L181.821 29.7244L192.274 31.0986C193.717 31.2883 194.927 31.1085 195.903 30.559C196.91 29.9855 197.505 29.0046 197.688 27.6166C198.049 24.8682 196.606 23.2805 193.358 22.8535Z" fill="#F5F2EB"/>
<path d="M205.902 50.7649L215.559 22.552L220.924 24.3883L211.266 52.6012L205.902 50.7649Z" fill="#F5F2EB"/>
<path d="M258.196 41.2099L244.404 67.7908L240.489 65.7597L234.945 37.1421L224.48 57.3108L219.633 54.7961L233.367 28.3271L239.183 31.3447L243.966 56.8701L253.387 38.7146L258.196 41.2099Z" fill="#F5F2EB"/>
<path d="M260.782 81.791C257.439 78.7671 255.643 75.1798 255.396 71.0292C255.187 66.8766 256.567 63.1599 259.535 59.8788C262.54 56.5563 266.121 54.8304 270.277 54.7012C274.452 54.5512 278.181 55.96 281.462 58.9276C284.805 61.9516 286.581 65.5398 286.789 69.6924C287.037 73.843 285.677 77.5588 282.709 80.8398C279.704 84.1624 276.114 85.8986 271.939 86.0486C267.782 86.1778 264.063 84.7586 260.782 81.791ZM264.22 77.9908C266.379 79.9442 268.791 80.8045 271.456 80.5717C274.16 80.3369 276.489 79.1397 278.442 76.9801C280.414 74.7996 281.372 72.3628 281.317 69.6695C281.261 66.9763 280.163 64.6624 278.024 62.7278C275.865 60.7745 273.443 59.9245 270.76 60.1781C268.095 60.4109 265.787 61.6071 263.833 63.7667C261.861 65.9472 260.892 68.3746 260.927 71.0491C260.983 73.7423 262.081 76.0563 264.22 77.9908Z" fill="#F5F2EB"/>
<path d="M292.56 112.822L288.265 115.539L275.399 95.2011L300.599 79.2584L303.608 84.0146L282.702 97.2403L292.56 112.822Z" fill="#F5F2EB"/>
<path d="M291.67 121.116L318.497 108.095L320.973 113.196L294.146 126.217L291.67 121.116Z" fill="#F5F2EB"/>
</svg>
