<svg width="229" height="229" viewBox="0 0 229 229" fill="none" xmlns="http://www.w3.org/2000/svg">
<path d="M94.7359 156.404C94.7941 154.722 94.7944 152.528 94.7367 149.821C94.7295 147.117 94.6815 144.13 94.5928 140.861C94.5042 137.592 94.3974 134.118 94.2725 130.44C94.1476 126.762 93.9966 123.108 93.8195 119.479C93.6424 115.85 93.4609 112.349 93.275 108.974C93.1413 105.551 92.9961 102.459 92.8394 99.698C92.5721 95.7598 92.1175 92.8613 91.4756 91.0025C90.8337 89.1438 89.7065 88.1872 88.094 88.1326C86.5823 88.0815 85.5595 88.4807 85.0256 89.3301C84.5421 90.1812 84.228 91.2422 84.0831 92.513C83.9886 93.7856 83.9149 95.1864 83.8619 96.7154C83.8612 98.1952 83.5868 99.5637 83.0388 100.821C82.5412 102.08 81.6223 103.12 80.2822 103.943C78.9421 104.765 76.9115 105.13 74.1905 105.038C72.2757 104.973 70.6653 104.128 69.3595 102.502C68.0555 100.825 67.4564 98.457 67.5622 95.3988C67.7104 91.1174 69.1042 87.2864 71.7437 83.9057C74.3345 80.4723 77.9398 77.609 82.5595 75.3159C87.181 72.9718 92.7153 71.2198 99.1624 70.06C105.609 68.9003 112.738 68.4524 120.549 68.7165C126.142 68.9057 131.285 69.7174 135.977 71.1518C140.671 72.5353 144.693 74.4062 148.042 76.7647C151.443 79.074 154.073 81.7909 155.932 84.9155C157.793 87.9891 158.662 91.3098 158.539 94.8776C158.399 98.9042 157.107 102.713 154.662 106.305C152.217 109.896 148.901 113.152 144.714 116.072C140.577 118.994 135.722 121.509 130.151 123.616C124.58 125.673 118.624 127.232 112.281 128.294C110.507 128.54 109.587 129.606 109.522 131.492C109.478 132.766 109.498 134.374 109.582 136.316C109.718 138.209 109.826 140.202 109.905 142.297C110.034 144.394 110.139 146.464 110.219 148.508C110.35 150.553 110.389 152.366 110.334 153.946C110.235 156.8 109.509 158.817 108.157 159.996C106.804 161.175 104.843 161.721 102.273 161.634C99.8548 161.552 97.9802 161.055 96.6496 160.143C95.3174 159.281 94.6794 158.035 94.7359 156.404ZM142.816 96.5657C142.876 94.8328 142.203 93.1516 140.796 91.5221C139.39 89.8927 137.473 88.4246 135.046 87.1178C132.619 85.8111 129.781 84.7456 126.53 83.9212C123.33 83.0986 119.941 82.6268 116.363 82.5058C114.6 82.4462 113.111 82.4724 111.896 82.5844C110.733 82.6472 109.794 82.8195 109.078 83.1015C108.362 83.3834 107.844 83.7741 107.524 84.2736C107.256 84.7238 107.109 85.3312 107.083 86.0957C107.065 86.6054 107.099 87.8057 107.185 89.6967C107.273 91.5367 107.4 93.6842 107.567 96.1392C107.735 98.5943 107.898 101.177 108.056 103.887C108.267 106.547 108.486 108.953 108.714 111.104C108.811 112.689 108.976 113.741 109.21 114.259C109.495 114.779 109.94 115.049 110.544 115.069C112.258 115.127 114.233 114.914 116.469 114.428C118.707 113.891 121.002 113.178 123.354 112.288C125.757 111.349 128.09 110.279 130.351 109.08C132.664 107.831 134.728 106.523 136.541 105.156C138.406 103.739 139.893 102.31 141.002 100.867C142.164 99.3758 142.768 97.9419 142.816 96.5657Z" fill="#E35200"/>
<path d="M197.994 117.059L225.708 121.797L223.092 137.099C222.58 140.091 221.488 142.328 219.815 143.81C218.164 145.322 215.881 145.829 212.966 145.331C210.104 144.841 208.095 143.587 206.941 141.568C205.807 139.58 205.492 137.116 205.995 134.175L207.717 124.105L197.1 122.289L197.994 117.059ZM218.454 136.024L220.13 126.227L212.401 124.906L210.726 134.703C210.494 136.056 210.62 137.202 211.102 138.142C211.606 139.112 212.508 139.708 213.809 139.931C216.386 140.371 217.934 139.069 218.454 136.024Z" fill="#E35200"/>
<path d="M191.136 145.831L216.823 157.265L214.648 162.149L188.962 150.715L191.136 145.831Z" fill="#E35200"/>
<path d="M192.009 194.886L170.118 177.054L172.744 173.83L200.226 174.203L183.616 160.672L186.867 156.681L208.666 174.438L204.764 179.228L180.283 178.745L195.235 190.926L192.009 194.886Z" fill="#E35200"/>
<path d="M154.368 186.501C158.082 184.434 161.829 183.92 165.609 184.958C169.379 186.033 172.279 188.392 174.307 192.037C176.361 195.728 176.815 199.449 175.668 203.198C174.535 206.971 172.146 209.872 168.501 211.9C164.787 213.967 161.045 214.463 157.275 213.388C153.494 212.35 150.59 210.008 148.562 206.363C146.508 202.672 146.048 198.94 147.181 195.168C148.327 191.418 150.723 188.529 154.368 186.501ZM156.717 190.722C154.318 192.058 152.818 193.95 152.217 196.399C151.606 198.884 151.968 201.326 153.303 203.725C154.65 206.148 156.535 207.742 158.956 208.51C161.377 209.278 163.776 209 166.152 207.678C168.551 206.343 170.045 204.439 170.633 201.967C171.234 199.518 170.867 197.094 169.532 194.695C168.184 192.272 166.311 190.671 163.913 189.891C161.492 189.123 159.093 189.4 156.717 190.722Z" fill="#E35200"/>
<path d="M116.531 202.946L115.742 198.22L138.122 194.481L142.755 222.213L137.521 223.087L133.678 200.082L116.531 202.946Z" fill="#E35200"/>
<path d="M111.737 197.255L110.002 225.318L104.666 224.988L106.401 196.926L111.737 197.255Z" fill="#E35200"/>
<path d="M87.1695 207.92C86.7858 209.044 86.3039 209.884 85.7239 210.439C85.1104 211.011 84.4401 211.34 83.7132 211.426C82.9613 211.505 82.198 211.411 81.4235 211.147C80.649 210.883 80.0005 210.494 79.4782 209.981C78.9559 209.468 78.6268 208.798 78.4908 207.97C78.3462 207.168 78.4658 206.204 78.8495 205.08C79.2247 203.981 79.7191 203.145 80.3326 202.574C80.9376 202.027 81.6079 201.698 82.3433 201.586C83.0703 201.5 83.821 201.588 84.5956 201.853C85.3701 202.117 86.031 202.51 86.5783 203.032C87.0921 203.569 87.4212 204.24 87.5658 205.042C87.6768 205.861 87.5447 206.82 87.1695 207.92Z" fill="#E35200"/>
<path d="M70.8033 185.742L52.8875 207.411L40.9239 197.519C38.5841 195.585 37.1885 193.523 36.7373 191.334C36.2488 189.149 36.9466 186.917 38.8308 184.638C40.6812 182.4 42.7692 181.284 45.0948 181.288C47.3833 181.296 49.677 182.251 51.9762 184.152L59.8501 190.662L66.7137 182.361L70.8033 185.742ZM44.1655 194.033L51.8259 200.367L56.8221 194.324L49.1618 187.991C48.1038 187.116 47.0474 186.653 45.9925 186.603C44.9006 186.557 43.934 187.042 43.0929 188.06C41.4275 190.074 41.785 192.065 44.1655 194.033Z" fill="#E35200"/>
<path d="M49.2769 165.475L26.6006 182.097L23.44 177.785L46.1163 161.163L49.2769 165.475Z" fill="#E35200"/>
<path d="M6.28027 141.922L32.6402 131.804L34.1301 135.686L20.1339 159.34L40.1349 151.663L41.9795 156.469L15.7305 166.544L13.5169 160.777L26.1153 139.78L8.11071 146.691L6.28027 141.922Z" fill="#E35200"/>
<path d="M32.2904 113.275C32.2248 117.525 30.7977 121.028 28.0092 123.783C25.1948 126.512 21.7022 127.844 17.5315 127.78C13.308 127.715 9.85859 126.249 7.18333 123.383C4.48167 120.516 3.16304 116.997 3.22744 112.826C3.29307 108.576 4.73311 105.087 7.54758 102.358C10.3361 99.6024 13.8157 98.2568 17.9864 98.3212C22.2099 98.3864 25.6724 99.8524 28.3741 102.719C31.0494 105.586 32.3548 109.104 32.2904 113.275ZM27.4598 113.2C27.5021 110.455 26.6127 108.21 24.7914 106.466C22.9441 104.695 20.6479 103.788 17.9026 103.746C15.1309 103.703 12.8077 104.538 10.9331 106.252C9.05838 107.966 8.10005 110.182 8.05807 112.901C8.01568 115.646 8.91832 117.891 10.766 119.636C12.5873 121.38 14.8706 122.274 17.6158 122.316C20.3875 122.359 22.7105 121.536 24.5848 119.849C26.4594 118.136 27.4178 115.919 27.4598 113.2Z" fill="#E35200"/>
<path d="M36.7912 72.4305L41.2837 74.097L33.392 95.3712L7.03125 85.5928L8.87676 80.6176L30.7451 88.7296L36.7912 72.4305Z" fill="#E35200"/>
<path d="M44.0083 71.2194L20.5676 55.6938L23.5197 51.2368L46.9604 66.7623L44.0083 71.2194Z" fill="#E35200"/>
<path d="M46.8085 44.7336C46.022 43.8433 45.5312 43.0087 45.3362 42.2298C45.1436 41.4137 45.1897 40.6684 45.4746 39.994C45.7792 39.3021 46.2382 38.6853 46.8515 38.1434C47.4648 37.6015 48.1237 37.2308 48.828 37.0312C49.5324 36.8317 50.2777 36.8778 51.0639 37.1696C51.8326 37.4415 52.6102 38.0227 53.3968 38.913C54.1659 39.7835 54.6468 40.6269 54.8394 41.443C55.0146 42.2394 54.9685 42.9847 54.7011 43.6789C54.4163 44.3533 53.9672 44.9614 53.3538 45.5033C52.7405 46.0451 52.0718 46.4246 51.3476 46.6416C50.6258 46.8214 49.8805 46.7753 49.1118 46.5033C48.3454 46.1941 47.5776 45.6042 46.8085 44.7336Z" fill="#E35200"/>
<path d="M73.8984 41.4937L63.9224 15.207L78.4356 9.69914C81.274 8.62191 83.756 8.42827 85.8815 9.1182C88.0223 9.77407 89.6173 11.4842 90.6664 14.2486C91.6968 16.9637 91.6351 19.3308 90.4812 21.35C89.3427 23.3351 87.3789 24.8569 84.5898 25.9154L75.0377 29.5405L78.8595 39.6109L73.8984 41.4937ZM79.8625 14.2403L70.5696 17.767L73.3516 25.0977L82.6445 21.571C83.928 21.0839 84.8523 20.3942 85.4173 19.5021C85.9976 18.576 86.0536 17.4958 85.5853 16.2617C84.6579 13.8181 82.7503 13.1443 79.8625 14.2403Z" fill="#E35200"/>
<path d="M102.284 32.7091L99.1472 4.76855L104.46 4.17219L107.596 32.1127L102.284 32.7091Z" fill="#E35200"/>
<path d="M144.376 7.04603L140.045 34.9466L135.936 34.3087L122.375 10.4029L119.089 31.5729L114.002 30.7832L118.315 3L124.419 3.94772L136.37 25.3192L139.328 6.26234L144.376 7.04603Z" fill="#E35200"/>
<path d="M156.5 43.8577C152.849 41.6824 150.524 38.6993 149.525 34.9083C148.562 31.1082 149.148 27.4163 151.283 23.8328C153.444 20.2039 156.434 17.9443 160.253 17.0539C164.085 16.1408 167.793 16.7516 171.376 18.8864C175.028 21.0617 177.335 24.0494 178.298 27.8496C179.297 31.6405 178.729 35.3278 176.594 38.9113C174.432 42.5402 171.435 44.8112 167.603 45.7243C163.785 46.6147 160.084 45.9925 156.5 43.8577ZM158.973 39.7072C161.332 41.1123 163.721 41.4602 166.141 40.7508C168.597 40.0322 170.528 38.4935 171.933 36.1348C173.352 33.7533 173.786 31.3229 173.235 28.8435C172.683 26.3641 171.24 24.4286 168.904 23.037C166.545 21.6318 164.149 21.2953 161.715 22.0273C159.295 22.7368 157.383 24.2709 155.977 26.6296C154.559 29.0111 154.114 31.4348 154.642 33.9006C155.193 36.38 156.637 38.3155 158.973 39.7072Z" fill="#E35200"/>
<path d="M189.802 68.2568L186.12 71.3234L171.598 53.8886L193.201 35.894L196.598 39.9713L178.676 54.8992L189.802 68.2568Z" fill="#E35200"/>
<path d="M186.984 74.6048L212.041 61.8511L214.466 66.6154L189.409 79.3691L186.984 74.6048Z" fill="#E35200"/>
<path d="M208.748 90.454C209.912 90.2137 210.88 90.2023 211.653 90.4201C212.457 90.6583 213.081 91.0685 213.524 91.6508C213.974 92.2589 214.281 92.9637 214.447 93.7651C214.612 94.5666 214.607 95.3226 214.43 96.033C214.253 96.7435 213.843 97.3674 213.199 97.9048C212.581 98.4368 211.691 98.823 210.527 99.0634C209.39 99.2984 208.419 99.2968 207.615 99.0586C206.837 98.815 206.213 98.4048 205.743 97.8279C205.299 97.2456 204.995 96.5538 204.829 95.7523C204.663 94.9508 204.666 94.182 204.838 93.4457C205.04 92.7299 205.45 92.1059 206.068 91.5739C206.717 91.0624 207.611 90.6891 208.748 90.454Z" fill="#E35200"/>
</svg>
