<svg width="103" height="103" viewBox="0 0 103 103" fill="none" xmlns="http://www.w3.org/2000/svg">
<path fill-rule="evenodd" clip-rule="evenodd" d="M51.5 103C79.9427 103 103 79.9427 103 51.5C103 23.0573 79.9427 0 51.5 0C23.0573 0 0 23.0573 0 51.5C0 79.9427 23.0573 103 51.5 103ZM72.4146 73H79.4149C81.415 73 82.4191 72.0001 81.835 70.0243C81.203 68.0565 78.9349 65.2048 75.9268 61.8212C75.0995 60.844 74.0635 59.8288 73.1461 58.9297C72.2537 58.0551 71.4734 57.2905 71.1065 56.7777C70.0665 55.4418 70.3625 54.8499 71.1065 53.662C71.1065 53.662 79.6349 41.6513 80.527 37.5717C80.975 36.0879 80.527 35 78.4109 35H71.4105C69.6265 35 68.8104 35.9399 68.3624 36.9798C68.3624 36.9798 64.8022 45.6549 59.758 51.2903C58.1259 52.9221 57.3859 53.4421 56.4938 53.4421C56.0498 53.4421 55.4058 52.9221 55.4058 51.4423V37.5757C55.4058 35.7959 54.8898 35.004 53.4057 35.004H42.4012C41.2891 35.004 40.6211 35.8319 40.6211 36.6118C40.6211 37.2564 40.9892 37.712 41.4587 38.2931C42.2187 39.2336 43.2445 40.5031 43.4052 43.4351V53.742C43.4052 55.9978 42.9972 56.4097 42.1091 56.4097C39.737 56.4097 33.9608 47.6947 30.5366 37.7237C29.8646 35.7879 29.1925 35.004 27.4044 35.004H20.4001C18.4 35.004 18 35.9439 18 36.9838C18 38.8356 20.3721 48.0306 29.0525 60.1934C34.8408 68.4965 42.9932 73 50.4095 73C54.8617 73 55.4098 71.9961 55.4098 70.2763V64.0009C55.4098 62.0012 55.8298 61.6012 57.2419 61.6012C58.2779 61.6012 60.058 62.1211 64.2142 66.1247C65.6266 67.5369 66.6882 68.7173 67.553 69.6788C69.5956 71.9498 70.5401 73 72.4146 73Z" fill="#E34C21"/>
</svg>
