<svg width="530" height="162" viewBox="0 0 530 162" fill="none" xmlns="http://www.w3.org/2000/svg">
<path d="M35.165 131.636L19.7987 119.245L12.1266 128.759L19.6928 136.371C22.5896 139.246 24.5041 141.689 25.4365 143.7L35.165 131.636ZM5.22413 129.289L19.4082 111.7L38.6978 127.255L41.4925 123.789L50.6796 131.198L47.5158 135.121L42.252 130.876L26.987 149.806L32.2508 154.051L29.0607 158.007L19.8736 150.599L21.9037 148.081C21.1639 146.01 19.2522 143.407 16.1683 140.273L5.22413 129.289Z" fill="#E35200"/>
<path d="M60.9406 112.463C57.6754 115.571 53.964 117.094 49.8065 117.031C45.6499 116.928 42.0466 115.275 38.9964 112.071C35.9077 108.826 34.4541 105.126 34.6358 100.971C34.7982 96.7963 36.4816 93.1838 39.686 90.1337C42.9513 87.0256 46.6622 85.5228 50.8187 85.6253C54.9762 85.6883 58.58 87.3219 61.6302 90.5264C64.719 93.7713 66.1821 97.4813 66.0198 101.656C65.8381 105.811 64.145 109.413 60.9406 112.463ZM57.4078 108.752C59.5171 106.744 60.5552 104.403 60.5221 101.728C60.49 99.0144 59.4701 96.6027 57.4624 94.4935C55.4354 92.364 53.077 91.2264 50.3871 91.0809C47.6972 90.9353 45.3077 91.8567 43.2188 93.8451C41.1096 95.8528 40.0811 98.2041 40.1335 100.899C40.1666 103.573 41.1869 105.965 43.1946 108.074C45.2216 110.204 47.5699 111.351 50.2396 111.516C52.9294 111.662 55.3189 110.74 57.4078 108.752Z" fill="#E35200"/>
<path d="M71.1338 79.124L79.2611 73.0906C81.8241 71.188 84.3488 70.2204 86.8354 70.1878C89.322 70.1552 91.4832 71.3754 93.3191 73.8484C95.1884 76.3664 95.7589 78.8025 95.0305 81.1565C94.3079 83.4714 92.6314 85.6052 90.001 87.5579L77.3548 96.946L59.5801 73.0024L78.971 58.6074L81.9751 62.6542L67.1032 73.6946L71.1338 79.124ZM82.0139 77.0102L73.9877 82.9685L78.8946 89.5782L86.9207 83.6199C89.686 81.5671 90.2509 79.439 88.6153 77.2358C87.7641 76.0892 86.7531 75.5494 85.5824 75.6165C84.4174 75.6444 83.2279 76.1089 82.0139 77.0102Z" fill="#E35200"/>
<path d="M106.252 76.2282L91.4922 50.3174L105.798 42.1681C108.596 40.5743 111.165 39.9648 113.505 40.3395C115.856 40.6761 117.807 42.2068 119.36 44.9317C120.884 47.6079 121.207 50.0985 120.329 52.4033C119.461 54.67 117.653 56.5864 114.903 58.1525L105.488 63.5161L111.143 73.4425L106.252 76.2282ZM108.037 46.6929L98.8771 51.911L102.993 59.1368L112.153 53.9188C113.418 53.1981 114.274 52.324 114.72 51.2966C115.176 50.231 115.058 49.09 114.365 47.8735C112.993 45.4649 110.884 45.0714 108.037 46.6929Z" fill="#E35200"/>
<path d="M149.708 54.5632C145.545 56.2943 141.535 56.3854 137.676 54.8364C133.833 53.2508 131.061 50.4156 129.363 46.3308C127.642 42.1943 127.611 38.2194 129.27 34.406C130.918 30.5667 133.785 27.7977 137.869 26.0988C142.032 24.3677 146.035 24.2949 149.878 25.8805C153.737 27.4295 156.516 30.2464 158.215 34.3312C159.935 38.4677 159.971 42.4555 158.323 46.2948C156.664 50.1081 153.793 52.8643 149.708 54.5632ZM147.74 49.832C150.429 48.7138 152.237 46.9003 153.165 44.3917C154.108 41.8465 154.02 39.2295 152.902 36.5408C151.773 33.8262 149.979 31.9189 147.52 30.8188C145.061 29.7187 142.5 29.7224 139.837 30.8299C137.148 31.9482 135.346 33.7745 134.428 36.309C133.501 38.8177 133.596 41.4163 134.714 44.1051C135.843 46.8196 137.624 48.7323 140.057 49.8432C142.516 50.9432 145.077 50.9395 147.74 49.832Z" fill="#E35200"/>
<path d="M183.213 42.0352L176.512 12.978L203.032 6.86161L209.733 35.9188L204.249 37.1836L198.68 13.0375L183.128 16.6243L188.697 40.7704L183.213 42.0352Z" fill="#E35200"/>
<path d="M233.618 33.3827C229.131 33.8241 225.269 32.741 222.03 30.1336C218.816 27.4955 216.993 23.9751 216.56 19.5724C216.121 15.1139 217.252 11.3029 219.951 8.13947C222.647 4.94815 226.197 3.13593 230.6 2.70281C235.086 2.26147 238.936 3.35983 242.15 5.99788C245.389 8.60532 247.225 12.1104 247.658 16.5132C248.096 20.9716 246.967 24.7965 244.271 27.9879C241.572 31.1513 238.021 32.9496 233.618 33.3827ZM233.116 28.2833C236.014 27.9982 238.273 26.7913 239.892 24.6626C241.537 22.5032 242.216 19.9745 241.931 17.0765C241.644 14.1506 240.484 11.8028 238.453 10.0332C236.422 8.26351 233.972 7.51985 231.101 7.8022C228.203 8.08729 225.946 9.30815 224.329 11.4648C222.71 13.5935 222.043 16.1069 222.328 19.0049C222.616 21.9308 223.761 24.28 225.764 26.0524C227.795 27.822 230.246 28.5657 233.116 28.2833Z" fill="#E35200"/>
<path d="M252.002 30.5804L268.382 16.1939L254.028 0.825048L261.033 1.18314L274.065 15.2648L274.749 1.88432L280.202 2.16307L279.515 15.5855L293.918 2.86425L300.881 3.2202L285.169 16.8839L300.113 33.0399L292.815 32.6668L279.378 18.27L278.679 31.9442L273.226 31.6654L273.923 18.0332L259.091 30.9428L252.002 30.5804Z" fill="#E35200"/>
<path d="M328.222 38.9782L326.758 32.4276L312.019 29.4557L308.13 34.9271L302.572 33.8064L321.625 7.09934L326.854 8.15363L334.11 40.1653L328.222 38.9782ZM315.081 25.1032L325.621 27.2283L322.734 14.3495L315.081 25.1032Z" fill="#E35200"/>
<path d="M358.371 21.7452L353.265 33.1872C352.578 34.6987 351.975 35.9138 351.458 36.8326C350.967 37.7604 350.317 38.723 349.508 39.7204C348.725 40.7267 347.907 41.4407 347.055 41.8624C346.23 42.293 345.198 42.5502 343.958 42.6338C342.753 42.7 341.422 42.4867 339.962 41.9939L339.127 41.7117L340.901 36.4592L341.537 36.6742C342.333 36.9429 343.028 37.0298 343.622 36.9347C344.082 36.8834 344.53 36.6948 344.965 36.3688C345.409 36.0164 345.778 35.6681 346.072 35.3239C346.365 34.9798 346.695 34.4852 347.06 33.8403C347.435 33.1688 347.685 32.6916 347.81 32.4088C347.961 32.1349 348.176 31.6753 348.453 31.03L355.447 15.4382L377.173 22.7752L367.633 51.0277L362.3 49.2271L370.229 25.7496L358.371 21.7452Z" fill="#E35200"/>
<path d="M390.559 61.9561C386.513 59.9675 383.801 57.0119 382.421 53.0893C381.08 49.1539 381.385 45.201 383.336 41.2307C385.313 37.2102 388.281 34.5666 392.242 33.2999C396.215 32.0081 400.187 32.338 404.157 34.2895C408.203 36.2781 410.897 39.2401 412.238 43.1754C413.618 47.0981 413.331 51.0445 411.38 55.0148C409.404 59.0354 406.429 61.6916 402.456 62.9833C398.495 64.25 394.529 63.9076 390.559 61.9561ZM392.819 57.3575C395.432 58.6421 397.988 58.8063 400.486 57.8501C403.021 56.8812 404.931 55.09 406.216 52.4766C407.513 49.8381 407.764 47.2318 406.97 44.6576C406.176 42.0834 404.485 40.1602 401.897 38.888C399.284 37.6035 396.722 37.4519 394.212 38.4332C391.714 39.3893 389.822 41.1741 388.538 43.7875C387.241 46.426 386.977 49.0261 387.746 51.588C388.54 54.1622 390.231 56.0853 392.819 57.3575Z" fill="#E35200"/>
<path d="M411.068 72.1186L427.403 47.1709L440.756 55.9138C443.192 57.509 444.842 59.3592 445.706 61.4644C446.57 63.5696 446.235 65.7935 444.701 68.136C443.428 70.0803 441.692 71.0188 439.494 70.9516C438.989 70.9557 438.367 70.8832 437.628 70.734C438.703 72.0065 439.266 73.4464 439.318 75.0535C439.37 76.6606 438.936 78.167 438.016 79.5725C436.405 82.0321 434.404 83.299 432.013 83.3731C429.645 83.4626 427.184 82.6714 424.631 80.9995L411.068 72.1186ZM437.606 59.5744L429.419 54.2136L425.415 60.3275L433.602 65.6883C436.296 67.4522 438.31 67.3152 439.645 65.2772C440.979 63.2392 440.3 61.3383 437.606 59.5744ZM431.178 69.7739L422.815 64.2981L418.329 71.1499L426.692 76.6257C429.667 78.5737 431.906 78.3999 433.409 76.1042C434.897 73.832 434.153 71.7219 431.178 69.7739Z" fill="#E35200"/>
<path d="M457.481 106.418L459.352 99.9714L447.864 90.27L441.822 93.1934L437.49 89.5351L467.048 75.3008L471.123 78.7424L462.069 110.293L457.481 106.418ZM452.644 87.9298L460.859 94.8672L464.529 82.1892L452.644 87.9298Z" fill="#E35200"/>
<path d="M483.092 96.1477L486.781 92.7139L506.755 114.173L503.066 117.607L494.996 108.937L476.858 125.82L473.023 121.701L491.162 104.817L483.092 96.1477Z" fill="#E35200"/>
<path d="M508.687 133.365L514.759 141.672C516.726 144.362 517.62 146.985 517.443 149.543C517.289 152.083 515.901 154.312 513.279 156.229C510.634 158.162 508.097 158.82 505.669 158.202C503.263 157.568 501.06 155.883 499.061 153.148L489.667 140.297L513.74 122.699L517.062 127.243L508.687 133.365ZM510.517 144.409L504.618 136.339L497.023 141.891L502.922 149.961C505.037 152.854 507.36 153.376 509.892 151.525C512.424 149.674 512.632 147.302 510.517 144.409Z" fill="#E35200"/>
</svg>
